if (_typeface_js && _typeface_js.loadFace) _typeface_js.loadFace({"glyphs":{"ǻ":{"x_min":58,"x_max":694,"ha":798,"o":"m 306 1189 l 306 1199 q 336 1229 320 1213 q 369 1263 353 1246 q 399 1298 385 1281 q 425 1331 414 1316 l 657 1331 l 657 1322 q 620 1292 646 1310 q 562 1255 594 1275 q 498 1218 530 1236 q 443 1189 466 1201 l 306 1189 m 548 0 l 508 104 l 502 104 q 457 51 479 73 q 408 14 434 28 q 349 -7 382 0 q 272 -14 316 -14 q 187 0 226 -14 q 119 44 148 15 q 74 119 90 74 q 58 226 58 164 q 135 404 58 347 q 366 467 212 461 l 487 472 l 487 529 q 460 598 487 575 q 384 620 432 620 q 289 606 335 620 q 196 568 242 592 l 129 705 q 255 755 186 737 q 400 774 324 774 q 618 707 542 774 q 694 505 694 641 l 694 0 l 548 0 m 487 351 l 418 348 q 348 337 377 347 q 302 312 319 328 q 277 274 285 296 q 269 226 269 253 q 292 159 269 178 q 353 139 315 139 q 406 149 381 139 q 448 177 430 158 q 476 225 466 197 q 487 289 487 253 l 487 351 m 572 975 q 558 907 572 937 q 522 856 545 877 q 467 824 498 835 q 399 813 436 813 q 330 824 362 813 q 277 856 299 835 q 243 906 255 876 q 231 974 231 937 q 243 1041 231 1011 q 277 1091 255 1071 q 330 1123 299 1112 q 399 1135 362 1135 q 466 1123 435 1135 q 521 1091 497 1112 q 558 1041 544 1071 q 572 975 572 1012 m 467 974 q 448 1021 467 1004 q 401 1038 430 1038 q 354 1021 372 1038 q 335 974 335 1004 q 351 926 335 944 q 401 909 368 909 q 448 926 430 909 q 467 974 467 944 "},"Á":{"x_min":-0.25,"x_max":903.25,"ha":903,"o":"m 690 0 l 623 238 l 280 238 l 212 0 l 0 0 l 322 996 l 579 996 l 903 0 l 690 0 m 574 413 l 510 629 q 498 669 506 642 q 480 731 489 697 q 463 798 471 764 q 451 856 455 832 q 444 821 449 841 q 434 778 440 800 q 422 732 428 755 q 411 688 416 709 q 401 652 405 668 q 394 629 396 637 l 331 413 l 574 413 m 335 1071 l 335 1089 q 365 1134 349 1108 q 397 1187 381 1160 q 427 1242 413 1215 q 453 1293 442 1269 l 685 1293 l 685 1278 q 663 1250 677 1266 q 630 1214 649 1233 q 591 1175 612 1195 q 549 1136 570 1155 q 507 1100 527 1117 q 472 1071 488 1083 l 335 1071 "},"ĥ":{"x_min":109,"x_max":767,"ha":871,"o":"m 767 0 l 560 0 l 560 442 q 534 565 560 524 q 456 606 509 606 q 389 590 416 606 q 345 542 362 574 q 322 463 329 510 q 315 356 315 416 l 315 0 l 109 0 l 109 1055 l 315 1055 l 315 840 q 314 780 315 811 q 311 722 313 748 q 306 661 308 690 l 317 661 q 402 746 350 720 q 518 773 453 773 q 620 757 575 773 q 699 707 666 741 q 749 620 731 673 q 767 494 767 568 l 767 0 m 594 1109 q 522 1161 559 1131 q 449 1227 484 1190 q 377 1161 412 1190 q 307 1109 342 1131 l 170 1109 l 170 1127 q 209 1172 187 1146 q 252 1225 230 1198 q 294 1280 274 1253 q 330 1331 315 1307 l 571 1331 q 606 1280 586 1307 q 648 1225 626 1253 q 692 1172 670 1198 q 732 1127 715 1146 l 732 1109 l 594 1109 "},"Κ":{"x_min":125,"x_max":880.25,"ha":880,"o":"m 880 0 l 641 0 l 413 412 l 335 354 l 335 0 l 125 0 l 125 992 l 335 992 l 335 514 l 417 654 l 644 992 l 877 992 l 561 544 l 880 0 "},"»":{"x_min":58,"x_max":759,"ha":813,"o":"m 759 370 l 549 63 l 401 143 l 548 380 l 401 616 l 549 697 l 759 388 l 759 370 m 416 370 l 206 63 l 58 143 l 205 380 l 58 616 l 206 697 l 416 388 l 416 370 "},"∆":{"x_min":39,"x_max":820,"ha":859,"o":"m 39 120 l 311 996 l 549 996 l 820 119 l 820 0 l 39 0 l 39 120 m 457 701 q 451 726 455 709 q 442 764 446 744 q 434 800 437 783 q 429 823 430 817 q 425 800 429 817 q 417 764 422 783 q 409 726 413 744 q 403 700 405 708 l 253 174 l 606 174 l 457 701 "},"ў":{"x_min":-0.25,"x_max":749.25,"ha":749,"o":"m 0 758 l 226 758 l 348 331 q 364 256 359 296 q 371 184 369 216 l 375 184 q 378 219 376 200 q 384 257 381 238 q 392 296 388 277 q 401 331 396 316 l 521 758 l 749 758 l 449 -96 q 334 -275 407 -217 q 152 -334 261 -334 q 91 -330 116 -334 q 47 -322 65 -326 l 47 -158 q 83 -164 61 -161 q 128 -167 104 -167 q 184 -158 161 -167 q 224 -133 207 -149 q 252 -95 240 -117 q 273 -44 264 -72 l 286 -6 l 0 758 m 702 1085 q 677 985 696 1030 q 618 909 657 941 q 518 859 580 877 q 367 842 457 842 q 215 858 275 842 q 117 907 154 875 q 64 983 81 939 q 44 1085 48 1028 l 230 1085 q 243 1020 233 1045 q 269 981 252 995 q 311 961 285 967 q 373 955 337 955 q 427 962 402 955 q 470 983 452 968 q 499 1023 488 998 q 515 1085 511 1048 l 702 1085 "},"ţ":{"x_min":32,"x_max":530,"ha":575,"o":"m 416 152 q 474 158 446 152 q 530 175 501 165 l 530 20 q 457 -4 500 5 q 364 -14 414 -14 q 271 -2 314 -14 q 198 38 229 9 q 148 115 166 67 q 131 237 131 164 l 131 604 l 32 604 l 32 691 l 145 759 l 205 919 l 337 919 l 337 758 l 521 758 l 521 604 l 337 604 l 337 238 q 359 173 337 194 q 416 152 381 152 m 174 -288 q 186 -242 180 -268 q 197 -188 192 -216 q 208 -134 203 -161 q 215 -85 213 -107 l 407 -85 l 407 -98 q 358 -198 386 -145 q 294 -307 330 -251 l 174 -307 l 174 -288 "},"«":{"x_min":56,"x_max":757,"ha":813,"o":"m 56 388 l 265 697 l 414 616 l 266 380 l 414 143 l 265 63 l 56 370 l 56 388 m 399 388 l 608 697 l 757 616 l 609 380 l 757 143 l 608 63 l 399 370 l 399 388 "},"í":{"x_min":99,"x_max":449,"ha":424,"o":"m 315 0 l 109 0 l 109 758 l 315 758 l 315 0 m 99 842 l 99 860 q 129 905 113 879 q 161 958 145 931 q 191 1013 177 986 q 217 1064 206 1040 l 449 1064 l 449 1049 q 427 1021 441 1037 q 394 985 413 1004 q 355 946 376 966 q 313 907 334 926 q 271 871 291 888 q 236 842 252 854 l 99 842 "},"ņ":{"x_min":109,"x_max":767,"ha":871,"o":"m 767 0 l 560 0 l 560 442 q 535 565 560 524 q 456 606 510 606 q 388 590 415 606 q 345 542 361 574 q 322 463 329 510 q 315 356 315 416 l 315 0 l 109 0 l 109 758 l 267 758 l 294 661 l 306 661 q 346 711 322 690 q 397 746 369 732 q 456 766 425 760 q 520 773 487 773 q 621 757 575 773 q 699 707 666 741 q 749 620 731 673 q 767 494 767 568 l 767 0 m 317 -288 q 329 -242 323 -268 q 340 -188 335 -216 q 351 -134 346 -161 q 358 -85 356 -107 l 550 -85 l 550 -98 q 501 -198 529 -145 q 437 -307 473 -251 l 317 -307 l 317 -288 "},"µ":{"x_min":109,"x_max":766,"ha":875,"o":"m 315 315 q 341 193 315 234 q 421 152 366 152 q 486 168 460 152 q 529 216 513 184 q 552 295 545 248 q 559 401 559 341 l 559 758 l 766 758 l 766 0 l 607 0 l 578 102 l 570 102 q 511 15 547 44 q 425 -14 476 -14 q 358 1 388 -14 q 309 47 328 17 q 312 -10 310 18 q 314 -64 313 -35 q 315 -117 315 -92 l 315 -334 l 109 -334 l 109 758 l 315 758 l 315 315 "},"ỳ":{"x_min":-0.25,"x_max":749.25,"ha":749,"o":"m 0 758 l 226 758 l 348 331 q 364 256 359 296 q 371 184 369 216 l 375 184 q 378 219 376 200 q 384 257 381 238 q 392 296 388 277 q 401 331 396 316 l 521 758 l 749 758 l 449 -96 q 334 -275 407 -217 q 152 -334 261 -334 q 91 -330 116 -334 q 47 -322 65 -326 l 47 -158 q 83 -164 61 -161 q 128 -167 104 -167 q 184 -158 161 -167 q 224 -133 207 -149 q 252 -95 240 -117 q 273 -44 264 -72 l 286 -6 l 0 758 m 324 842 q 269 889 301 860 q 205 946 236 917 q 148 1004 174 976 q 112 1049 122 1031 l 112 1064 l 343 1064 q 369 1013 354 1040 q 399 958 383 986 q 431 905 415 931 q 462 860 447 879 l 462 842 l 324 842 "},"Ι":{"x_min":44.28125,"x_max":495.96875,"ha":541,"o":"m 495 0 l 44 0 l 44 119 l 165 174 l 165 817 l 44 872 l 44 992 l 495 992 l 495 872 l 375 817 l 375 174 l 495 119 l 495 0 "},"Ύ":{"x_min":-39,"x_max":1005.25,"ha":1004,"o":"m 599 583 l 778 992 l 1005 992 l 704 385 l 704 0 l 494 0 l 494 379 l 192 992 l 420 992 l 599 583 m -39 789 q -26 835 -32 809 q -15 889 -20 861 q -5 943 -9 916 q 2 993 0 970 l 194 993 l 194 978 q 145 879 173 932 q 81 771 117 826 l -39 771 l -39 789 "},"ѕ":{"x_min":66,"x_max":614,"ha":668,"o":"m 614 225 q 592 120 614 165 q 530 45 570 75 q 433 0 490 15 q 305 -14 376 -14 q 236 -11 268 -14 q 176 -3 204 -9 q 121 9 147 1 q 67 30 94 17 l 67 201 q 127 176 95 187 q 189 156 158 164 q 249 143 220 148 q 304 139 279 139 q 351 144 331 139 q 383 158 370 149 q 401 179 395 167 q 407 205 407 191 q 402 230 407 219 q 382 254 398 242 q 337 283 367 267 q 256 322 307 299 q 171 366 207 344 q 112 415 135 388 q 77 477 88 442 q 66 561 66 512 q 86 653 66 614 q 144 720 106 693 q 234 759 181 746 q 351 773 286 773 q 480 757 419 773 q 605 710 541 741 l 543 564 q 445 604 492 588 q 352 619 398 619 q 291 604 310 619 q 272 563 272 589 q 277 539 272 550 q 296 518 282 529 q 336 493 310 506 q 403 461 362 480 q 490 419 451 440 q 556 372 528 398 q 599 310 584 345 q 614 225 614 275 "},"Ш":{"x_min":125,"x_max":1317,"ha":1442,"o":"m 825 174 l 1106 174 l 1106 992 l 1317 992 l 1317 0 l 125 0 l 125 992 l 335 992 l 335 174 l 615 174 l 615 992 l 825 992 l 825 174 "},"M":{"x_min":125,"x_max":1143,"ha":1268,"o":"m 523 0 l 305 778 l 299 778 q 306 657 303 715 q 308 605 307 632 q 310 553 309 579 q 311 503 311 527 q 312 461 312 480 l 312 0 l 125 0 l 125 992 l 410 992 l 625 233 l 629 233 l 856 992 l 1143 992 l 1143 0 l 947 0 l 947 469 q 947 509 947 487 q 948 556 947 531 q 950 607 949 581 q 951 657 951 633 q 956 776 954 714 l 951 776 l 716 0 l 523 0 "},"Ψ":{"x_min":74,"x_max":1088,"ha":1161,"o":"m 1088 667 q 1067 510 1088 578 q 1000 393 1046 441 q 882 321 954 346 q 706 296 809 296 l 674 296 l 674 0 l 487 0 l 487 296 l 455 296 q 279 320 351 296 q 160 391 206 344 q 94 507 115 439 q 74 664 74 576 l 74 992 l 270 992 l 270 665 q 283 566 270 605 q 321 504 296 526 q 383 472 347 481 q 468 462 420 462 l 487 462 l 487 992 l 674 992 l 674 462 l 692 462 q 771 471 735 462 q 835 502 808 479 q 876 563 861 524 q 892 662 892 602 l 892 992 l 1088 992 l 1088 667 "},"ũ":{"x_min":104,"x_max":762,"ha":871,"o":"m 603 0 l 576 96 l 565 96 q 524 46 548 67 q 473 12 501 26 q 414 -7 445 -1 q 350 -14 383 -14 q 249 1 295 -14 q 171 51 204 17 q 121 137 139 85 q 104 263 104 190 l 104 758 l 310 758 l 310 314 q 335 191 310 232 q 414 150 360 150 q 482 167 455 150 q 525 215 509 183 q 548 293 541 247 q 555 401 555 340 l 555 758 l 762 758 l 762 0 l 603 0 m 322 906 q 288 890 301 906 q 268 840 276 874 l 167 840 q 184 934 171 894 q 220 999 198 973 q 272 1037 242 1024 q 337 1050 301 1050 q 391 1040 365 1050 q 444 1017 418 1030 q 495 995 470 1005 q 545 985 521 985 q 578 1001 566 985 q 599 1051 591 1017 l 701 1051 q 683 958 696 997 q 646 893 669 919 q 594 854 624 867 q 530 842 565 842 q 476 852 503 842 q 423 874 448 862 q 372 896 397 886 q 322 906 346 906 "},"ŭ":{"x_min":104,"x_max":762,"ha":871,"o":"m 603 0 l 576 96 l 565 96 q 524 46 548 67 q 473 12 501 26 q 414 -7 445 -1 q 350 -14 383 -14 q 249 1 295 -14 q 171 51 204 17 q 121 137 139 85 q 104 263 104 190 l 104 758 l 310 758 l 310 314 q 335 191 310 232 q 414 150 360 150 q 482 167 455 150 q 525 215 509 183 q 548 293 541 247 q 555 401 555 340 l 555 758 l 762 758 l 762 0 l 603 0 m 678 1071 q 656 978 674 1020 q 608 906 639 936 q 532 858 576 875 q 429 842 487 842 q 325 858 369 842 q 250 904 280 874 q 204 976 220 934 q 186 1071 188 1018 l 301 1071 q 313 1024 304 1041 q 339 998 323 1007 q 378 987 355 989 q 430 985 401 985 q 477 988 455 985 q 516 1000 499 991 q 545 1026 534 1009 q 559 1071 557 1043 l 678 1071 "},"―":{"x_min":56,"x_max":1333,"ha":1389,"o":"m 56 296 l 56 452 l 1333 452 l 1333 296 l 56 296 "},"{":{"x_min":21,"x_max":492,"ha":505,"o":"m 195 183 q 150 277 195 249 q 21 304 105 304 l 21 467 q 96 473 63 467 q 151 494 129 479 q 185 532 173 509 q 195 587 196 555 l 195 803 q 207 889 195 853 q 254 947 220 924 q 345 981 287 970 q 492 992 403 992 l 492 838 q 442 833 464 838 q 405 819 420 829 q 382 790 390 808 q 374 743 374 772 l 374 540 q 215 390 369 414 l 215 382 q 334 333 293 370 q 374 232 376 295 l 374 29 q 382 -18 374 0 q 405 -47 390 -36 q 442 -61 420 -57 q 492 -66 464 -66 l 492 -220 q 345 -209 403 -220 q 254 -175 287 -198 q 207 -116 220 -152 q 195 -30 195 -80 l 195 183 "},"¼":{"x_min":32,"x_max":1141.203125,"ha":1224,"o":"m 929 992 l 378 0 l 216 0 l 767 992 l 929 992 m 365 397 l 204 397 l 204 700 q 204 734 204 713 q 205 776 204 755 q 207 814 206 797 q 209 840 208 832 q 198 828 205 835 q 185 813 192 820 q 171 799 178 805 q 158 787 164 792 l 105 746 l 32 832 l 235 992 l 365 992 l 365 397 m 1141 101 l 1056 101 l 1056 0 l 895 0 l 895 101 l 635 101 l 635 207 l 896 599 l 1056 599 l 1056 217 l 1141 217 l 1141 101 m 895 217 l 895 328 q 896 388 895 356 q 899 453 897 419 q 889 429 895 444 q 875 399 882 415 q 860 370 867 384 q 846 346 852 356 l 760 217 l 895 217 "},"Ḿ":{"x_min":125,"x_max":1143,"ha":1268,"o":"m 523 0 l 305 778 l 299 778 q 306 657 303 715 q 308 605 307 632 q 310 553 309 579 q 311 503 311 527 q 312 461 312 480 l 312 0 l 125 0 l 125 992 l 410 992 l 625 233 l 629 233 l 856 992 l 1143 992 l 1143 0 l 947 0 l 947 469 q 947 509 947 487 q 948 556 947 531 q 950 607 949 581 q 951 657 951 633 q 956 776 954 714 l 951 776 l 716 0 l 523 0 m 533 1073 l 533 1091 q 563 1136 547 1110 q 595 1189 579 1162 q 625 1244 611 1217 q 651 1295 640 1271 l 883 1295 l 883 1280 q 861 1252 875 1268 q 828 1216 847 1235 q 789 1177 810 1197 q 747 1138 768 1157 q 705 1102 725 1119 q 670 1073 686 1085 l 533 1073 "},"ι":{"x_min":109,"x_max":509,"ha":538,"o":"m 315 758 l 315 236 q 337 171 315 192 q 395 150 359 150 q 453 157 425 150 q 509 174 480 164 l 509 20 q 436 -4 479 5 q 342 -14 393 -14 q 250 -2 292 -14 q 176 37 207 9 q 126 115 144 66 q 109 237 109 163 l 109 758 l 315 758 "},"Ĳ":{"x_min":44.28125,"x_max":876,"ha":1000,"o":"m 495 0 l 44 0 l 44 119 l 165 174 l 165 817 l 44 872 l 44 992 l 495 992 l 495 872 l 375 817 l 375 174 l 495 119 l 495 0 m 539 -292 q 462 -287 495 -292 q 406 -277 429 -283 l 406 -103 q 458 -112 431 -108 q 518 -117 486 -117 q 576 -110 549 -117 q 623 -86 603 -103 q 654 -42 643 -70 q 665 27 665 -14 l 665 992 l 876 992 l 876 35 q 851 -111 876 -49 q 782 -213 826 -173 q 675 -273 737 -254 q 539 -292 614 -292 "},"Ê":{"x_min":125,"x_max":703,"ha":778,"o":"m 696 0 l 125 0 l 125 992 l 696 992 l 696 817 l 335 817 l 335 602 l 670 602 l 670 427 l 335 427 l 335 174 l 696 174 l 696 0 m 565 1071 q 493 1123 530 1093 q 420 1189 455 1152 q 348 1123 383 1152 q 278 1071 313 1093 l 141 1071 l 141 1089 q 180 1134 158 1108 q 223 1187 201 1160 q 265 1242 245 1215 q 301 1293 286 1269 l 542 1293 q 577 1242 557 1269 q 619 1187 597 1215 q 663 1134 641 1160 q 703 1089 686 1108 l 703 1071 l 565 1071 "},"Ά":{"x_min":-37,"x_max":903.25,"ha":903,"o":"m 690 0 l 623 238 l 280 238 l 212 0 l 0 0 l 322 996 l 579 996 l 903 0 l 690 0 m 574 413 l 510 629 q 498 669 506 642 q 480 731 489 697 q 463 798 471 764 q 451 856 455 832 q 444 821 449 841 q 434 778 440 800 q 422 732 428 755 q 411 688 416 709 q 401 652 405 668 q 394 629 396 637 l 331 413 l 574 413 m -37 789 q -24 835 -30 809 q -13 889 -18 861 q -3 943 -7 916 q 4 993 1 970 l 196 993 l 196 978 q 147 879 175 932 q 83 771 119 826 l -37 771 l -37 789 "},")":{"x_min":41,"x_max":415,"ha":471,"o":"m 415 380 q 402 214 415 296 q 365 57 390 133 q 301 -89 340 -19 q 210 -220 263 -158 l 42 -220 q 125 -84 89 -156 q 186 64 162 -12 q 223 221 211 141 q 235 381 235 301 q 186 704 235 547 q 41 992 137 861 l 210 992 q 301 857 263 928 q 365 708 340 785 q 402 547 390 630 q 415 380 415 465 "},"ε":{"x_min":53,"x_max":677,"ha":729,"o":"m 531 464 l 531 316 l 432 316 q 299 292 340 316 q 259 221 259 267 q 268 187 259 202 q 297 161 277 172 q 348 145 317 150 q 424 139 379 139 q 498 144 462 139 q 566 159 533 150 q 626 180 598 168 q 676 203 654 191 l 676 38 q 557 0 627 14 q 400 -14 488 -14 q 242 1 308 -14 q 134 46 177 17 q 72 115 92 74 q 53 206 53 156 q 66 278 53 248 q 104 330 79 308 q 163 366 128 352 q 240 387 198 379 l 240 394 q 129 457 165 411 q 93 571 93 502 q 117 664 93 626 q 184 726 142 702 q 283 762 227 751 q 403 773 340 773 q 477 768 440 773 q 550 757 515 764 q 617 739 585 749 q 677 716 649 728 l 620 566 q 527 603 576 586 q 421 619 478 619 q 365 615 390 619 q 324 603 341 612 q 297 581 306 594 q 287 547 287 567 q 325 483 287 502 q 444 464 363 464 l 531 464 "},"э":{"x_min":50,"x_max":607,"ha":676,"o":"m 266 -14 q 147 -3 199 -14 q 50 32 96 7 l 50 193 q 144 154 95 170 q 250 139 194 139 q 351 177 312 139 q 395 303 389 216 l 148 303 l 148 451 l 395 451 q 267 619 386 619 q 185 606 224 619 q 112 576 145 593 l 54 718 q 99 738 74 728 q 153 755 124 747 q 214 768 182 763 q 280 773 246 773 q 409 754 349 773 q 513 691 469 735 q 581 572 556 646 q 607 387 607 498 q 584 209 607 284 q 518 83 561 133 q 411 10 474 34 q 266 -14 347 -14 "},"ш":{"x_min":109,"x_max":1195,"ha":1304,"o":"m 1195 0 l 109 0 l 109 758 l 315 758 l 315 153 l 549 153 l 549 758 l 755 758 l 755 153 l 988 153 l 988 758 l 1195 758 l 1195 0 "},"Я":{"x_min":-7.25,"x_max":743,"ha":868,"o":"m 449 381 l 226 0 l -7 0 l 270 444 q 210 478 240 457 q 155 532 179 499 q 116 609 131 564 q 101 716 101 654 q 193 923 101 854 q 470 992 286 992 l 743 992 l 743 0 l 532 0 l 532 381 l 449 381 m 532 817 l 449 817 q 347 787 383 817 q 311 690 311 758 q 345 586 311 624 q 453 547 380 547 l 532 547 l 532 817 "},"a":{"x_min":58,"x_max":694,"ha":798,"o":"m 548 0 l 508 104 l 502 104 q 457 51 479 73 q 408 14 434 28 q 349 -7 382 0 q 272 -14 316 -14 q 187 0 226 -14 q 119 44 148 15 q 74 119 90 74 q 58 226 58 164 q 135 404 58 347 q 366 467 212 461 l 487 472 l 487 529 q 460 598 487 575 q 384 620 432 620 q 289 606 335 620 q 196 568 242 592 l 129 705 q 255 755 186 737 q 400 774 324 774 q 618 707 542 774 q 694 505 694 641 l 694 0 l 548 0 m 487 351 l 418 348 q 348 337 377 347 q 302 312 319 328 q 277 274 285 296 q 269 226 269 253 q 292 159 269 178 q 353 139 315 139 q 406 149 381 139 q 448 177 430 158 q 476 225 466 197 q 487 289 487 253 l 487 351 "},"Ę":{"x_min":125,"x_max":696,"ha":778,"o":"m 696 0 l 125 0 l 125 992 l 696 992 l 696 817 l 335 817 l 335 602 l 670 602 l 670 427 l 335 427 l 335 174 l 696 174 l 696 0 m 520 -154 q 535 -196 520 -182 q 574 -209 550 -209 q 617 -205 595 -209 q 652 -197 638 -201 l 652 -318 q 605 -329 630 -324 q 546 -334 580 -334 q 475 -322 507 -334 q 422 -290 444 -310 q 388 -241 400 -269 q 377 -177 377 -212 q 386 -124 377 -148 q 412 -78 395 -99 q 451 -38 429 -57 q 499 0 473 -19 l 620 0 q 546 -81 573 -44 q 520 -154 520 -118 "},"Z":{"x_min":33,"x_max":716,"ha":749,"o":"m 716 0 l 33 0 l 33 137 l 453 817 l 45 817 l 45 992 l 703 992 l 703 855 l 283 174 l 716 174 l 716 0 "}," ":{"x_min":0,"x_max":0,"ha":231},"k":{"x_min":109,"x_max":819.25,"ha":819,"o":"m 307 412 l 383 527 l 568 758 l 801 758 l 527 429 l 819 0 l 580 0 l 396 291 l 315 235 l 315 0 l 109 0 l 109 1055 l 315 1055 l 315 584 l 305 412 l 307 412 "},"Ù":{"x_min":118,"x_max":876,"ha":994,"o":"m 876 992 l 876 349 q 852 205 876 272 q 781 90 829 139 q 661 13 733 41 q 492 -14 589 -14 q 331 12 401 -14 q 213 86 261 38 q 142 202 166 134 q 118 352 118 269 l 118 992 l 328 992 l 328 367 q 339 272 328 311 q 371 208 349 233 q 424 172 392 184 q 498 160 455 160 q 626 212 586 160 q 665 368 665 264 l 665 992 l 876 992 m 479 1071 q 424 1118 456 1089 q 360 1175 391 1146 q 303 1233 329 1205 q 267 1278 277 1260 l 267 1293 l 498 1293 q 524 1242 509 1269 q 554 1187 538 1215 q 586 1134 570 1160 q 617 1089 602 1108 l 617 1071 l 479 1071 "},"Ů":{"x_min":118,"x_max":876,"ha":994,"o":"m 876 992 l 876 349 q 852 205 876 272 q 781 90 829 139 q 661 13 733 41 q 492 -14 589 -14 q 331 12 401 -14 q 213 86 261 38 q 142 202 166 134 q 118 352 118 269 l 118 992 l 328 992 l 328 367 q 339 272 328 311 q 371 208 349 233 q 424 172 392 184 q 498 160 455 160 q 626 212 586 160 q 665 368 665 264 l 665 992 l 876 992 m 671 1231 q 657 1163 671 1193 q 621 1112 644 1133 q 566 1080 597 1091 q 498 1069 535 1069 q 430 1080 461 1069 q 377 1112 399 1091 q 343 1162 355 1132 q 331 1230 331 1193 q 343 1297 331 1267 q 377 1347 355 1327 q 430 1379 399 1368 q 498 1391 461 1391 q 566 1379 534 1391 q 620 1347 597 1368 q 657 1297 643 1327 q 671 1231 671 1268 m 565 1230 q 547 1278 565 1260 q 501 1295 529 1295 q 454 1278 472 1295 q 436 1230 436 1260 q 452 1182 436 1199 q 501 1164 468 1164 q 547 1182 529 1164 q 565 1230 565 1199 "},"¢":{"x_min":97,"x_max":672.984375,"ha":765,"o":"m 368 -14 l 368 126 q 255 160 305 134 q 170 230 205 185 q 115 343 134 276 q 97 504 97 411 q 115 668 97 599 q 170 783 134 737 q 256 855 206 829 q 368 889 306 880 l 368 1006 l 488 1006 l 488 895 q 540 890 514 894 q 590 881 565 887 q 635 869 614 876 q 672 855 656 863 l 614 705 q 582 718 600 711 q 545 729 564 724 q 507 737 526 734 q 472 741 488 741 q 396 727 427 741 q 344 685 365 713 q 316 613 324 656 q 307 510 307 570 q 346 339 307 393 q 472 284 384 284 q 572 297 524 284 q 654 326 620 309 l 654 164 q 577 133 619 144 q 488 122 535 123 l 488 -14 l 368 -14 "},"В":{"x_min":125,"x_max":818,"ha":892,"o":"m 125 992 l 415 992 q 579 978 508 992 q 697 936 649 965 q 768 858 744 906 q 793 740 793 810 q 782 662 793 698 q 752 597 772 625 q 705 551 733 569 q 640 526 677 532 l 640 519 q 709 496 677 511 q 766 454 742 480 q 804 386 790 427 q 818 287 818 345 q 794 166 818 219 q 726 76 770 113 q 618 19 681 39 q 474 0 554 0 l 125 0 l 125 992 m 335 599 l 444 599 q 509 606 483 599 q 552 627 536 613 q 575 662 568 641 q 582 711 582 683 q 547 792 582 768 q 434 817 511 817 l 335 817 l 335 599 m 335 432 l 335 174 l 459 174 q 529 184 501 174 q 575 211 557 193 q 600 253 592 228 q 607 309 607 278 q 600 359 607 336 q 574 398 592 382 q 527 423 556 414 q 454 432 497 432 l 335 432 "},"І":{"x_min":44.28125,"x_max":495.96875,"ha":541,"o":"m 495 0 l 44 0 l 44 119 l 165 174 l 165 817 l 44 872 l 44 992 l 495 992 l 495 872 l 375 817 l 375 174 l 495 119 l 495 0 "},"ē":{"x_min":69,"x_max":741,"ha":807,"o":"m 414 625 q 322 586 358 625 q 279 465 285 548 l 546 465 q 537 529 545 499 q 512 579 529 558 q 471 613 496 601 q 414 625 447 625 m 441 -14 q 291 9 359 -14 q 173 81 222 33 q 96 202 123 129 q 69 373 69 275 q 94 548 69 473 q 164 672 119 622 q 272 747 209 722 q 413 773 336 773 q 549 750 489 773 q 653 683 610 727 q 718 574 695 639 q 741 427 741 510 l 741 327 l 275 327 q 289 248 277 283 q 325 189 302 213 q 380 152 348 165 q 454 139 412 139 q 520 143 489 139 q 580 154 551 146 q 638 172 609 161 q 697 198 667 184 l 697 39 q 642 15 669 25 q 584 -1 614 5 q 518 -10 553 -7 q 441 -14 483 -14 m 204 985 l 622 985 l 622 842 l 204 842 l 204 985 "},"β":{"x_min":109,"x_max":827,"ha":875,"o":"m 450 1063 q 579 1046 520 1063 q 681 996 638 1029 q 748 913 724 963 q 773 796 773 862 q 721 636 773 695 q 574 562 669 578 l 574 558 q 679 532 633 551 q 759 481 726 513 q 809 402 791 449 q 827 292 827 356 q 805 162 827 219 q 743 66 783 105 q 646 6 702 27 q 519 -14 589 -14 q 406 -3 458 -14 q 315 28 354 7 l 315 -334 l 109 -334 l 109 743 q 135 887 109 826 q 207 986 161 947 q 315 1044 252 1025 q 450 1063 377 1063 m 444 896 q 394 888 418 896 q 353 860 371 880 q 326 806 336 840 q 315 720 315 772 l 315 199 q 349 179 330 188 q 388 164 368 171 q 427 155 408 158 q 464 152 447 152 q 578 193 540 152 q 615 311 615 235 q 601 382 615 353 q 563 429 587 411 q 506 455 538 447 q 437 462 474 462 l 388 462 l 388 629 l 424 629 q 487 639 461 629 q 531 667 513 649 q 557 712 549 686 q 566 769 566 737 q 532 865 566 833 q 444 896 499 896 "},"≠":{"x_min":60,"x_max":705,"ha":765,"o":"m 367 284 l 281 97 l 145 154 l 204 284 l 60 284 l 60 433 l 273 433 l 327 546 l 60 546 l 60 695 l 395 695 l 484 885 l 620 827 l 557 695 l 705 695 l 705 546 l 490 546 l 436 433 l 705 433 l 705 284 l 367 284 "},"‼":{"x_min":79,"x_max":712,"ha":791,"o":"m 281 330 l 116 330 l 81 992 l 316 992 l 281 330 m 79 97 q 88 151 79 129 q 113 187 97 173 q 151 206 129 200 q 198 213 173 213 q 243 206 221 213 q 280 187 264 200 q 306 151 297 173 q 316 97 316 129 q 306 45 316 66 q 280 9 297 23 q 243 -11 264 -5 q 198 -18 221 -18 q 151 -11 173 -18 q 113 9 129 -5 q 88 45 97 23 q 79 97 79 66 m 677 330 l 512 330 l 477 992 l 712 992 l 677 330 m 475 97 q 484 151 475 129 q 509 187 493 173 q 547 206 525 200 q 594 213 569 213 q 639 206 617 213 q 676 187 660 200 q 702 151 693 173 q 712 97 712 129 q 702 45 712 66 q 676 9 693 23 q 639 -11 660 -5 q 594 -18 617 -18 q 547 -11 569 -18 q 509 9 525 -5 q 484 45 493 23 q 475 97 475 66 "},"¥":{"x_min":4.75,"x_max":776.25,"ha":765,"o":"m 390 583 l 563 992 l 776 992 l 530 485 l 662 485 l 662 364 l 496 364 l 496 271 l 662 271 l 662 150 l 496 150 l 496 0 l 286 0 l 286 150 l 117 150 l 117 271 l 286 271 l 286 364 l 117 364 l 117 485 l 247 485 l 4 992 l 219 992 l 390 583 "},"Ĥ":{"x_min":125,"x_max":882,"ha":1007,"o":"m 882 0 l 671 0 l 671 428 l 335 428 l 335 0 l 125 0 l 125 992 l 335 992 l 335 603 l 671 603 l 671 992 l 882 992 l 882 0 m 642 1071 q 570 1123 607 1093 q 497 1189 532 1152 q 425 1123 460 1152 q 355 1071 390 1093 l 218 1071 l 218 1089 q 257 1134 235 1108 q 300 1187 278 1160 q 342 1242 322 1215 q 378 1293 363 1269 l 619 1293 q 654 1242 634 1269 q 696 1187 674 1215 q 740 1134 718 1160 q 780 1089 763 1108 l 780 1071 l 642 1071 "},"U":{"x_min":118,"x_max":876,"ha":994,"o":"m 876 992 l 876 349 q 852 205 876 272 q 781 90 829 139 q 661 13 733 41 q 492 -14 589 -14 q 331 12 401 -14 q 213 86 261 38 q 142 202 166 134 q 118 352 118 269 l 118 992 l 328 992 l 328 367 q 339 272 328 311 q 371 208 349 233 q 424 172 392 184 q 498 160 455 160 q 626 212 586 160 q 665 368 665 264 l 665 992 l 876 992 "},"Ñ":{"x_min":125,"x_max":963,"ha":1088,"o":"m 963 0 l 697 0 l 305 750 l 299 750 q 306 646 303 698 q 310 554 308 602 q 312 466 312 505 l 312 0 l 125 0 l 125 992 l 389 992 l 781 248 l 785 248 q 780 350 783 300 q 778 395 779 372 q 777 440 777 417 q 776 484 776 463 q 775 522 775 505 l 775 992 l 963 992 l 963 0 m 423 1135 q 389 1119 402 1135 q 369 1069 377 1103 l 268 1069 q 285 1163 272 1123 q 321 1228 299 1202 q 373 1266 343 1253 q 438 1279 402 1279 q 492 1269 466 1279 q 545 1246 519 1259 q 596 1224 571 1234 q 646 1214 622 1214 q 679 1230 667 1214 q 700 1280 692 1246 l 802 1280 q 784 1187 797 1226 q 747 1122 770 1148 q 695 1083 725 1096 q 631 1071 666 1071 q 577 1081 604 1071 q 524 1103 549 1091 q 473 1125 498 1115 q 423 1135 447 1135 "},"F":{"x_min":125,"x_max":693,"ha":762,"o":"m 330 0 l 125 0 l 125 992 l 693 992 l 693 817 l 330 817 l 330 564 l 667 564 l 667 389 l 330 389 l 330 0 "},"ϑ":{"x_min":28.03125,"x_max":933.140625,"ha":975,"o":"m 628 675 q 609 777 622 732 q 576 853 595 822 q 533 900 558 884 q 482 916 509 916 q 430 897 449 916 q 410 840 410 878 q 422 780 410 809 q 459 727 433 750 q 526 690 484 704 q 628 675 567 675 m 845 524 q 846 511 846 519 q 847 494 847 503 q 847 477 847 485 q 847 463 847 468 q 838 339 847 399 q 809 226 829 279 q 758 129 790 173 q 681 53 727 85 q 576 3 636 21 q 440 -14 516 -14 q 300 4 354 -14 q 215 55 246 23 q 174 127 185 86 q 163 210 163 167 q 167 281 163 246 q 171 346 171 317 q 162 384 171 374 q 135 393 152 393 q 103 387 120 393 q 76 374 87 380 l 28 500 q 119 541 68 523 q 233 560 170 560 q 332 528 296 560 q 367 437 367 496 q 362 349 367 394 q 357 256 357 304 q 363 215 357 234 q 382 182 369 196 q 416 160 396 168 q 467 152 437 152 q 593 230 550 152 q 635 478 635 309 q 635 486 635 480 q 635 498 635 492 q 635 511 635 505 q 634 521 634 517 q 433 552 515 523 q 300 628 351 581 q 226 732 249 674 q 204 849 204 790 q 219 938 204 897 q 269 1008 235 978 q 352 1053 302 1037 q 471 1070 403 1070 q 621 1040 558 1070 q 727 958 684 1011 q 796 833 771 906 q 834 675 822 761 l 933 675 l 933 524 l 845 524 "},"Ќ":{"x_min":125,"x_max":878.25,"ha":878,"o":"m 878 0 l 639 0 l 335 502 l 335 0 l 125 0 l 125 992 l 335 992 l 335 511 l 635 992 l 859 992 l 552 515 l 878 0 m 338 1071 l 338 1089 q 368 1134 352 1108 q 400 1187 384 1160 q 430 1242 416 1215 q 456 1293 445 1269 l 688 1293 l 688 1278 q 666 1250 680 1266 q 633 1214 652 1233 q 594 1175 615 1195 q 552 1136 573 1155 q 510 1100 530 1117 q 475 1071 491 1083 l 338 1071 "},"å":{"x_min":58,"x_max":694,"ha":798,"o":"m 548 0 l 508 104 l 502 104 q 457 51 479 73 q 408 14 434 28 q 349 -7 382 0 q 272 -14 316 -14 q 187 0 226 -14 q 119 44 148 15 q 74 119 90 74 q 58 226 58 164 q 135 404 58 347 q 366 467 212 461 l 487 472 l 487 529 q 460 598 487 575 q 384 620 432 620 q 289 606 335 620 q 196 568 242 592 l 129 705 q 255 755 186 737 q 400 774 324 774 q 618 707 542 774 q 694 505 694 641 l 694 0 l 548 0 m 487 351 l 418 348 q 348 337 377 347 q 302 312 319 328 q 277 274 285 296 q 269 226 269 253 q 292 159 269 178 q 353 139 315 139 q 406 149 381 139 q 448 177 430 158 q 476 225 466 197 q 487 289 487 253 l 487 351 m 571 1002 q 557 934 571 964 q 521 883 544 904 q 466 851 497 862 q 398 840 435 840 q 330 851 361 840 q 277 883 299 862 q 243 933 255 903 q 231 1001 231 964 q 243 1068 231 1038 q 277 1118 255 1098 q 330 1150 299 1139 q 398 1162 361 1162 q 466 1150 434 1162 q 520 1118 497 1139 q 557 1068 543 1098 q 571 1002 571 1039 m 465 1001 q 447 1049 465 1031 q 401 1066 429 1066 q 354 1049 372 1066 q 336 1001 336 1031 q 352 953 336 970 q 401 935 368 935 q 447 953 429 935 q 465 1001 465 970 "},"Ϋ":{"x_min":-0.25,"x_max":812.25,"ha":811,"o":"m 406 583 l 585 992 l 812 992 l 511 385 l 511 0 l 301 0 l 301 379 l 0 992 l 227 992 l 406 583 m 174 1182 q 181 1223 174 1206 q 201 1251 188 1240 q 231 1268 214 1263 q 268 1274 248 1274 q 305 1268 288 1274 q 335 1251 322 1263 q 356 1223 348 1240 q 364 1182 364 1206 q 356 1142 364 1159 q 335 1114 348 1125 q 305 1097 322 1102 q 268 1092 288 1092 q 231 1097 248 1092 q 201 1114 214 1102 q 181 1142 188 1125 q 174 1182 174 1159 m 447 1182 q 454 1223 447 1206 q 474 1251 461 1240 q 505 1268 487 1263 q 543 1274 522 1274 q 579 1268 562 1274 q 610 1251 596 1263 q 631 1223 623 1240 q 639 1182 639 1206 q 631 1142 639 1159 q 610 1114 623 1125 q 579 1097 596 1102 q 543 1092 562 1092 q 474 1114 502 1092 q 447 1182 447 1136 "},"0":{"x_min":43,"x_max":722,"ha":765,"o":"m 722 495 q 703 281 722 375 q 643 121 684 186 q 538 20 602 55 q 381 -14 473 -14 q 232 20 295 -14 q 126 121 168 55 q 63 281 84 186 q 43 495 43 375 q 61 710 43 615 q 120 871 80 805 q 225 972 161 937 q 381 1007 290 1007 q 530 972 467 1007 q 637 871 594 937 q 700 711 679 806 q 722 495 722 616 m 253 495 q 281 240 253 326 q 381 155 310 155 q 481 240 450 155 q 511 495 511 325 q 481 751 511 665 q 381 837 450 837 q 321 815 346 837 q 281 751 297 794 q 259 644 266 708 q 253 495 253 580 "},"ō":{"x_min":69,"x_max":762,"ha":832,"o":"m 280 380 q 312 209 280 267 q 415 152 344 152 q 518 210 486 152 q 550 380 550 267 q 518 550 550 494 q 414 606 486 606 q 312 550 343 606 q 280 380 280 494 m 762 380 q 737 212 762 285 q 668 88 713 138 q 558 12 623 38 q 413 -14 494 -14 q 275 12 338 -14 q 166 88 212 38 q 94 212 120 138 q 69 380 69 285 q 93 548 69 474 q 162 671 117 621 q 271 747 207 721 q 417 773 336 773 q 555 747 492 773 q 664 671 618 721 q 736 548 710 621 q 762 380 762 474 m 206 985 l 624 985 l 624 842 l 206 842 l 206 985 "},"”":{"x_min":16,"x_max":601,"ha":615,"o":"m 284 977 q 261 898 274 939 q 232 815 248 857 q 198 731 216 772 q 164 652 181 690 l 16 652 q 35 737 25 692 q 54 827 45 782 q 71 913 63 871 q 83 992 78 956 l 273 992 l 284 977 m 601 977 q 578 898 591 939 q 548 815 564 857 q 515 731 532 772 q 481 652 498 690 l 332 652 q 352 737 342 692 q 371 827 362 782 q 387 913 380 871 q 400 992 395 956 l 590 992 l 601 977 "},"ö":{"x_min":69,"x_max":762,"ha":832,"o":"m 280 380 q 312 209 280 267 q 415 152 344 152 q 518 210 486 152 q 550 380 550 267 q 518 550 550 494 q 414 606 486 606 q 312 550 343 606 q 280 380 280 494 m 762 380 q 737 212 762 285 q 668 88 713 138 q 558 12 623 38 q 413 -14 494 -14 q 275 12 338 -14 q 166 88 212 38 q 94 212 120 138 q 69 380 69 285 q 93 548 69 474 q 162 671 117 621 q 271 747 207 721 q 417 773 336 773 q 555 747 492 773 q 664 671 618 721 q 736 548 710 621 q 762 380 762 474 m 181 953 q 188 994 181 977 q 208 1022 195 1011 q 238 1039 221 1034 q 275 1045 255 1045 q 312 1039 295 1045 q 342 1022 329 1034 q 363 994 355 1011 q 371 953 371 977 q 363 913 371 930 q 342 885 355 896 q 312 868 329 873 q 275 863 295 863 q 238 868 255 863 q 208 885 221 873 q 188 913 195 896 q 181 953 181 930 m 454 953 q 461 994 454 977 q 481 1022 468 1011 q 512 1039 494 1034 q 550 1045 529 1045 q 586 1039 569 1045 q 617 1022 603 1034 q 638 994 630 1011 q 646 953 646 977 q 638 913 646 930 q 617 885 630 896 q 586 868 603 873 q 550 863 569 863 q 481 885 509 863 q 454 953 454 907 "},"ć":{"x_min":69,"x_max":664,"ha":693,"o":"m 424 -14 q 277 8 342 -14 q 165 78 211 30 q 93 198 118 125 q 69 375 69 272 q 94 564 69 488 q 166 687 119 641 q 278 753 212 733 q 424 773 343 773 q 540 758 482 773 q 648 718 597 744 l 588 562 q 502 594 544 581 q 423 606 461 606 q 314 549 348 606 q 280 376 280 491 q 314 206 280 261 q 421 152 348 152 q 528 167 480 152 q 627 206 576 182 l 627 35 q 578 13 601 23 q 530 -1 554 4 q 480 -10 506 -7 q 424 -14 453 -14 m 314 842 l 314 860 q 344 905 328 879 q 376 958 360 931 q 406 1013 392 986 q 432 1064 421 1040 l 664 1064 l 664 1049 q 642 1021 656 1037 q 609 985 628 1004 q 570 946 591 966 q 528 907 549 926 q 486 871 506 888 q 451 842 467 854 l 314 842 "},"þ":{"x_min":109,"x_max":775,"ha":844,"o":"m 315 659 q 348 704 329 683 q 391 739 366 724 q 445 764 415 755 q 512 773 475 773 q 619 747 571 773 q 701 673 667 722 q 755 550 736 623 q 775 380 775 476 q 756 209 775 283 q 702 86 737 136 q 619 11 668 36 q 512 -14 571 -14 q 445 -6 475 -14 q 390 12 414 0 q 348 42 366 25 q 315 77 330 58 l 306 77 q 311 35 308 55 q 314 0 313 18 q 315 -27 315 -17 l 315 -334 l 109 -334 l 109 1055 l 315 1055 l 315 789 q 314 751 315 773 q 311 708 313 728 q 306 659 308 684 l 315 659 m 443 606 q 384 594 408 606 q 345 556 360 581 q 323 492 330 531 q 315 403 317 454 l 315 380 q 322 282 315 325 q 343 211 328 239 q 383 167 358 182 q 444 152 407 152 q 534 211 505 152 q 563 382 563 269 q 534 550 563 494 q 443 606 505 606 "},"]":{"x_min":35,"x_max":363,"ha":460,"o":"m 35 -76 l 183 -76 l 183 848 l 35 848 l 35 992 l 363 992 l 363 -220 l 35 -220 l 35 -76 "},"А":{"x_min":-0.25,"x_max":903.25,"ha":903,"o":"m 690 0 l 623 238 l 280 238 l 212 0 l 0 0 l 322 996 l 579 996 l 903 0 l 690 0 m 574 413 l 510 629 q 498 669 506 642 q 480 731 489 697 q 463 798 471 764 q 451 856 455 832 q 444 821 449 841 q 434 778 440 800 q 422 732 428 755 q 411 688 416 709 q 401 652 405 668 q 394 629 396 637 l 331 413 l 574 413 "},"′":{"x_min":90,"x_max":279.21875,"ha":370,"o":"m 279 992 l 251 634 l 117 634 l 90 992 l 279 992 "},"Ы":{"x_min":125,"x_max":1078,"ha":1203,"o":"m 769 310 q 746 179 769 237 q 678 81 724 121 q 560 21 631 42 q 390 0 489 0 l 125 0 l 125 992 l 335 992 l 335 613 l 408 613 q 569 590 501 613 q 681 527 637 568 q 747 432 726 487 q 769 310 769 376 m 335 174 l 393 174 q 462 182 431 174 q 514 205 492 189 q 547 247 536 221 q 558 310 558 273 q 546 374 558 349 q 510 413 534 399 q 453 432 487 427 q 378 438 420 438 l 335 438 l 335 174 m 1078 0 l 867 0 l 867 992 l 1078 992 l 1078 0 "},"ẁ":{"x_min":-0.25,"x_max":1120.25,"ha":1120,"o":"m 688 0 l 629 265 q 622 297 626 276 q 612 346 618 319 q 601 403 607 372 q 589 463 595 433 q 559 613 575 532 l 555 613 q 527 462 539 532 q 515 402 521 432 q 504 344 510 371 q 494 296 499 317 q 487 262 490 274 l 426 0 l 204 0 l 0 758 l 205 758 l 282 422 q 294 359 288 395 q 306 284 301 322 q 317 213 312 246 q 324 160 322 179 l 328 160 q 331 193 329 172 q 337 237 334 214 q 344 286 341 261 q 352 332 348 311 q 359 371 356 354 q 364 394 362 387 l 447 758 l 674 758 l 754 394 q 763 348 757 379 q 774 281 768 317 q 784 212 780 246 q 789 160 788 178 l 793 160 q 800 210 795 176 q 811 281 805 243 q 824 357 817 320 q 837 422 831 395 l 917 758 l 1120 758 l 913 0 l 688 0 m 529 842 q 474 889 506 860 q 410 946 441 917 q 353 1004 379 976 q 317 1049 327 1031 l 317 1064 l 548 1064 q 574 1013 559 1040 q 604 958 588 986 q 636 905 620 931 q 667 860 652 879 l 667 842 l 529 842 "},"ĭ":{"x_min":-34,"x_max":458,"ha":424,"o":"m 315 0 l 109 0 l 109 758 l 315 758 l 315 0 m 458 1071 q 436 978 454 1020 q 388 906 419 936 q 312 858 356 875 q 209 842 267 842 q 105 858 149 842 q 30 904 60 874 q -15 976 0 934 q -34 1071 -31 1018 l 81 1071 q 93 1024 84 1041 q 119 998 103 1007 q 158 987 135 989 q 210 985 181 985 q 257 988 235 985 q 296 1000 279 991 q 325 1026 314 1009 q 339 1071 337 1043 l 458 1071 "},"8":{"x_min":49,"x_max":717,"ha":765,"o":"m 383 1004 q 499 989 444 1004 q 595 944 554 974 q 661 869 637 914 q 686 764 686 825 q 672 683 686 720 q 635 618 658 647 q 579 565 611 588 q 508 523 546 542 q 585 476 547 502 q 652 418 623 450 q 699 346 681 386 q 717 256 717 306 q 692 144 717 195 q 624 59 668 94 q 518 5 580 24 q 383 -14 457 -14 q 240 4 303 -14 q 135 56 178 22 q 71 140 93 90 q 49 251 49 189 q 63 342 49 302 q 104 416 78 383 q 165 473 130 448 q 239 518 199 499 q 176 563 205 539 q 126 618 147 588 q 92 685 105 648 q 80 766 80 722 q 104 869 80 825 q 171 944 129 913 q 268 989 213 974 q 383 1004 323 1004 m 259 263 q 267 213 259 236 q 290 174 274 190 q 328 149 305 158 q 381 139 351 139 q 475 173 444 139 q 506 262 506 207 q 496 313 506 290 q 469 355 485 336 q 431 391 452 374 q 389 422 410 407 l 376 431 q 328 399 349 417 q 291 361 306 382 q 267 316 276 340 q 259 263 259 292 m 382 850 q 345 843 362 850 q 316 823 328 836 q 297 791 304 810 q 290 749 290 773 q 297 700 290 721 q 317 664 305 679 q 347 635 330 648 q 383 611 364 623 q 418 634 401 621 q 447 664 434 647 q 468 701 460 680 q 475 749 475 722 q 468 791 475 773 q 449 823 461 810 q 419 843 436 836 q 382 850 402 850 "},"R":{"x_min":125,"x_max":875.25,"ha":875,"o":"m 335 545 l 393 545 q 520 581 481 545 q 558 685 558 616 q 517 786 558 756 q 389 817 476 817 l 335 817 l 335 545 m 335 379 l 335 0 l 125 0 l 125 992 l 396 992 q 678 918 587 992 q 769 694 769 844 q 755 601 769 642 q 719 527 741 559 q 666 471 696 495 q 604 430 637 447 q 739 215 679 310 q 789 136 765 175 q 832 67 813 98 q 863 18 851 37 l 875 0 l 641 0 l 427 379 l 335 379 "},"Ż":{"x_min":33,"x_max":716,"ha":749,"o":"m 716 0 l 33 0 l 33 137 l 453 817 l 45 817 l 45 992 l 703 992 l 703 855 l 283 174 l 716 174 l 716 0 m 275 1183 q 283 1232 275 1213 q 307 1263 292 1251 q 343 1280 323 1275 q 387 1285 364 1285 q 430 1280 410 1285 q 466 1263 451 1275 q 490 1232 481 1251 q 500 1183 500 1213 q 490 1135 500 1155 q 466 1104 481 1115 q 430 1087 451 1092 q 387 1082 410 1082 q 343 1087 364 1082 q 307 1104 323 1092 q 283 1135 292 1115 q 275 1183 275 1155 "},"ħ":{"x_min":3,"x_max":767,"ha":871,"o":"m 767 0 l 560 0 l 560 400 q 534 522 560 482 q 456 563 509 563 q 389 547 416 563 q 345 498 362 530 q 322 420 329 467 q 315 314 315 374 l 315 0 l 109 0 l 109 808 l 3 808 l 3 946 l 109 946 l 109 1055 l 315 1055 l 315 946 l 529 946 l 529 808 l 315 808 l 315 796 q 314 736 315 767 q 311 678 313 705 l 306 617 l 317 617 q 402 703 350 677 q 518 730 453 730 q 620 714 575 730 q 699 664 666 698 q 749 577 731 630 q 767 452 767 525 l 767 0 "},"õ":{"x_min":69,"x_max":762,"ha":832,"o":"m 280 380 q 312 209 280 267 q 415 152 344 152 q 518 210 486 152 q 550 380 550 267 q 518 550 550 494 q 414 606 486 606 q 312 550 343 606 q 280 380 280 494 m 762 380 q 737 212 762 285 q 668 88 713 138 q 558 12 623 38 q 413 -14 494 -14 q 275 12 338 -14 q 166 88 212 38 q 94 212 120 138 q 69 380 69 285 q 93 548 69 474 q 162 671 117 621 q 271 747 207 721 q 417 773 336 773 q 555 747 492 773 q 664 671 618 721 q 736 548 710 621 q 762 380 762 474 m 301 906 q 267 890 280 906 q 247 840 255 874 l 146 840 q 163 934 150 894 q 199 999 177 973 q 251 1037 221 1024 q 316 1050 280 1050 q 370 1040 344 1050 q 423 1017 397 1030 q 474 995 449 1005 q 524 985 500 985 q 557 1001 545 985 q 578 1051 570 1017 l 680 1051 q 662 958 675 997 q 625 893 648 919 q 573 854 603 867 q 509 842 544 842 q 455 852 482 842 q 402 874 427 862 q 351 896 376 886 q 301 906 325 906 "},"˙":{"x_min":100,"x_max":325,"ha":424,"o":"m 100 954 q 108 1003 100 984 q 132 1034 117 1022 q 168 1051 148 1046 q 212 1056 189 1056 q 255 1051 235 1056 q 291 1034 276 1046 q 315 1003 306 1022 q 325 954 325 984 q 315 906 325 926 q 291 875 306 886 q 255 858 276 863 q 212 853 235 853 q 168 858 189 853 q 132 875 148 863 q 108 906 117 886 q 100 954 100 926 "},"ê":{"x_min":69,"x_max":741,"ha":807,"o":"m 414 625 q 322 586 358 625 q 279 465 285 548 l 546 465 q 537 529 545 499 q 512 579 529 558 q 471 613 496 601 q 414 625 447 625 m 441 -14 q 291 9 359 -14 q 173 81 222 33 q 96 202 123 129 q 69 373 69 275 q 94 548 69 473 q 164 672 119 622 q 272 747 209 722 q 413 773 336 773 q 549 750 489 773 q 653 683 610 727 q 718 574 695 639 q 741 427 741 510 l 741 327 l 275 327 q 289 248 277 283 q 325 189 302 213 q 380 152 348 165 q 454 139 412 139 q 520 143 489 139 q 580 154 551 146 q 638 172 609 161 q 697 198 667 184 l 697 39 q 642 15 669 25 q 584 -1 614 5 q 518 -10 553 -7 q 441 -14 483 -14 m 556 842 q 484 894 521 864 q 411 960 446 923 q 339 894 374 923 q 269 842 304 864 l 132 842 l 132 860 q 171 905 149 879 q 214 958 192 931 q 256 1013 236 986 q 292 1064 277 1040 l 533 1064 q 568 1013 548 1040 q 610 958 588 986 q 654 905 632 931 q 694 860 677 879 l 694 842 l 556 842 "},"″":{"x_min":90,"x_max":565.21875,"ha":656,"o":"m 279 992 l 251 634 l 117 634 l 90 992 l 279 992 m 565 992 l 537 634 l 403 634 l 376 992 l 565 992 "},"„":{"x_min":43,"x_max":628,"ha":720,"o":"m 312 145 q 289 67 302 108 q 259 -15 275 26 q 226 -99 243 -57 q 192 -179 209 -141 l 43 -179 q 63 -92 53 -137 q 82 -3 73 -48 q 98 82 91 40 q 111 161 106 125 l 301 161 l 312 145 m 628 145 q 605 67 618 108 q 575 -15 591 26 q 542 -99 559 -57 q 508 -179 525 -141 l 359 -179 q 379 -92 369 -137 q 398 -3 389 -48 q 414 82 407 40 q 427 161 422 125 l 617 161 l 628 145 "},"ч":{"x_min":83,"x_max":760,"ha":869,"o":"m 289 758 l 289 471 q 311 400 289 422 q 369 379 333 379 q 464 392 419 379 q 553 428 508 406 l 553 758 l 760 758 l 760 0 l 553 0 l 553 298 q 505 274 530 286 q 451 252 479 261 q 390 237 422 243 q 321 232 358 232 q 222 247 266 232 q 147 293 178 262 q 99 369 116 323 q 83 476 83 415 l 83 758 l 289 758 "},"δ":{"x_min":69,"x_max":762,"ha":832,"o":"m 314 622 q 261 666 287 642 q 217 719 236 691 q 186 782 197 748 q 175 854 175 815 q 195 943 175 904 q 253 1009 216 982 q 344 1049 291 1035 q 462 1063 397 1063 q 544 1057 506 1063 q 618 1042 583 1052 q 686 1019 652 1033 q 754 987 719 1005 l 679 841 q 568 891 621 872 q 461 909 515 909 q 418 904 435 909 q 390 889 401 898 q 374 867 379 879 q 369 841 369 855 q 380 805 369 823 q 412 769 390 788 q 466 730 434 750 q 541 686 498 709 q 708 538 655 622 q 762 346 762 455 q 737 185 762 253 q 666 73 712 117 q 556 7 620 28 q 412 -14 491 -14 q 274 6 337 -14 q 166 67 212 27 q 94 164 120 106 q 69 296 69 222 q 87 422 69 368 q 139 515 106 476 q 217 580 172 554 q 314 622 262 606 m 550 333 q 541 399 550 369 q 517 454 533 429 q 480 500 502 479 q 432 537 459 520 q 381 512 408 529 q 332 468 354 496 q 295 400 309 440 q 280 305 280 360 q 289 244 280 272 q 315 195 298 216 q 356 163 332 175 q 412 152 381 152 q 514 198 478 152 q 550 333 550 244 "},"Â":{"x_min":-0.25,"x_max":903.25,"ha":903,"o":"m 690 0 l 623 238 l 280 238 l 212 0 l 0 0 l 322 996 l 579 996 l 903 0 l 690 0 m 574 413 l 510 629 q 498 669 506 642 q 480 731 489 697 q 463 798 471 764 q 451 856 455 832 q 444 821 449 841 q 434 778 440 800 q 422 732 428 755 q 411 688 416 709 q 401 652 405 668 q 394 629 396 637 l 331 413 l 574 413 m 596 1071 q 524 1123 561 1093 q 451 1189 486 1152 q 379 1123 414 1152 q 309 1071 344 1093 l 172 1071 l 172 1089 q 211 1134 189 1108 q 254 1187 232 1160 q 296 1242 276 1215 q 332 1293 317 1269 l 573 1293 q 608 1242 588 1269 q 650 1187 628 1215 q 694 1134 672 1160 q 734 1089 717 1108 l 734 1071 l 596 1071 "},"Į":{"x_min":44.28125,"x_max":495.96875,"ha":541,"o":"m 495 0 l 44 0 l 44 119 l 165 174 l 165 817 l 44 872 l 44 992 l 495 992 l 495 872 l 375 817 l 375 174 l 495 119 l 495 0 m 272 -154 q 287 -196 272 -182 q 326 -209 302 -209 q 369 -205 347 -209 q 404 -197 390 -201 l 404 -318 q 357 -329 382 -324 q 298 -334 332 -334 q 227 -322 259 -334 q 174 -290 196 -310 q 140 -241 152 -269 q 129 -177 129 -212 q 138 -124 129 -148 q 164 -78 147 -99 q 203 -38 181 -57 q 251 0 225 -19 l 372 0 q 298 -81 325 -44 q 272 -154 272 -118 "},"ω":{"x_min":81,"x_max":1091,"ha":1171,"o":"m 798 -14 q 722 -3 755 -14 q 663 25 689 6 q 620 72 638 45 q 589 133 602 100 l 582 133 q 551 72 570 100 q 508 25 533 45 q 450 -3 483 6 q 374 -14 416 -14 q 245 14 300 -14 q 154 92 190 42 q 99 213 117 143 q 81 367 81 283 q 85 472 81 423 q 99 568 90 521 q 124 662 109 615 q 158 758 138 708 l 360 758 q 296 573 316 666 q 275 378 275 480 q 282 286 275 327 q 303 215 289 244 q 340 168 317 185 q 393 152 362 152 q 439 163 421 152 q 468 195 458 174 q 484 248 479 217 q 489 319 489 279 l 489 517 l 683 517 l 683 319 q 688 248 683 279 q 703 195 692 217 q 733 163 714 174 q 779 152 751 152 q 832 168 810 152 q 868 214 854 185 q 889 285 883 244 q 896 375 896 326 q 876 572 896 477 q 811 758 855 666 l 1012 758 q 1047 662 1032 708 q 1072 568 1062 615 q 1086 472 1082 521 q 1091 367 1091 423 q 1072 213 1091 283 q 1017 92 1053 143 q 925 14 980 42 q 798 -14 870 -14 "},"Ţ":{"x_min":28,"x_max":735,"ha":762,"o":"m 487 0 l 277 0 l 277 817 l 28 817 l 28 992 l 735 992 l 735 817 l 487 817 l 487 0 m 250 -288 q 262 -242 256 -268 q 273 -188 268 -216 q 284 -134 279 -161 q 291 -85 289 -107 l 483 -85 l 483 -98 q 434 -198 462 -145 q 370 -307 406 -251 l 250 -307 l 250 -288 "},"´":{"x_min":225,"x_max":575,"ha":802,"o":"m 225 842 l 225 860 q 255 905 239 879 q 287 958 271 931 q 317 1013 303 986 q 343 1064 332 1040 l 575 1064 l 575 1049 q 553 1021 567 1037 q 520 985 539 1004 q 481 946 502 966 q 439 907 460 926 q 397 871 417 888 q 362 842 378 854 l 225 842 "},"Ĉ":{"x_min":81,"x_max":836.296875,"ha":885,"o":"m 546 831 q 439 807 485 831 q 361 740 392 784 q 313 633 329 696 q 297 492 297 571 q 311 351 297 413 q 356 247 326 289 q 433 183 386 205 q 546 160 481 160 q 667 174 606 160 q 799 213 727 188 l 799 36 q 734 13 766 23 q 669 -1 702 4 q 601 -10 636 -7 q 526 -14 566 -14 q 327 22 411 -14 q 188 125 243 59 q 107 285 133 192 q 81 494 81 379 q 111 700 81 606 q 201 862 142 794 q 346 968 260 930 q 546 1006 433 1006 q 694 987 620 1006 q 836 936 768 968 l 768 765 q 656 811 712 791 q 546 831 600 831 m 666 1071 q 594 1123 631 1093 q 521 1189 556 1152 q 449 1123 484 1152 q 379 1071 414 1093 l 242 1071 l 242 1089 q 281 1134 259 1108 q 324 1187 302 1160 q 366 1242 346 1215 q 402 1293 387 1269 l 643 1293 q 678 1242 658 1269 q 720 1187 698 1215 q 764 1134 742 1160 q 804 1089 787 1108 l 804 1071 l 666 1071 "},"И":{"x_min":125,"x_max":963,"ha":1088,"o":"m 125 992 l 312 992 l 312 522 q 311 484 312 505 q 310 440 311 463 q 309 395 310 417 q 307 350 308 372 q 302 248 304 300 l 306 248 l 712 992 l 963 992 l 963 0 l 775 0 l 775 466 q 777 554 775 505 q 781 646 779 602 q 788 750 784 698 l 782 750 l 375 0 l 125 0 l 125 992 "},"Љ":{"x_min":11,"x_max":1270,"ha":1332,"o":"m 837 613 l 910 613 q 1070 590 1003 613 q 1182 527 1138 568 q 1248 432 1227 487 q 1270 310 1270 376 q 1247 179 1270 237 q 1179 81 1225 121 q 1061 21 1132 42 q 892 0 990 0 l 627 0 l 627 817 l 471 817 q 453 677 463 753 q 433 525 444 601 q 412 380 423 449 q 390 258 401 310 q 355 142 376 193 q 303 56 335 91 q 226 3 272 21 q 115 -14 179 -14 q 59 -10 85 -14 q 11 1 33 -6 l 11 174 q 46 164 28 168 q 85 160 64 160 q 120 170 105 160 q 147 203 135 179 q 170 264 159 226 q 191 361 180 303 q 207 457 197 395 q 230 603 218 520 q 257 785 243 686 q 284 992 271 884 l 837 992 l 837 613 m 837 174 l 894 174 q 963 182 932 174 q 1015 205 993 189 q 1048 247 1036 221 q 1059 310 1059 273 q 1047 374 1059 349 q 1011 413 1034 399 q 954 432 988 427 q 880 438 921 438 l 837 438 l 837 174 "},"р":{"x_min":109,"x_max":775,"ha":844,"o":"m 507 -14 q 440 -5 470 -14 q 388 15 411 2 q 347 45 365 28 q 315 81 330 62 l 305 81 q 310 37 307 57 q 314 0 312 19 q 315 -27 315 -17 l 315 -334 l 109 -334 l 109 758 l 277 758 l 306 659 l 315 659 q 348 703 330 682 q 390 739 366 723 q 445 763 414 754 q 512 773 475 773 q 619 747 571 773 q 702 673 668 722 q 756 550 737 623 q 775 380 775 476 q 755 209 775 283 q 700 86 735 136 q 615 11 664 36 q 507 -14 566 -14 m 443 606 q 384 594 408 606 q 345 556 360 581 q 323 492 330 531 q 315 403 317 454 l 315 380 q 322 282 315 325 q 343 211 328 239 q 383 167 358 182 q 444 152 407 152 q 534 211 505 152 q 563 382 563 269 q 534 550 563 494 q 443 606 505 606 "},"Ω":{"x_min":37,"x_max":999,"ha":1031,"o":"m 518 832 q 344 759 399 832 q 290 547 290 686 q 299 434 290 487 q 329 336 308 381 q 384 253 350 290 q 470 189 419 217 l 470 0 l 37 0 l 37 176 l 289 176 q 200 248 240 206 q 132 343 160 290 q 89 459 104 396 q 74 591 74 521 q 102 762 74 685 q 187 893 130 838 q 326 977 243 948 q 518 1007 409 1007 q 709 977 627 1007 q 848 893 792 948 q 933 761 905 838 q 962 589 962 684 q 946 458 962 520 q 902 343 931 396 q 834 248 874 290 q 744 176 794 206 l 999 176 l 999 0 l 561 0 l 561 189 q 649 253 614 216 q 705 336 684 290 q 736 435 727 382 q 745 548 745 488 q 691 759 745 686 q 518 832 636 832 "},"т":{"x_min":32,"x_max":694,"ha":726,"o":"m 694 758 l 694 604 l 466 604 l 466 0 l 260 0 l 260 604 l 32 604 l 32 758 l 694 758 "},"П":{"x_min":125,"x_max":854,"ha":979,"o":"m 854 0 l 643 0 l 643 817 l 335 817 l 335 0 l 125 0 l 125 992 l 854 992 l 854 0 "},"Ö":{"x_min":81,"x_max":970,"ha":1050,"o":"m 970 496 q 943 287 970 382 q 861 126 916 193 q 722 22 806 59 q 525 -14 639 -14 q 327 22 411 -14 q 189 126 243 59 q 107 288 134 193 q 81 498 81 382 q 107 707 81 613 q 189 867 134 801 q 328 970 244 934 q 526 1007 411 1007 q 723 970 640 1007 q 861 867 807 934 q 943 706 916 800 q 970 496 970 612 m 297 496 q 310 355 297 417 q 352 250 324 293 q 423 184 380 207 q 525 160 466 160 q 629 184 585 160 q 699 250 672 207 q 740 355 727 293 q 753 496 753 417 q 740 636 753 574 q 699 742 727 698 q 629 808 672 785 q 526 832 586 832 q 424 808 467 832 q 352 742 380 785 q 310 636 324 698 q 297 496 297 574 m 291 1182 q 298 1223 291 1206 q 318 1251 305 1240 q 348 1268 331 1263 q 385 1274 365 1274 q 422 1268 405 1274 q 452 1251 439 1263 q 473 1223 465 1240 q 481 1182 481 1206 q 473 1142 481 1159 q 452 1114 465 1125 q 422 1097 439 1102 q 385 1092 405 1092 q 348 1097 365 1092 q 318 1114 331 1102 q 298 1142 305 1125 q 291 1182 291 1159 m 564 1182 q 571 1223 564 1206 q 591 1251 578 1240 q 622 1268 604 1263 q 660 1274 639 1274 q 696 1268 679 1274 q 727 1251 713 1263 q 748 1223 740 1240 q 756 1182 756 1206 q 748 1142 756 1159 q 727 1114 740 1125 q 696 1097 713 1102 q 660 1092 679 1092 q 591 1114 619 1092 q 564 1182 564 1136 "},"z":{"x_min":37,"x_max":595,"ha":635,"o":"m 595 0 l 37 0 l 37 117 l 347 604 l 58 604 l 58 758 l 582 758 l 582 628 l 281 153 l 595 153 l 595 0 "},"™":{"x_min":11,"x_max":978,"ha":1040,"o":"m 258 503 l 145 503 l 145 895 l 11 895 l 11 992 l 393 992 l 393 895 l 258 895 l 258 503 m 648 503 l 536 861 l 531 861 q 532 839 532 850 q 533 817 533 827 q 534 799 533 807 q 534 786 534 790 l 534 503 l 424 503 l 424 992 l 591 992 l 699 646 l 815 992 l 978 992 l 978 503 l 864 503 l 864 779 q 864 795 864 785 q 865 818 864 806 q 865 841 865 829 q 866 861 866 853 l 862 861 l 744 503 l 648 503 "},"Θ":{"x_min":81,"x_max":970,"ha":1050,"o":"m 674 589 l 674 414 l 377 414 l 377 589 l 674 589 m 970 496 q 943 287 970 382 q 861 126 916 193 q 722 22 806 59 q 525 -14 639 -14 q 327 22 411 -14 q 189 126 243 59 q 107 288 134 193 q 81 498 81 382 q 107 707 81 613 q 189 867 134 801 q 328 970 244 934 q 526 1007 411 1007 q 723 970 640 1007 q 861 867 807 934 q 943 706 916 800 q 970 496 970 612 m 297 496 q 310 355 297 417 q 352 250 324 293 q 423 184 380 207 q 525 160 466 160 q 629 184 585 160 q 699 250 672 207 q 740 355 727 293 q 753 496 753 417 q 740 636 753 574 q 699 742 727 698 q 629 808 672 785 q 526 832 586 832 q 424 808 467 832 q 352 742 380 785 q 310 636 324 698 q 297 496 297 574 "},"Ř":{"x_min":125,"x_max":875.25,"ha":875,"o":"m 335 545 l 393 545 q 520 581 481 545 q 558 685 558 616 q 517 786 558 756 q 389 817 476 817 l 335 817 l 335 545 m 335 379 l 335 0 l 125 0 l 125 992 l 396 992 q 678 918 587 992 q 769 694 769 844 q 755 601 769 642 q 719 527 741 559 q 666 471 696 495 q 604 430 637 447 q 739 215 679 310 q 789 136 765 175 q 832 67 813 98 q 863 18 851 37 l 875 0 l 641 0 l 427 379 l 335 379 m 704 1274 q 664 1229 687 1255 q 620 1176 642 1203 q 578 1121 598 1148 q 543 1071 558 1094 l 302 1071 q 266 1121 287 1094 q 224 1176 246 1148 q 181 1229 202 1203 q 142 1274 159 1255 l 142 1293 l 279 1293 q 349 1240 314 1270 q 421 1174 384 1211 q 494 1240 456 1211 q 566 1293 531 1270 l 704 1293 l 704 1274 "},"Ň":{"x_min":125,"x_max":963,"ha":1088,"o":"m 963 0 l 697 0 l 305 750 l 299 750 q 306 646 303 698 q 310 554 308 602 q 312 466 312 505 l 312 0 l 125 0 l 125 992 l 389 992 l 781 248 l 785 248 q 780 350 783 300 q 778 395 779 372 q 777 440 777 417 q 776 484 776 463 q 775 522 775 505 l 775 992 l 963 992 l 963 0 m 816 1274 q 776 1229 799 1255 q 732 1176 754 1203 q 690 1121 710 1148 q 655 1071 670 1094 l 414 1071 q 378 1121 399 1094 q 336 1176 358 1148 q 293 1229 314 1203 q 254 1274 271 1255 l 254 1293 l 391 1293 q 461 1240 426 1270 q 533 1174 496 1211 q 606 1240 568 1211 q 678 1293 643 1270 l 816 1293 l 816 1274 "},"É":{"x_min":125,"x_max":696,"ha":778,"o":"m 696 0 l 125 0 l 125 992 l 696 992 l 696 817 l 335 817 l 335 602 l 670 602 l 670 427 l 335 427 l 335 174 l 696 174 l 696 0 m 288 1071 l 288 1089 q 318 1134 302 1108 q 350 1187 334 1160 q 380 1242 366 1215 q 406 1293 395 1269 l 638 1293 l 638 1278 q 616 1250 630 1266 q 583 1214 602 1233 q 544 1175 565 1195 q 502 1136 523 1155 q 460 1100 480 1117 q 425 1071 441 1083 l 288 1071 "},"и":{"x_min":109,"x_max":849,"ha":958,"o":"m 303 758 l 303 463 q 301 401 303 440 q 296 324 299 362 q 288 231 292 280 l 606 758 l 849 758 l 849 0 l 654 0 l 654 296 q 656 364 654 325 q 661 438 659 402 q 668 524 664 480 l 351 0 l 109 0 l 109 758 l 303 758 "},"³":{"x_min":40,"x_max":470,"ha":526,"o":"m 451 846 q 423 766 451 800 q 335 712 396 732 l 335 703 q 395 682 370 697 q 437 649 420 668 q 461 608 453 631 q 470 562 470 586 q 410 433 470 480 q 224 386 350 386 q 128 397 173 386 q 40 433 84 409 l 40 562 q 129 518 84 535 q 224 501 174 501 q 298 519 275 501 q 322 573 322 537 q 316 600 322 587 q 298 623 311 613 q 263 639 285 633 q 208 645 241 645 l 132 645 l 132 754 l 193 754 q 249 760 228 754 q 283 776 271 766 q 299 800 295 787 q 303 828 303 814 q 286 871 303 854 q 235 888 269 888 q 175 875 203 888 q 109 834 147 862 l 41 930 q 134 982 83 961 q 255 1004 185 1004 q 333 992 297 1004 q 395 961 369 981 q 436 911 421 940 q 451 846 451 882 "},"[":{"x_min":97,"x_max":425,"ha":460,"o":"m 425 -220 l 97 -220 l 97 992 l 425 992 l 425 848 l 276 848 l 276 -76 l 425 -76 l 425 -220 "},"ζ":{"x_min":69,"x_max":650,"ha":657,"o":"m 650 -25 q 642 -86 650 -55 q 622 -147 634 -117 q 595 -205 610 -177 q 563 -257 579 -233 l 355 -257 q 392 -202 374 -230 q 425 -147 411 -174 q 447 -98 439 -121 q 455 -56 455 -74 q 451 -40 455 -48 q 435 -24 447 -31 q 401 -9 423 -16 q 343 5 379 -2 q 228 41 279 17 q 142 104 177 66 q 87 195 106 142 q 69 315 69 247 q 96 484 69 404 q 172 639 124 565 q 282 781 219 713 q 413 913 344 849 q 385 907 402 909 q 348 904 367 905 q 311 902 329 903 q 282 901 293 901 l 108 901 l 108 1055 l 646 1055 l 646 929 q 504 788 563 853 q 404 665 444 722 q 339 559 363 608 q 301 468 314 510 q 284 391 288 426 q 280 326 280 355 q 292 245 280 275 q 326 196 304 214 q 381 169 349 178 q 452 151 412 159 q 546 121 508 138 q 607 81 583 103 q 640 32 630 59 q 650 -25 650 6 "},"∏":{"x_min":113,"x_max":917,"ha":1030,"o":"m 700 -310 l 700 817 l 329 817 l 329 -310 l 113 -310 l 113 992 l 917 992 l 917 -310 l 700 -310 "},"Έ":{"x_min":-39,"x_max":793,"ha":875,"o":"m 793 0 l 222 0 l 222 992 l 793 992 l 793 817 l 432 817 l 432 602 l 767 602 l 767 427 l 432 427 l 432 174 l 793 174 l 793 0 m -39 789 q -26 835 -32 809 q -15 889 -20 861 q -5 943 -9 916 q 2 993 0 970 l 194 993 l 194 978 q 145 879 173 932 q 81 771 117 826 l -39 771 l -39 789 "},"Ρ":{"x_min":125,"x_max":769,"ha":831,"o":"m 335 526 l 377 526 q 513 561 467 526 q 558 674 558 596 q 517 782 558 747 q 389 817 476 817 l 335 817 l 335 526 m 769 682 q 749 557 769 616 q 684 451 729 497 q 565 379 639 406 q 383 352 492 352 l 335 352 l 335 0 l 125 0 l 125 992 l 400 992 q 565 970 496 992 q 680 909 635 949 q 747 812 725 869 q 769 682 769 754 "},"ğ":{"x_min":14,"x_max":735.140625,"ha":766,"o":"m 735 757 l 735 644 l 624 610 q 643 562 638 587 q 649 509 649 537 q 630 403 649 451 q 576 322 612 356 q 486 269 540 288 q 360 251 432 251 q 326 252 345 251 q 299 256 308 254 q 279 232 286 244 q 271 201 271 219 q 280 179 271 187 q 303 165 289 170 q 336 158 317 160 q 375 157 355 157 l 493 157 q 591 144 547 157 q 664 106 634 131 q 710 40 694 80 q 727 -54 727 0 q 701 -170 727 -118 q 624 -258 675 -222 q 497 -314 573 -295 q 322 -334 421 -334 q 187 -319 244 -334 q 91 -277 129 -304 q 33 -211 52 -249 q 14 -123 14 -172 q 28 -51 14 -81 q 66 0 42 -20 q 120 36 90 22 q 182 57 150 49 q 154 74 168 63 q 129 99 140 85 q 111 131 118 113 q 104 167 104 148 q 110 206 104 189 q 128 239 116 224 q 159 268 141 254 q 200 296 177 282 q 105 379 140 322 q 71 513 71 436 q 89 622 71 574 q 145 704 108 670 q 236 755 182 737 q 360 773 290 773 q 391 771 374 773 q 424 767 408 769 q 455 762 441 764 q 477 757 469 759 l 735 757 m 193 -107 q 200 -141 193 -125 q 224 -169 207 -157 q 266 -189 240 -181 q 331 -196 293 -196 q 490 -166 437 -196 q 543 -85 543 -135 q 510 -27 543 -42 q 408 -13 477 -13 l 312 -13 q 273 -17 294 -13 q 234 -33 252 -22 q 205 -62 217 -44 q 193 -107 193 -80 m 265 510 q 289 415 265 448 q 360 381 312 381 q 432 415 410 381 q 454 510 454 448 q 432 607 454 571 q 360 643 410 643 q 265 510 265 643 m 592 1071 q 570 978 588 1020 q 522 906 553 936 q 446 858 490 875 q 343 842 401 842 q 239 858 283 842 q 164 904 194 874 q 118 976 134 934 q 100 1071 102 1018 l 215 1071 q 227 1024 218 1041 q 253 998 237 1007 q 292 987 269 989 q 344 985 315 985 q 391 988 369 985 q 430 1000 413 991 q 459 1026 448 1009 q 473 1071 471 1043 l 592 1071 "},"ª":{"x_min":32,"x_max":444,"ha":504,"o":"m 351 518 l 330 592 q 264 531 303 553 q 181 510 226 510 q 120 519 147 510 q 73 546 92 528 q 42 594 53 565 q 32 661 32 622 q 46 730 32 701 q 88 776 60 758 q 155 803 115 794 q 246 815 195 812 l 307 818 q 287 876 307 859 q 230 894 267 894 q 170 883 203 894 q 102 855 137 872 l 58 947 q 150 986 100 969 q 262 1003 200 1003 q 342 989 308 1003 q 399 952 376 976 q 432 894 421 928 q 444 817 444 859 l 444 518 l 351 518 m 251 732 q 209 723 225 730 q 184 707 193 716 q 172 685 175 697 q 169 661 169 674 q 181 623 169 636 q 213 611 194 611 q 252 619 234 611 q 281 639 269 626 q 300 671 294 653 q 307 712 307 690 l 307 736 l 251 732 "},"ї":{"x_min":-21,"x_max":444,"ha":424,"o":"m 315 0 l 109 0 l 109 758 l 315 758 l 315 0 m -21 953 q -13 994 -21 977 q 6 1022 -6 1011 q 36 1039 19 1034 q 73 1045 53 1045 q 110 1039 93 1045 q 140 1022 127 1034 q 161 994 153 1011 q 169 953 169 977 q 161 913 169 930 q 140 885 153 896 q 110 868 127 873 q 73 863 93 863 q 36 868 53 863 q 6 885 19 873 q -13 913 -6 896 q -21 953 -21 930 m 252 953 q 259 994 252 977 q 279 1022 266 1011 q 310 1039 292 1034 q 348 1045 327 1045 q 384 1039 367 1045 q 415 1022 401 1034 q 436 994 428 1011 q 444 953 444 977 q 436 913 444 930 q 415 885 428 896 q 384 868 401 873 q 348 863 367 863 q 279 885 307 863 q 252 953 252 907 "},"T":{"x_min":28,"x_max":735,"ha":762,"o":"m 487 0 l 277 0 l 277 817 l 28 817 l 28 992 l 735 992 l 735 817 l 487 817 l 487 0 "},"š":{"x_min":63,"x_max":625,"ha":668,"o":"m 614 225 q 592 120 614 165 q 530 45 570 75 q 433 0 490 15 q 305 -14 376 -14 q 236 -11 268 -14 q 176 -3 204 -9 q 121 9 147 1 q 67 30 94 17 l 67 201 q 127 176 95 187 q 189 156 158 164 q 249 143 220 148 q 304 139 279 139 q 351 144 331 139 q 383 158 370 149 q 401 179 395 167 q 407 205 407 191 q 402 230 407 219 q 382 254 398 242 q 337 283 367 267 q 256 322 307 299 q 171 366 207 344 q 112 415 135 388 q 77 477 88 442 q 66 561 66 512 q 86 653 66 614 q 144 720 106 693 q 234 759 181 746 q 351 773 286 773 q 480 757 419 773 q 605 710 541 741 l 543 564 q 445 604 492 588 q 352 619 398 619 q 291 604 310 619 q 272 563 272 589 q 277 539 272 550 q 296 518 282 529 q 336 493 310 506 q 403 461 362 480 q 490 419 451 440 q 556 372 528 398 q 599 310 584 345 q 614 225 614 275 m 625 1045 q 585 1000 608 1026 q 541 947 563 974 q 499 892 519 919 q 464 842 479 865 l 223 842 q 187 892 208 865 q 145 947 167 919 q 102 1000 123 974 q 63 1045 80 1026 l 63 1064 l 200 1064 q 270 1011 235 1041 q 342 945 305 982 q 415 1011 377 982 q 487 1064 452 1041 l 625 1064 l 625 1045 "},"є":{"x_min":69,"x_max":648.703125,"ha":693,"o":"m 424 -14 q 277 8 342 -14 q 165 78 211 30 q 93 198 118 125 q 69 375 69 272 q 94 564 69 488 q 166 687 119 641 q 278 753 212 733 q 424 773 343 773 q 540 759 482 773 q 648 722 597 746 l 588 575 q 501 607 543 595 q 422 619 459 619 q 324 578 358 619 q 280 451 290 536 l 527 451 l 527 303 l 280 303 q 322 179 288 219 q 419 139 355 139 q 527 154 479 139 q 627 193 576 169 l 627 35 q 532 -1 580 10 q 424 -14 484 -14 "},"Þ":{"x_min":125,"x_max":769,"ha":831,"o":"m 769 522 q 751 400 769 458 q 694 297 734 342 q 590 225 654 252 q 429 199 525 199 l 335 199 l 335 0 l 125 0 l 125 992 l 335 992 l 335 837 l 444 837 q 589 814 528 837 q 690 751 650 792 q 749 652 730 710 q 769 522 769 594 m 335 365 l 393 365 q 517 402 476 365 q 558 523 558 438 q 522 634 558 598 q 406 670 485 670 l 335 670 l 335 365 "},"j":{"x_min":-56,"x_max":324.5,"ha":424,"o":"m 68 -334 q 1 -329 36 -334 q -56 -317 -32 -324 l -56 -154 q -16 -164 -34 -161 q 24 -167 1 -167 q 56 -162 41 -167 q 83 -144 72 -157 q 101 -109 94 -131 q 108 -52 108 -87 l 108 758 l 315 758 l 315 -82 q 301 -180 315 -134 q 259 -260 288 -226 q 182 -314 229 -294 q 68 -334 135 -334 m 99 953 q 108 1002 99 983 q 132 1033 116 1021 q 168 1050 147 1045 q 211 1055 188 1055 q 255 1050 234 1055 q 290 1033 275 1045 q 315 1002 306 1021 q 324 953 324 983 q 315 905 324 925 q 290 874 306 885 q 255 857 275 862 q 211 852 234 852 q 168 857 188 852 q 132 874 147 862 q 108 905 116 885 q 99 953 99 925 "},"Σ":{"x_min":53,"x_max":721,"ha":768,"o":"m 53 0 l 53 165 l 347 519 l 61 831 l 61 992 l 681 992 l 681 819 l 416 819 q 381 821 404 819 q 337 823 358 822 q 282 827 311 825 l 565 521 l 266 165 q 336 169 303 167 q 365 170 350 170 q 394 172 380 171 q 419 173 407 172 q 438 173 430 173 l 721 173 l 721 0 l 53 0 "},"1":{"x_min":63,"x_max":555.25,"ha":765,"o":"m 555 0 l 345 0 l 345 574 q 345 616 345 591 q 346 668 345 641 q 348 721 347 694 q 350 771 349 749 q 338 759 347 767 q 320 741 330 751 q 299 721 310 731 q 278 702 288 711 l 164 611 l 63 737 l 382 992 l 555 992 l 555 0 "},"ϒ":{"x_min":-0.25,"x_max":817,"ha":821,"o":"m 404 578 q 436 667 420 622 q 470 752 453 711 q 504 830 487 793 q 539 895 521 866 q 572 941 555 921 q 610 973 589 960 q 657 993 631 987 q 717 1000 683 1000 q 770 995 746 1000 q 817 981 793 991 l 817 825 q 797 830 809 827 q 770 833 784 833 q 750 830 760 833 q 731 820 741 827 q 712 801 722 813 q 689 771 701 789 q 653 707 675 749 q 606 612 631 666 q 556 498 581 559 q 512 376 531 437 l 512 0 l 302 0 l 302 379 l 0 992 l 227 992 l 404 578 "},"ℓ":{"x_min":27.5625,"x_max":645,"ha":695,"o":"m 420 125 q 478 159 456 125 q 504 265 501 194 l 645 265 q 628 147 642 199 q 585 60 614 96 q 512 6 557 25 q 400 -12 466 -12 q 297 5 343 -12 q 218 55 250 22 q 168 140 185 89 q 151 258 151 191 l 151 344 q 93 328 125 336 q 27 311 62 320 l 27 445 q 91 463 60 453 q 151 482 122 472 l 151 761 q 166 872 151 825 q 213 947 182 918 q 291 990 244 976 q 399 1004 338 1004 q 493 988 451 1004 q 564 944 535 973 q 609 875 593 916 q 625 783 625 834 q 606 664 625 715 q 553 570 588 612 q 465 493 517 528 q 345 425 413 459 l 345 251 q 349 200 345 223 q 362 160 354 177 q 385 134 371 144 q 420 125 400 125 m 446 779 q 435 849 446 824 q 397 874 423 874 q 356 848 367 874 q 345 779 345 822 l 345 572 q 422 653 399 600 q 446 779 446 705 "},"ĉ":{"x_min":69,"x_max":677,"ha":693,"o":"m 424 -14 q 277 8 342 -14 q 165 78 211 30 q 93 198 118 125 q 69 375 69 272 q 94 564 69 488 q 166 687 119 641 q 278 753 212 733 q 424 773 343 773 q 540 758 482 773 q 648 718 597 744 l 588 562 q 502 594 544 581 q 423 606 461 606 q 314 549 348 606 q 280 376 280 491 q 314 206 280 261 q 421 152 348 152 q 528 167 480 152 q 627 206 576 182 l 627 35 q 578 13 601 23 q 530 -1 554 4 q 480 -10 506 -7 q 424 -14 453 -14 m 539 842 q 467 894 504 864 q 394 960 429 923 q 322 894 357 923 q 252 842 287 864 l 115 842 l 115 860 q 154 905 132 879 q 197 958 175 931 q 239 1013 219 986 q 275 1064 260 1040 l 516 1064 q 551 1013 531 1040 q 593 958 571 986 q 637 905 615 931 q 677 860 660 879 l 677 842 l 539 842 "},"ī":{"x_min":4,"x_max":422,"ha":424,"o":"m 315 0 l 109 0 l 109 758 l 315 758 l 315 0 m 4 985 l 422 985 l 422 842 l 4 842 l 4 985 "},"О":{"x_min":81,"x_max":970,"ha":1050,"o":"m 970 496 q 943 287 970 382 q 861 126 916 193 q 722 22 806 59 q 525 -14 639 -14 q 327 22 411 -14 q 189 126 243 59 q 107 288 134 193 q 81 498 81 382 q 107 707 81 613 q 189 867 134 801 q 328 970 244 934 q 526 1007 411 1007 q 723 970 640 1007 q 861 867 807 934 q 943 706 916 800 q 970 496 970 612 m 297 496 q 310 355 297 417 q 352 250 324 293 q 423 184 380 207 q 525 160 466 160 q 629 184 585 160 q 699 250 672 207 q 740 355 727 293 q 753 496 753 417 q 740 636 753 574 q 699 742 727 698 q 629 808 672 785 q 526 832 586 832 q 424 808 467 832 q 352 742 380 785 q 310 636 324 698 q 297 496 297 574 "},"ξ":{"x_min":69,"x_max":650,"ha":657,"o":"m 69 297 q 82 382 69 344 q 122 453 96 421 q 182 509 147 484 q 260 550 218 533 l 260 557 q 150 616 189 573 q 112 727 112 658 q 123 792 112 764 q 158 843 135 821 q 220 882 182 865 q 308 910 257 898 q 227 906 265 908 q 196 904 212 905 q 166 903 180 903 q 140 902 151 902 q 123 901 129 901 l 108 901 l 108 1055 l 613 1055 l 613 910 l 568 910 q 474 899 519 910 q 394 867 428 888 q 339 814 359 846 q 318 739 318 782 q 326 688 318 710 q 352 650 333 665 q 402 627 371 635 q 480 620 433 620 l 577 620 l 577 482 l 475 482 q 326 439 372 482 q 280 310 280 396 q 292 239 280 266 q 326 195 304 212 q 381 169 349 178 q 452 151 412 159 q 546 121 508 138 q 607 81 583 103 q 640 32 630 59 q 650 -25 650 5 q 642 -86 650 -55 q 622 -147 634 -117 q 595 -205 610 -177 q 563 -257 579 -233 l 355 -257 q 392 -202 374 -230 q 425 -147 411 -174 q 447 -98 439 -121 q 455 -57 455 -74 q 451 -40 455 -48 q 435 -24 447 -31 q 401 -9 423 -16 q 343 5 379 -1 q 228 41 279 17 q 142 101 177 65 q 87 186 106 138 q 69 297 69 235 "},"Ď":{"x_min":125,"x_max":892,"ha":973,"o":"m 892 505 q 857 285 892 379 q 758 127 823 190 q 600 31 693 63 q 386 0 506 0 l 125 0 l 125 992 l 415 992 q 612 960 524 992 q 762 868 700 929 q 858 715 824 806 q 892 505 892 624 m 681 499 q 665 641 681 581 q 616 740 648 701 q 538 798 584 779 q 432 817 492 817 l 335 817 l 335 174 l 413 174 q 614 255 547 174 q 681 499 681 336 m 739 1274 q 699 1229 722 1255 q 655 1176 677 1203 q 613 1121 633 1148 q 578 1071 593 1094 l 337 1071 q 301 1121 322 1094 q 259 1176 281 1148 q 216 1229 237 1203 q 177 1274 194 1255 l 177 1293 l 314 1293 q 384 1240 349 1270 q 456 1174 419 1211 q 529 1240 491 1211 q 601 1293 566 1270 l 739 1293 l 739 1274 "},"&":{"x_min":56,"x_max":1000,"ha":1003,"o":"m 1000 0 l 744 0 l 678 67 q 559 8 624 30 q 415 -14 493 -14 q 267 6 333 -14 q 154 63 201 26 q 81 152 107 100 q 56 267 56 204 q 68 361 56 320 q 104 435 81 402 q 160 495 127 468 q 233 547 193 523 q 190 607 208 578 q 161 664 172 636 q 145 720 150 692 q 141 779 141 748 q 161 874 141 832 q 219 945 182 915 q 307 990 256 974 q 419 1006 358 1006 q 527 991 477 1006 q 611 950 576 977 q 667 882 647 922 q 688 790 688 841 q 672 704 688 743 q 632 632 657 665 q 572 571 607 598 q 498 519 538 543 l 673 337 q 716 432 697 382 q 747 532 734 481 l 959 532 q 935 450 948 493 q 903 364 921 407 q 861 278 885 321 q 809 197 838 236 l 1000 0 m 267 287 q 278 233 267 257 q 309 193 289 209 q 355 168 329 177 q 413 159 382 159 q 490 170 455 159 q 555 200 525 180 l 346 423 q 288 362 308 395 q 267 287 267 330 m 493 762 q 486 798 493 783 q 469 822 480 812 q 445 836 458 831 q 418 840 432 840 q 389 836 404 840 q 362 823 374 832 q 343 798 350 814 q 335 761 335 783 q 351 694 335 725 q 393 632 366 663 q 468 691 442 662 q 493 762 493 721 "},"G":{"x_min":81,"x_max":895,"ha":1006,"o":"m 502 557 l 895 557 l 895 42 q 815 18 855 29 q 732 1 775 8 q 642 -9 689 -5 q 542 -14 595 -14 q 345 18 431 -14 q 200 116 259 51 q 111 276 142 181 q 81 497 81 372 q 114 708 81 613 q 214 868 148 802 q 377 970 281 934 q 599 1006 474 1006 q 754 989 678 1006 q 893 944 830 972 l 823 776 q 719 815 777 799 q 597 831 661 831 q 473 806 528 831 q 378 738 418 782 q 318 632 339 694 q 297 492 297 569 q 311 358 297 419 q 357 253 326 298 q 438 185 388 209 q 555 160 487 160 q 631 165 600 160 q 689 174 662 169 l 689 382 l 502 382 l 502 557 "},"ΰ":{"x_min":97,"x_max":780,"ha":861,"o":"m 426 -12 q 266 15 330 -12 q 165 91 202 42 q 112 205 127 139 q 97 345 97 270 l 97 758 l 303 758 l 303 340 q 335 197 303 241 q 432 154 366 154 q 493 168 467 154 q 537 213 520 182 q 564 295 555 244 q 573 417 573 345 q 569 503 573 461 q 559 586 566 545 q 544 670 553 628 q 524 758 535 712 l 732 758 q 752 670 744 712 q 767 587 761 629 q 776 502 773 545 q 780 410 780 459 q 757 221 780 301 q 689 90 734 141 q 579 13 645 38 q 426 -12 513 -12 m 151 953 q 173 1023 151 1001 q 231 1044 195 1044 q 290 1023 267 1044 q 313 953 313 1001 q 290 885 313 907 q 231 863 267 863 q 173 885 195 863 q 151 953 151 907 m 537 953 q 559 1023 537 1001 q 618 1044 581 1044 q 677 1023 654 1044 q 700 953 700 1001 q 677 885 700 907 q 618 863 654 863 q 559 885 581 863 q 537 953 537 907 m 355 959 q 367 1006 361 980 q 379 1059 373 1032 q 389 1114 385 1087 q 397 1164 394 1141 l 575 1164 l 575 1150 q 520 1050 553 1104 q 448 942 487 996 l 355 942 l 355 959 "},"`":{"x_min":225,"x_max":575,"ha":802,"o":"m 437 842 q 382 889 414 860 q 318 946 349 917 q 261 1004 287 976 q 225 1049 235 1031 l 225 1064 l 456 1064 q 482 1013 467 1040 q 512 958 496 986 q 544 905 528 931 q 575 860 560 879 l 575 842 l 437 842 "},"ŏ":{"x_min":69,"x_max":762,"ha":832,"o":"m 280 380 q 312 209 280 267 q 415 152 344 152 q 518 210 486 152 q 550 380 550 267 q 518 550 550 494 q 414 606 486 606 q 312 550 343 606 q 280 380 280 494 m 762 380 q 737 212 762 285 q 668 88 713 138 q 558 12 623 38 q 413 -14 494 -14 q 275 12 338 -14 q 166 88 212 38 q 94 212 120 138 q 69 380 69 285 q 93 548 69 474 q 162 671 117 621 q 271 747 207 721 q 417 773 336 773 q 555 747 492 773 q 664 671 618 721 q 736 548 710 621 q 762 380 762 474 m 660 1071 q 638 978 656 1020 q 590 906 621 936 q 514 858 558 875 q 411 842 469 842 q 307 858 351 842 q 232 904 262 874 q 186 976 202 934 q 168 1071 170 1018 l 283 1071 q 295 1024 286 1041 q 321 998 305 1007 q 360 987 337 989 q 412 985 383 985 q 459 988 437 985 q 498 1000 481 991 q 527 1026 516 1009 q 541 1071 539 1043 l 660 1071 "},"ý":{"x_min":-0.25,"x_max":749.25,"ha":749,"o":"m 0 758 l 226 758 l 348 331 q 364 256 359 296 q 371 184 369 216 l 375 184 q 378 219 376 200 q 384 257 381 238 q 392 296 388 277 q 401 331 396 316 l 521 758 l 749 758 l 449 -96 q 334 -275 407 -217 q 152 -334 261 -334 q 91 -330 116 -334 q 47 -322 65 -326 l 47 -158 q 83 -164 61 -161 q 128 -167 104 -167 q 184 -158 161 -167 q 224 -133 207 -149 q 252 -95 240 -117 q 273 -44 264 -72 l 286 -6 l 0 758 m 267 842 l 267 860 q 297 905 281 879 q 329 958 313 931 q 359 1013 345 986 q 385 1064 374 1040 l 617 1064 l 617 1049 q 595 1021 609 1037 q 562 985 581 1004 q 523 946 544 966 q 481 907 502 926 q 439 871 459 888 q 404 842 420 854 l 267 842 "},"º":{"x_min":39,"x_max":472,"ha":511,"o":"m 472 756 q 456 652 472 697 q 413 574 441 606 q 344 526 384 543 q 254 510 304 510 q 168 526 207 510 q 99 574 128 543 q 54 652 70 606 q 39 756 39 697 q 54 861 39 815 q 97 938 69 907 q 166 986 125 970 q 257 1003 206 1003 q 342 986 303 1003 q 410 938 381 970 q 455 861 439 907 q 472 756 472 815 m 176 757 q 194 653 176 688 q 256 618 213 618 q 316 653 297 618 q 335 757 335 688 q 316 860 335 826 q 256 894 297 894 q 194 860 213 894 q 176 757 176 826 "},"∞":{"x_min":77,"x_max":905,"ha":982,"o":"m 905 486 q 889 398 905 440 q 845 325 873 357 q 777 275 816 294 q 690 256 738 256 q 580 286 630 256 q 487 376 530 315 q 397 292 447 324 q 294 261 348 261 q 207 277 247 261 q 137 323 167 293 q 92 395 108 353 q 77 490 77 437 q 92 579 77 537 q 136 651 108 620 q 205 700 165 682 q 294 718 245 718 q 399 690 350 718 q 491 600 449 663 q 580 684 531 654 q 690 715 628 715 q 777 698 738 715 q 845 652 816 682 q 889 580 873 622 q 905 486 905 537 m 307 400 q 362 422 336 400 q 413 490 388 444 q 363 556 389 534 q 305 578 337 578 q 272 571 287 578 q 247 551 257 564 q 230 523 236 539 q 225 488 225 507 q 230 455 225 471 q 245 427 235 439 q 271 407 255 415 q 307 400 286 400 m 675 574 q 566 487 619 574 q 618 420 591 444 q 676 396 646 396 q 709 403 694 396 q 734 422 724 410 q 750 451 744 435 q 756 486 756 468 q 750 521 756 505 q 734 549 744 537 q 708 567 723 561 q 675 574 693 574 "},"ź":{"x_min":37,"x_max":595,"ha":635,"o":"m 595 0 l 37 0 l 37 117 l 347 604 l 58 604 l 58 758 l 582 758 l 582 628 l 281 153 l 595 153 l 595 0 m 212 842 l 212 860 q 242 905 226 879 q 274 958 258 931 q 304 1013 290 986 q 330 1064 319 1040 l 562 1064 l 562 1049 q 540 1021 554 1037 q 507 985 526 1004 q 468 946 489 966 q 426 907 447 926 q 384 871 404 888 q 349 842 365 854 l 212 842 "},"я":{"x_min":-0.25,"x_max":673,"ha":782,"o":"m 223 0 l 0 0 l 196 305 q 141 337 166 317 q 96 384 115 357 q 66 446 77 411 q 56 524 56 481 q 76 624 56 580 q 135 697 97 668 q 226 742 173 727 q 343 758 279 758 l 673 758 l 673 0 l 466 0 l 466 283 l 385 283 l 223 0 m 262 521 q 293 447 262 473 q 372 421 323 421 l 466 421 l 466 610 l 350 610 q 311 603 328 610 q 284 584 295 596 q 268 555 273 571 q 262 521 262 539 "},"Ё":{"x_min":125,"x_max":696,"ha":778,"o":"m 696 0 l 125 0 l 125 992 l 696 992 l 696 817 l 335 817 l 335 602 l 670 602 l 670 427 l 335 427 l 335 174 l 696 174 l 696 0 m 186 1182 q 193 1223 186 1206 q 213 1251 200 1240 q 243 1268 226 1263 q 280 1274 260 1274 q 317 1268 300 1274 q 347 1251 334 1263 q 368 1223 360 1240 q 376 1182 376 1206 q 368 1142 376 1159 q 347 1114 360 1125 q 317 1097 334 1102 q 280 1092 300 1092 q 243 1097 260 1092 q 213 1114 226 1102 q 193 1142 200 1125 q 186 1182 186 1159 m 459 1182 q 466 1223 459 1206 q 486 1251 473 1240 q 517 1268 499 1263 q 555 1274 534 1274 q 591 1268 574 1274 q 622 1251 608 1263 q 643 1223 635 1240 q 651 1182 651 1206 q 643 1142 651 1159 q 622 1114 635 1125 q 591 1097 608 1102 q 555 1092 574 1092 q 486 1114 514 1092 q 459 1182 459 1136 "},"ń":{"x_min":109,"x_max":767,"ha":871,"o":"m 767 0 l 560 0 l 560 442 q 535 565 560 524 q 456 606 510 606 q 388 590 415 606 q 345 542 361 574 q 322 463 329 510 q 315 356 315 416 l 315 0 l 109 0 l 109 758 l 267 758 l 294 661 l 306 661 q 346 711 322 690 q 397 746 369 732 q 456 766 425 760 q 520 773 487 773 q 621 757 575 773 q 699 707 666 741 q 749 620 731 673 q 767 494 767 568 l 767 0 m 320 842 l 320 860 q 350 905 334 879 q 382 958 366 931 q 412 1013 398 986 q 438 1064 427 1040 l 670 1064 l 670 1049 q 648 1021 662 1037 q 615 985 634 1004 q 576 946 597 966 q 534 907 555 926 q 492 871 512 888 q 457 842 473 854 l 320 842 "}," ":{"x_min":0,"x_max":0,"ha":347},"Г":{"x_min":125,"x_max":696,"ha":724,"o":"m 696 992 l 696 817 l 335 817 l 335 0 l 125 0 l 125 992 l 696 992 "},"Ь":{"x_min":125,"x_max":769,"ha":831,"o":"m 769 310 q 746 179 769 237 q 678 81 724 121 q 560 21 631 42 q 390 0 489 0 l 125 0 l 125 992 l 335 992 l 335 613 l 408 613 q 569 590 501 613 q 681 527 637 568 q 747 432 726 487 q 769 310 769 376 m 335 174 l 393 174 q 462 182 431 174 q 514 205 492 189 q 547 247 536 221 q 558 310 558 273 q 546 374 558 349 q 510 413 534 399 q 453 432 487 427 q 378 438 420 438 l 335 438 l 335 174 "},"¤":{"x_min":62,"x_max":703,"ha":765,"o":"m 114 490 q 123 561 114 527 q 149 624 133 594 l 62 710 l 162 810 l 249 724 q 312 750 278 741 q 381 760 347 760 q 451 750 418 760 q 515 722 483 741 l 601 810 l 703 713 l 615 625 q 642 562 632 597 q 652 490 652 527 q 642 419 652 452 q 615 355 633 386 l 700 271 l 601 173 l 515 257 q 452 232 485 241 q 381 223 418 223 q 310 231 344 223 q 247 257 276 239 l 162 174 l 63 272 l 149 357 q 114 490 114 418 m 262 490 q 272 440 262 464 q 297 399 281 417 q 335 372 313 382 q 381 362 356 362 q 428 372 406 362 q 467 399 450 382 q 493 440 484 417 q 503 490 503 464 q 493 541 503 518 q 467 582 484 565 q 428 610 450 599 q 381 620 406 620 q 335 610 356 620 q 297 582 313 599 q 272 541 281 565 q 262 490 262 518 "},"Ĝ":{"x_min":81,"x_max":895,"ha":1006,"o":"m 502 557 l 895 557 l 895 42 q 815 18 855 29 q 732 1 775 8 q 642 -9 689 -5 q 542 -14 595 -14 q 345 18 431 -14 q 200 116 259 51 q 111 276 142 181 q 81 497 81 372 q 114 708 81 613 q 214 868 148 802 q 377 970 281 934 q 599 1006 474 1006 q 754 989 678 1006 q 893 944 830 972 l 823 776 q 719 815 777 799 q 597 831 661 831 q 473 806 528 831 q 378 738 418 782 q 318 632 339 694 q 297 492 297 569 q 311 358 297 419 q 357 253 326 298 q 438 185 388 209 q 555 160 487 160 q 631 165 600 160 q 689 174 662 169 l 689 382 l 502 382 l 502 557 m 690 1071 q 618 1123 655 1093 q 545 1189 580 1152 q 473 1123 508 1152 q 403 1071 438 1093 l 266 1071 l 266 1089 q 305 1134 283 1108 q 348 1187 326 1160 q 390 1242 370 1215 q 426 1293 411 1269 l 667 1293 q 702 1242 682 1269 q 744 1187 722 1215 q 788 1134 766 1160 q 828 1089 811 1108 l 828 1071 l 690 1071 "},"p":{"x_min":109,"x_max":775,"ha":844,"o":"m 507 -14 q 440 -5 470 -14 q 388 15 411 2 q 347 45 365 28 q 315 81 330 62 l 305 81 q 310 37 307 57 q 314 0 312 19 q 315 -27 315 -17 l 315 -334 l 109 -334 l 109 758 l 277 758 l 306 659 l 315 659 q 348 703 330 682 q 390 739 366 723 q 445 763 414 754 q 512 773 475 773 q 619 747 571 773 q 702 673 668 722 q 756 550 737 623 q 775 380 775 476 q 755 209 775 283 q 700 86 735 136 q 615 11 664 36 q 507 -14 566 -14 m 443 606 q 384 594 408 606 q 345 556 360 581 q 323 492 330 531 q 315 403 317 454 l 315 380 q 322 282 315 325 q 343 211 328 239 q 383 167 358 182 q 444 152 407 152 q 534 211 505 152 q 563 382 563 269 q 534 550 563 494 q 443 606 505 606 "},"Ю":{"x_min":125,"x_max":1350,"ha":1430,"o":"m 1350 496 q 1324 287 1350 382 q 1248 126 1299 193 q 1118 22 1196 59 q 932 -14 1040 -14 q 760 17 834 -14 q 634 105 686 48 q 554 245 583 163 q 518 427 525 326 l 335 427 l 335 0 l 125 0 l 125 992 l 335 992 l 335 602 l 522 602 q 562 769 532 695 q 644 897 593 844 q 767 978 694 949 q 934 1007 840 1007 q 1119 970 1040 1007 q 1248 867 1197 934 q 1324 706 1299 800 q 1350 496 1350 612 m 734 496 q 746 355 734 417 q 782 250 758 293 q 845 184 807 207 q 934 160 882 160 q 1024 184 986 160 q 1086 250 1061 207 q 1122 355 1110 293 q 1133 496 1133 417 q 1122 636 1133 574 q 1086 742 1110 698 q 1025 808 1062 785 q 935 832 987 832 q 846 808 883 832 q 783 742 808 785 q 746 636 758 698 q 734 496 734 574 "},"ο":{"x_min":69,"x_max":762,"ha":832,"o":"m 280 380 q 312 209 280 267 q 415 152 344 152 q 518 210 486 152 q 550 380 550 267 q 518 550 550 494 q 414 606 486 606 q 312 550 343 606 q 280 380 280 494 m 762 380 q 737 212 762 285 q 668 88 713 138 q 558 12 623 38 q 413 -14 494 -14 q 275 12 338 -14 q 166 88 212 38 q 94 212 120 138 q 69 380 69 285 q 93 548 69 474 q 162 671 117 621 q 271 747 207 721 q 417 773 336 773 q 555 747 492 773 q 664 671 618 721 q 736 548 710 621 q 762 380 762 474 "},"S":{"x_min":63.46875,"x_max":668,"ha":728,"o":"m 668 275 q 645 155 668 208 q 578 64 622 102 q 471 6 535 26 q 326 -14 408 -14 q 187 0 254 -14 q 63 45 120 15 l 63 241 q 129 211 96 225 q 196 185 162 197 q 265 167 231 174 q 333 160 299 160 q 392 168 368 160 q 432 190 417 176 q 455 223 448 203 q 462 264 462 242 q 450 314 462 292 q 417 354 438 335 q 365 390 396 372 q 298 427 335 408 q 228 467 267 444 q 155 524 189 490 q 98 607 121 558 q 75 723 75 655 q 97 842 75 790 q 159 931 119 895 q 258 987 200 968 q 388 1006 316 1006 q 458 1001 424 1006 q 526 987 492 996 q 594 965 560 978 q 663 936 627 953 l 596 772 q 539 797 565 786 q 487 816 512 808 q 438 827 462 823 q 389 831 414 831 q 308 802 336 831 q 280 727 280 774 q 288 683 280 702 q 316 646 297 663 q 364 612 334 630 q 435 572 393 594 q 529 517 486 545 q 603 454 572 488 q 651 376 634 420 q 668 275 668 333 "},"/":{"x_min":9.75,"x_max":567.25,"ha":574,"o":"m 567 992 l 197 0 l 9 0 l 379 992 l 567 992 "},"Ŧ":{"x_min":28,"x_max":735,"ha":762,"o":"m 487 0 l 277 0 l 277 404 l 116 404 l 116 576 l 277 576 l 277 817 l 28 817 l 28 992 l 735 992 l 735 817 l 487 817 l 487 576 l 648 576 l 648 404 l 487 404 l 487 0 "},"ђ":{"x_min":3,"x_max":767,"ha":871,"o":"m 521 -334 q 454 -329 488 -334 q 396 -317 419 -324 l 396 -154 q 435 -164 417 -161 q 476 -167 453 -167 q 509 -162 494 -167 q 535 -144 524 -157 q 553 -109 547 -131 q 560 -52 560 -87 l 560 414 q 533 526 560 489 q 456 563 506 563 q 389 547 416 563 q 345 498 362 530 q 322 420 329 467 q 315 314 315 374 l 315 0 l 109 0 l 109 808 l 3 808 l 3 946 l 109 946 l 109 1055 l 315 1055 l 315 946 l 529 946 l 529 808 l 315 808 l 315 796 q 314 736 315 768 q 311 679 313 705 l 306 618 l 317 618 q 402 703 350 677 q 518 730 453 730 q 620 714 575 730 q 699 664 666 698 q 749 577 731 630 q 767 452 767 525 l 767 -82 q 753 -180 767 -134 q 711 -260 740 -226 q 634 -314 681 -294 q 521 -334 587 -334 "},"y":{"x_min":-0.25,"x_max":749.25,"ha":749,"o":"m 0 758 l 226 758 l 348 331 q 364 256 359 296 q 371 184 369 216 l 375 184 q 378 219 376 200 q 384 257 381 238 q 392 296 388 277 q 401 331 396 316 l 521 758 l 749 758 l 449 -96 q 334 -275 407 -217 q 152 -334 261 -334 q 91 -330 116 -334 q 47 -322 65 -326 l 47 -158 q 83 -164 61 -161 q 128 -167 104 -167 q 184 -158 161 -167 q 224 -133 207 -149 q 252 -95 240 -117 q 273 -44 264 -72 l 286 -6 l 0 758 "},"Π":{"x_min":125,"x_max":854,"ha":979,"o":"m 854 0 l 643 0 l 643 817 l 335 817 l 335 0 l 125 0 l 125 992 l 854 992 l 854 0 "},"‗":{"x_min":-3,"x_max":574,"ha":571,"o":"m 574 -314 l -3 -314 l -3 -219 l 574 -219 l 574 -314 m 574 -125 l -3 -125 l -3 -31 l 574 -31 l 574 -125 "},"–":{"x_min":56,"x_max":639,"ha":695,"o":"m 56 296 l 56 452 l 639 452 l 639 296 l 56 296 "},"ë":{"x_min":69,"x_max":741,"ha":807,"o":"m 414 625 q 322 586 358 625 q 279 465 285 548 l 546 465 q 537 529 545 499 q 512 579 529 558 q 471 613 496 601 q 414 625 447 625 m 441 -14 q 291 9 359 -14 q 173 81 222 33 q 96 202 123 129 q 69 373 69 275 q 94 548 69 473 q 164 672 119 622 q 272 747 209 722 q 413 773 336 773 q 549 750 489 773 q 653 683 610 727 q 718 574 695 639 q 741 427 741 510 l 741 327 l 275 327 q 289 248 277 283 q 325 189 302 213 q 380 152 348 165 q 454 139 412 139 q 520 143 489 139 q 580 154 551 146 q 638 172 609 161 q 697 198 667 184 l 697 39 q 642 15 669 25 q 584 -1 614 5 q 518 -10 553 -7 q 441 -14 483 -14 m 181 953 q 188 994 181 977 q 208 1022 195 1011 q 238 1039 221 1034 q 275 1045 255 1045 q 312 1039 295 1045 q 342 1022 329 1034 q 363 994 355 1011 q 371 953 371 977 q 363 913 371 930 q 342 885 355 896 q 312 868 329 873 q 275 863 295 863 q 238 868 255 863 q 208 885 221 873 q 188 913 195 896 q 181 953 181 930 m 454 953 q 461 994 454 977 q 481 1022 468 1011 q 512 1039 494 1034 q 550 1045 529 1045 q 586 1039 569 1045 q 617 1022 603 1034 q 638 994 630 1011 q 646 953 646 977 q 638 913 646 930 q 617 885 630 896 q 586 868 603 873 q 550 863 569 863 q 481 885 509 863 q 454 953 454 907 "},"б":{"x_min":69,"x_max":766,"ha":851,"o":"m 69 454 q 90 677 69 579 q 158 844 111 774 q 278 959 205 915 q 455 1022 351 1003 q 595 1045 524 1035 q 742 1067 666 1056 l 766 886 q 694 876 732 882 q 617 865 656 871 q 542 853 578 859 q 477 843 507 847 q 394 821 429 835 q 334 779 358 807 q 296 706 309 752 q 280 590 284 661 l 288 590 q 318 630 300 610 q 362 667 336 651 q 421 695 388 684 q 494 706 454 706 q 607 684 556 706 q 692 622 657 663 q 747 519 728 581 q 766 374 766 457 q 740 204 766 277 q 669 83 715 131 q 558 10 622 34 q 416 -14 494 -14 q 272 16 336 -14 q 163 106 208 47 q 93 253 118 166 q 69 454 69 340 m 427 152 q 479 162 455 152 q 519 196 502 173 q 545 259 536 220 q 554 355 554 298 q 547 437 554 400 q 528 499 541 473 q 492 538 514 524 q 439 552 470 552 q 384 539 410 552 q 337 508 358 526 q 301 470 316 490 q 280 435 286 450 q 287 331 280 382 q 311 240 294 279 q 356 176 327 200 q 427 152 384 152 "},"ƒ":{"x_min":120,"x_max":714,"ha":765,"o":"m 491 -81 q 478 -180 491 -134 q 435 -260 465 -225 q 359 -314 406 -294 q 245 -334 312 -334 q 177 -329 212 -334 q 120 -317 143 -324 l 120 -154 q 159 -164 140 -161 q 200 -167 177 -167 q 232 -162 217 -167 q 259 -143 247 -156 q 278 -108 271 -130 q 285 -51 285 -86 l 285 547 l 171 547 l 171 646 l 285 701 l 285 756 q 302 877 285 829 q 352 953 320 925 q 431 994 385 982 q 535 1006 478 1006 q 641 996 598 1006 q 714 974 684 986 l 665 822 q 621 835 644 829 q 567 841 598 841 q 509 815 526 841 q 493 748 493 789 l 493 701 l 647 701 l 647 547 l 493 547 l 491 -81 "},"у":{"x_min":-0.25,"x_max":749.25,"ha":749,"o":"m 0 758 l 226 758 l 348 331 q 364 256 359 296 q 371 184 369 216 l 375 184 q 378 219 376 200 q 384 257 381 238 q 392 296 388 277 q 401 331 396 316 l 521 758 l 749 758 l 449 -96 q 334 -275 407 -217 q 152 -334 261 -334 q 91 -330 116 -334 q 47 -322 65 -326 l 47 -158 q 83 -164 61 -161 q 128 -167 104 -167 q 184 -158 161 -167 q 224 -133 207 -149 q 252 -95 240 -117 q 273 -44 264 -72 l 286 -6 l 0 758 "},"J":{"x_min":-135,"x_max":335,"ha":460,"o":"m -1 -292 q -78 -287 -45 -292 q -135 -277 -111 -283 l -135 -103 q -82 -112 -109 -108 q -22 -117 -54 -117 q 35 -110 8 -117 q 82 -86 62 -103 q 113 -42 102 -70 q 124 27 124 -14 l 124 992 l 335 992 l 335 35 q 310 -111 335 -49 q 241 -213 285 -173 q 134 -273 196 -254 q -1 -292 73 -292 "},"ŷ":{"x_min":-0.25,"x_max":749.25,"ha":749,"o":"m 0 758 l 226 758 l 348 331 q 364 256 359 296 q 371 184 369 216 l 375 184 q 378 219 376 200 q 384 257 381 238 q 392 296 388 277 q 401 331 396 316 l 521 758 l 749 758 l 449 -96 q 334 -275 407 -217 q 152 -334 261 -334 q 91 -330 116 -334 q 47 -322 65 -326 l 47 -158 q 83 -164 61 -161 q 128 -167 104 -167 q 184 -158 161 -167 q 224 -133 207 -149 q 252 -95 240 -117 q 273 -44 264 -72 l 286 -6 l 0 758 m 519 842 q 447 894 484 864 q 374 960 409 923 q 302 894 337 923 q 232 842 267 864 l 95 842 l 95 860 q 134 905 112 879 q 177 958 155 931 q 219 1013 199 986 q 255 1064 240 1040 l 496 1064 q 531 1013 511 1040 q 573 958 551 986 q 617 905 595 931 q 657 860 640 879 l 657 842 l 519 842 "},"ŕ":{"x_min":109,"x_max":580,"ha":603,"o":"m 504 773 q 522 772 512 773 q 541 771 532 772 q 558 769 550 770 q 570 766 565 768 l 570 572 q 555 575 564 574 q 535 578 545 576 q 514 579 524 579 q 497 579 504 579 q 423 569 457 579 q 366 536 390 559 q 329 476 342 513 q 315 386 315 439 l 315 0 l 109 0 l 109 758 l 265 758 l 296 644 l 306 644 q 341 697 322 673 q 383 738 360 721 q 436 763 407 754 q 504 773 466 773 m 230 842 l 230 860 q 260 905 244 879 q 292 958 276 931 q 322 1013 308 986 q 348 1064 337 1040 l 580 1064 l 580 1049 q 558 1021 572 1037 q 525 985 544 1004 q 486 946 507 966 q 444 907 465 926 q 402 871 422 888 q 367 842 383 854 l 230 842 "},"ώ":{"x_min":81,"x_max":1091,"ha":1171,"o":"m 798 -14 q 722 -3 755 -14 q 663 25 689 6 q 620 72 638 45 q 589 133 602 100 l 582 133 q 551 72 570 100 q 508 25 533 45 q 450 -3 483 6 q 374 -14 416 -14 q 245 14 300 -14 q 154 92 190 42 q 99 213 117 143 q 81 367 81 283 q 85 472 81 423 q 99 568 90 521 q 124 662 109 615 q 158 758 138 708 l 360 758 q 296 573 316 666 q 275 378 275 480 q 282 286 275 327 q 303 215 289 244 q 340 168 317 185 q 393 152 362 152 q 439 163 421 152 q 468 195 458 174 q 484 248 479 217 q 489 319 489 279 l 489 517 l 683 517 l 683 319 q 688 248 683 279 q 703 195 692 217 q 733 163 714 174 q 779 152 751 152 q 832 168 810 152 q 868 214 854 185 q 889 285 883 244 q 896 375 896 326 q 876 572 896 477 q 811 758 855 666 l 1012 758 q 1047 662 1032 708 q 1072 568 1062 615 q 1086 472 1082 521 q 1091 367 1091 423 q 1072 213 1091 283 q 1017 92 1053 143 q 925 14 980 42 q 798 -14 870 -14 m 521 860 q 533 906 527 880 q 544 960 539 932 q 555 1014 550 987 q 562 1064 559 1041 l 754 1064 l 754 1049 q 705 950 733 1003 q 641 842 677 897 l 521 842 l 521 860 "},"˘":{"x_min":154,"x_max":646,"ha":802,"o":"m 646 1071 q 624 978 642 1020 q 576 906 607 936 q 500 858 544 875 q 397 842 455 842 q 293 858 337 842 q 218 904 248 874 q 172 976 188 934 q 154 1071 156 1018 l 269 1071 q 281 1024 272 1041 q 307 998 291 1007 q 346 987 323 989 q 398 985 369 985 q 445 988 423 985 q 484 1000 467 991 q 513 1026 502 1009 q 527 1071 525 1043 l 646 1071 "},"D":{"x_min":125,"x_max":892,"ha":973,"o":"m 892 505 q 857 285 892 379 q 758 127 823 190 q 600 31 693 63 q 386 0 506 0 l 125 0 l 125 992 l 415 992 q 612 960 524 992 q 762 868 700 929 q 858 715 824 806 q 892 505 892 624 m 681 499 q 665 641 681 581 q 616 740 648 701 q 538 798 584 779 q 432 817 492 817 l 335 817 l 335 174 l 413 174 q 614 255 547 174 q 681 499 681 336 "},"ł":{"x_min":0.203125,"x_max":458.6875,"ha":458,"o":"m 331 630 l 379 659 l 458 526 l 331 450 l 331 0 l 125 0 l 125 323 l 76 294 l 0 427 l 125 503 l 125 1055 l 331 1055 l 331 630 "},"ĺ":{"x_min":109,"x_max":472,"ha":424,"o":"m 315 0 l 109 0 l 109 1055 l 315 1055 l 315 0 m 122 1110 l 122 1128 q 152 1173 136 1147 q 184 1226 168 1199 q 214 1281 200 1254 q 240 1332 229 1308 l 472 1332 l 472 1317 q 450 1289 464 1305 q 417 1253 436 1272 q 378 1214 399 1234 q 336 1175 357 1194 q 294 1139 314 1156 q 259 1110 275 1122 l 122 1110 "},"ц":{"x_min":109,"x_max":894,"ha":914,"o":"m 783 151 l 894 151 l 894 -272 l 715 -272 l 715 0 l 109 0 l 109 758 l 315 758 l 315 155 l 576 155 l 576 758 l 783 758 l 783 151 "},"Л":{"x_min":11,"x_max":854,"ha":979,"o":"m 854 0 l 643 0 l 643 817 l 470 817 q 452 677 462 753 q 432 525 443 601 q 411 380 422 449 q 389 258 400 310 q 355 142 375 193 q 303 56 334 91 q 225 3 271 21 q 114 -14 179 -14 q 59 -10 85 -14 q 11 1 33 -6 l 11 174 q 46 164 28 168 q 84 160 63 160 q 119 170 104 160 q 146 203 134 179 q 169 264 159 226 q 190 361 179 303 q 206 457 196 395 q 229 603 217 520 q 256 785 242 686 q 283 992 270 884 l 854 992 l 854 0 "},"$":{"x_min":66,"x_max":720,"ha":765,"o":"m 720 310 q 702 216 720 259 q 648 140 684 172 q 559 86 612 107 q 437 58 507 65 l 437 -80 l 345 -80 l 345 56 q 261 61 300 57 q 190 72 223 65 q 126 90 157 80 q 67 114 96 101 l 67 293 q 129 266 95 279 q 199 242 163 253 q 272 224 235 232 q 345 215 309 217 l 345 430 q 333 435 339 432 q 322 439 327 437 q 313 443 317 441 q 204 492 251 466 q 127 550 158 518 q 81 620 96 582 q 66 708 66 659 q 85 800 66 759 q 140 873 104 842 q 228 923 176 904 q 345 948 280 942 l 345 1055 l 437 1055 l 437 953 q 558 936 496 949 q 688 893 620 922 l 619 734 q 527 766 575 752 q 437 783 479 780 l 437 584 l 464 575 q 576 526 528 551 q 656 470 625 501 q 704 400 688 439 q 720 310 720 361 m 515 306 q 511 334 515 322 q 497 357 507 346 q 473 375 488 367 q 437 393 458 384 l 437 222 q 496 249 477 228 q 515 306 515 269 m 270 712 q 288 659 270 681 q 345 624 305 638 l 345 782 q 289 761 307 778 q 270 712 270 745 "},"w":{"x_min":-0.25,"x_max":1120.25,"ha":1120,"o":"m 688 0 l 629 265 q 622 297 626 276 q 612 346 618 319 q 601 403 607 372 q 589 463 595 433 q 559 613 575 532 l 555 613 q 527 462 539 532 q 515 402 521 432 q 504 344 510 371 q 494 296 499 317 q 487 262 490 274 l 426 0 l 204 0 l 0 758 l 205 758 l 282 422 q 294 359 288 395 q 306 284 301 322 q 317 213 312 246 q 324 160 322 179 l 328 160 q 331 193 329 172 q 337 237 334 214 q 344 286 341 261 q 352 332 348 311 q 359 371 356 354 q 364 394 362 387 l 447 758 l 674 758 l 754 394 q 763 348 757 379 q 774 281 768 317 q 784 212 780 246 q 789 160 788 178 l 793 160 q 800 210 795 176 q 811 281 805 243 q 824 357 817 320 q 837 422 831 395 l 917 758 l 1120 758 l 913 0 l 688 0 "},"о":{"x_min":69,"x_max":762,"ha":832,"o":"m 280 380 q 312 209 280 267 q 415 152 344 152 q 518 210 486 152 q 550 380 550 267 q 518 550 550 494 q 414 606 486 606 q 312 550 343 606 q 280 380 280 494 m 762 380 q 737 212 762 285 q 668 88 713 138 q 558 12 623 38 q 413 -14 494 -14 q 275 12 338 -14 q 166 88 212 38 q 94 212 120 138 q 69 380 69 285 q 93 548 69 474 q 162 671 117 621 q 271 747 207 721 q 417 773 336 773 q 555 747 492 773 q 664 671 618 721 q 736 548 710 621 q 762 380 762 474 "},"Д":{"x_min":7,"x_max":978,"ha":1006,"o":"m 7 174 l 84 174 q 158 338 122 252 q 226 523 195 424 q 281 738 256 622 q 324 992 307 854 l 846 992 l 846 174 l 978 174 l 978 -289 l 772 -289 l 772 0 l 212 0 l 212 -289 l 7 -289 l 7 174 m 490 817 q 463 663 480 745 q 421 497 445 581 q 367 331 397 413 q 305 174 338 248 l 635 174 l 635 817 l 490 817 "},"Ç":{"x_min":81,"x_max":836.296875,"ha":885,"o":"m 546 831 q 439 807 485 831 q 361 740 392 784 q 313 633 329 696 q 297 492 297 571 q 311 351 297 413 q 356 247 326 289 q 433 183 386 205 q 546 160 481 160 q 667 174 606 160 q 799 213 727 188 l 799 36 q 734 13 766 23 q 669 -1 702 4 q 601 -10 636 -7 q 526 -14 566 -14 q 327 22 411 -14 q 188 125 243 59 q 107 285 133 192 q 81 494 81 379 q 111 700 81 606 q 201 862 142 794 q 346 968 260 930 q 546 1006 433 1006 q 694 987 620 1006 q 836 936 768 968 l 768 765 q 656 811 712 791 q 546 831 600 831 m 628 -169 q 617 -239 628 -208 q 582 -290 606 -269 q 517 -322 558 -311 q 418 -334 477 -334 q 363 -329 387 -334 q 319 -319 338 -325 l 319 -205 q 341 -210 329 -208 q 367 -215 354 -213 q 393 -218 380 -217 q 416 -220 406 -220 q 450 -210 435 -220 q 465 -178 465 -201 q 440 -133 465 -153 q 352 -105 414 -114 l 405 0 l 536 0 l 517 -41 q 558 -59 538 -48 q 593 -87 578 -71 q 618 -124 608 -103 q 628 -169 628 -144 "},"Ŝ":{"x_min":63.46875,"x_max":668,"ha":728,"o":"m 668 275 q 645 155 668 208 q 578 64 622 102 q 471 6 535 26 q 326 -14 408 -14 q 187 0 254 -14 q 63 45 120 15 l 63 241 q 129 211 96 225 q 196 185 162 197 q 265 167 231 174 q 333 160 299 160 q 392 168 368 160 q 432 190 417 176 q 455 223 448 203 q 462 264 462 242 q 450 314 462 292 q 417 354 438 335 q 365 390 396 372 q 298 427 335 408 q 228 467 267 444 q 155 524 189 490 q 98 607 121 558 q 75 723 75 655 q 97 842 75 790 q 159 931 119 895 q 258 987 200 968 q 388 1006 316 1006 q 458 1001 424 1006 q 526 987 492 996 q 594 965 560 978 q 663 936 627 953 l 596 772 q 539 797 565 786 q 487 816 512 808 q 438 827 462 823 q 389 831 414 831 q 308 802 336 831 q 280 727 280 774 q 288 683 280 702 q 316 646 297 663 q 364 612 334 630 q 435 572 393 594 q 529 517 486 545 q 603 454 572 488 q 651 376 634 420 q 668 275 668 333 m 530 1071 q 458 1123 495 1093 q 385 1189 420 1152 q 313 1123 348 1152 q 243 1071 278 1093 l 106 1071 l 106 1089 q 145 1134 123 1108 q 188 1187 166 1160 q 230 1242 210 1215 q 266 1293 251 1269 l 507 1293 q 542 1242 522 1269 q 584 1187 562 1215 q 628 1134 606 1160 q 668 1089 651 1108 l 668 1071 l 530 1071 "},"C":{"x_min":81,"x_max":836.296875,"ha":885,"o":"m 546 831 q 439 807 485 831 q 361 740 392 784 q 313 633 329 696 q 297 492 297 571 q 311 351 297 413 q 356 247 326 289 q 433 183 386 205 q 546 160 481 160 q 667 174 606 160 q 799 213 727 188 l 799 36 q 734 13 766 23 q 669 -1 702 4 q 601 -10 636 -7 q 526 -14 566 -14 q 327 22 411 -14 q 188 125 243 59 q 107 285 133 192 q 81 494 81 379 q 111 700 81 606 q 201 862 142 794 q 346 968 260 930 q 546 1006 433 1006 q 694 987 620 1006 q 836 936 768 968 l 768 765 q 656 811 712 791 q 546 831 600 831 "},"Ḁ":{"x_min":-0.25,"x_max":903.25,"ha":903,"o":"m 690 0 l 623 238 l 280 238 l 212 0 l 0 0 l 322 996 l 579 996 l 903 0 l 690 0 m 574 413 l 510 629 q 498 669 506 642 q 480 731 489 697 q 463 798 471 764 q 451 856 455 832 q 444 821 449 841 q 434 778 440 800 q 422 732 428 755 q 411 688 416 709 q 401 652 405 668 q 394 629 396 637 l 331 413 l 574 413 m 622 -244 q 608 -312 622 -282 q 572 -363 595 -342 q 517 -395 548 -384 q 449 -407 486 -407 q 381 -395 412 -407 q 328 -363 350 -384 q 294 -313 306 -343 q 282 -245 282 -283 q 294 -178 282 -208 q 328 -128 306 -148 q 381 -96 350 -107 q 449 -85 412 -85 q 517 -96 485 -85 q 571 -128 548 -107 q 608 -178 594 -148 q 622 -244 622 -207 m 516 -245 q 498 -197 516 -215 q 452 -180 480 -180 q 405 -197 423 -180 q 387 -245 387 -215 q 403 -293 387 -276 q 452 -311 419 -311 q 498 -293 480 -311 q 516 -245 516 -276 "},"Ĵ":{"x_min":-135,"x_max":508,"ha":460,"o":"m -1 -292 q -78 -287 -45 -292 q -135 -277 -111 -283 l -135 -103 q -82 -112 -109 -108 q -22 -117 -54 -117 q 35 -110 8 -117 q 82 -86 62 -103 q 113 -42 102 -70 q 124 27 124 -14 l 124 992 l 335 992 l 335 35 q 310 -111 335 -49 q 241 -213 285 -173 q 134 -273 196 -254 q -1 -292 73 -292 m 370 1071 q 298 1123 335 1093 q 225 1189 260 1152 q 153 1123 188 1152 q 83 1071 118 1093 l -54 1071 l -54 1089 q -14 1134 -36 1108 q 28 1187 6 1160 q 70 1242 50 1215 q 106 1293 91 1269 l 347 1293 q 382 1242 362 1269 q 424 1187 402 1215 q 468 1134 446 1160 q 508 1089 491 1108 l 508 1071 l 370 1071 "},"È":{"x_min":125,"x_max":696,"ha":778,"o":"m 696 0 l 125 0 l 125 992 l 696 992 l 696 817 l 335 817 l 335 602 l 670 602 l 670 427 l 335 427 l 335 174 l 696 174 l 696 0 m 388 1071 q 333 1118 365 1089 q 269 1175 300 1146 q 212 1233 238 1205 q 176 1278 186 1260 l 176 1293 l 407 1293 q 433 1242 418 1269 q 463 1187 447 1215 q 495 1134 479 1160 q 526 1089 511 1108 l 526 1071 l 388 1071 "},"ﬁ":{"x_min":28,"x_max":863.359375,"ha":961,"o":"m 503 604 l 348 604 l 348 0 l 142 0 l 142 604 l 28 604 l 28 703 l 142 758 l 142 813 q 159 934 142 886 q 209 1010 177 982 q 288 1051 242 1039 q 392 1063 334 1063 q 497 1053 454 1063 q 570 1030 540 1043 l 521 877 q 477 890 500 884 q 422 896 454 896 q 365 871 382 896 q 348 804 348 845 l 348 758 l 503 758 l 503 604 m 638 953 q 647 1002 638 983 q 671 1033 655 1021 q 707 1050 686 1045 q 750 1055 727 1055 q 794 1050 773 1055 q 829 1033 814 1045 q 854 1002 845 1021 q 863 953 863 983 q 854 905 863 925 q 829 874 845 885 q 794 857 814 862 q 750 852 773 852 q 707 857 727 852 q 671 874 686 862 q 647 905 655 885 q 638 953 638 925 m 853 0 l 647 0 l 647 758 l 853 758 l 853 0 "},"X":{"x_min":-0.25,"x_max":871.25,"ha":871,"o":"m 871 0 l 631 0 l 428 375 l 224 0 l 0 0 l 301 511 l 20 992 l 252 992 l 438 635 l 620 992 l 847 992 l 563 500 l 871 0 "},"ô":{"x_min":69,"x_max":762,"ha":832,"o":"m 280 380 q 312 209 280 267 q 415 152 344 152 q 518 210 486 152 q 550 380 550 267 q 518 550 550 494 q 414 606 486 606 q 312 550 343 606 q 280 380 280 494 m 762 380 q 737 212 762 285 q 668 88 713 138 q 558 12 623 38 q 413 -14 494 -14 q 275 12 338 -14 q 166 88 212 38 q 94 212 120 138 q 69 380 69 285 q 93 548 69 474 q 162 671 117 621 q 271 747 207 721 q 417 773 336 773 q 555 747 492 773 q 664 671 618 721 q 736 548 710 621 q 762 380 762 474 m 557 842 q 485 894 522 864 q 412 960 447 923 q 340 894 375 923 q 270 842 305 864 l 133 842 l 133 860 q 172 905 150 879 q 215 958 193 931 q 257 1013 237 986 q 293 1064 278 1040 l 534 1064 q 569 1013 549 1040 q 611 958 589 986 q 655 905 633 931 q 695 860 678 879 l 695 842 l 557 842 "},"Ė":{"x_min":125,"x_max":696,"ha":778,"o":"m 696 0 l 125 0 l 125 992 l 696 992 l 696 817 l 335 817 l 335 602 l 670 602 l 670 427 l 335 427 l 335 174 l 696 174 l 696 0 m 296 1164 q 304 1213 296 1194 q 328 1244 313 1232 q 364 1261 344 1256 q 408 1266 385 1266 q 451 1261 431 1266 q 487 1244 472 1256 q 511 1213 502 1232 q 521 1164 521 1194 q 511 1116 521 1136 q 487 1085 502 1096 q 451 1068 472 1073 q 408 1063 431 1063 q 364 1068 385 1063 q 328 1085 344 1073 q 304 1116 313 1096 q 296 1164 296 1136 "},"г":{"x_min":109,"x_max":590,"ha":623,"o":"m 590 758 l 590 604 l 315 604 l 315 0 l 109 0 l 109 758 l 590 758 "},"Ŀ":{"x_min":125,"x_max":696,"ha":743,"o":"m 125 0 l 125 992 l 335 992 l 335 174 l 696 174 l 696 0 l 125 0 m 452 509 q 460 558 452 539 q 484 589 469 577 q 520 606 500 601 q 564 611 541 611 q 607 606 587 611 q 643 589 628 601 q 667 558 658 577 q 677 509 677 539 q 667 461 677 481 q 643 430 658 441 q 607 413 628 418 q 564 408 587 408 q 520 413 541 408 q 484 430 500 418 q 460 461 469 441 q 452 509 452 481 "},"х":{"x_min":6.75,"x_max":754.25,"ha":761,"o":"m 263 387 l 19 758 l 254 758 l 380 530 l 508 758 l 743 758 l 495 387 l 754 0 l 519 0 l 380 245 l 241 0 l 6 0 l 263 387 "},"ŋ":{"x_min":109,"x_max":767,"ha":871,"o":"m 521 -334 q 454 -329 489 -334 q 397 -317 420 -324 l 397 -154 q 435 -164 417 -161 q 476 -167 453 -167 q 509 -162 494 -167 q 535 -143 524 -156 q 553 -108 547 -130 q 560 -51 560 -86 l 560 458 q 533 569 560 532 q 456 606 507 606 q 388 590 415 606 q 345 542 361 574 q 322 463 329 510 q 315 356 315 416 l 315 0 l 109 0 l 109 758 l 267 758 l 294 661 l 306 661 q 346 711 322 690 q 397 746 369 732 q 456 766 425 760 q 520 773 487 773 q 621 757 575 773 q 699 707 666 741 q 749 620 731 673 q 767 494 767 568 l 767 -82 q 753 -180 767 -134 q 711 -260 740 -226 q 634 -314 681 -294 q 521 -334 588 -334 "},"Ч":{"x_min":74,"x_max":831,"ha":956,"o":"m 831 0 l 620 0 l 620 383 q 545 356 581 368 q 475 337 509 345 q 408 326 441 330 q 341 322 375 322 q 229 339 278 322 q 144 389 179 356 q 92 471 110 422 q 74 581 74 519 l 74 992 l 284 992 l 284 641 q 312 533 284 569 q 408 496 341 496 q 509 509 458 496 q 620 547 559 522 l 620 992 l 831 992 l 831 0 "},"ü":{"x_min":104,"x_max":762,"ha":871,"o":"m 603 0 l 576 96 l 565 96 q 524 46 548 67 q 473 12 501 26 q 414 -7 445 -1 q 350 -14 383 -14 q 249 1 295 -14 q 171 51 204 17 q 121 137 139 85 q 104 263 104 190 l 104 758 l 310 758 l 310 314 q 335 191 310 232 q 414 150 360 150 q 482 167 455 150 q 525 215 509 183 q 548 293 541 247 q 555 401 555 340 l 555 758 l 762 758 l 762 0 l 603 0 m 200 953 q 207 994 200 977 q 227 1022 214 1011 q 257 1039 240 1034 q 294 1045 274 1045 q 331 1039 314 1045 q 361 1022 348 1034 q 382 994 374 1011 q 390 953 390 977 q 382 913 390 930 q 361 885 374 896 q 331 868 348 873 q 294 863 314 863 q 257 868 274 863 q 227 885 240 873 q 207 913 214 896 q 200 953 200 930 m 473 953 q 480 994 473 977 q 500 1022 487 1011 q 531 1039 513 1034 q 569 1045 548 1045 q 605 1039 588 1045 q 636 1022 622 1034 q 657 994 649 1011 q 665 953 665 977 q 657 913 665 930 q 636 885 649 896 q 605 868 622 873 q 569 863 588 863 q 500 885 528 863 q 473 953 473 907 "},"ь":{"x_min":109,"x_max":762,"ha":818,"o":"m 315 467 l 449 467 q 685 411 609 467 q 762 242 762 356 q 744 142 762 187 q 688 65 726 97 q 591 17 650 34 q 447 0 531 0 l 109 0 l 109 758 l 315 758 l 315 467 m 555 239 q 525 300 555 281 q 436 319 495 319 l 315 319 l 315 147 l 438 147 q 522 168 490 147 q 555 239 555 189 "},"Ÿ":{"x_min":-0.25,"x_max":812.25,"ha":811,"o":"m 406 583 l 585 992 l 812 992 l 511 385 l 511 0 l 301 0 l 301 379 l 0 992 l 227 992 l 406 583 m 174 1182 q 181 1223 174 1206 q 201 1251 188 1240 q 231 1268 214 1263 q 268 1274 248 1274 q 305 1268 288 1274 q 335 1251 322 1263 q 356 1223 348 1240 q 364 1182 364 1206 q 356 1142 364 1159 q 335 1114 348 1125 q 305 1097 322 1102 q 268 1092 288 1092 q 231 1097 248 1092 q 201 1114 214 1102 q 181 1142 188 1125 q 174 1182 174 1159 m 447 1182 q 454 1223 447 1206 q 474 1251 461 1240 q 505 1268 487 1263 q 543 1274 522 1274 q 579 1268 562 1274 q 610 1251 596 1263 q 631 1223 623 1240 q 639 1182 639 1206 q 631 1142 639 1159 q 610 1114 623 1125 q 579 1097 596 1102 q 543 1092 562 1092 q 474 1114 502 1092 q 447 1182 447 1136 "},"€":{"x_min":45,"x_max":755.671875,"ha":765,"o":"m 520 829 q 405 781 450 829 q 345 644 360 734 l 584 644 l 584 523 l 335 523 q 334 512 335 517 q 333 500 333 506 q 333 488 333 494 q 333 468 333 475 q 335 447 333 461 l 542 447 l 542 326 l 346 326 q 410 197 364 238 q 533 155 457 155 q 631 167 586 155 q 717 199 676 179 l 717 26 q 630 -3 678 6 q 518 -14 582 -14 q 261 74 355 -14 q 137 326 167 162 l 45 326 l 45 447 l 125 447 q 122 469 122 458 q 122 488 122 480 q 122 507 122 498 q 123 523 123 517 l 45 523 l 45 644 l 135 644 q 178 793 148 727 q 257 904 209 859 q 370 974 305 950 q 516 999 435 999 q 643 984 586 999 q 755 943 701 970 l 690 786 q 604 817 644 806 q 520 829 563 829 "},"в":{"x_min":109,"x_max":791,"ha":853,"o":"m 767 560 q 729 457 767 500 q 615 402 691 414 l 615 397 q 688 378 655 392 q 743 342 720 364 q 778 291 765 320 q 791 228 791 262 q 773 136 791 178 q 717 64 755 94 q 619 17 679 34 q 475 0 560 0 l 109 0 l 109 758 l 473 758 q 590 747 537 758 q 683 714 644 737 q 744 653 722 691 q 767 560 767 616 m 579 241 q 549 306 579 286 q 458 326 519 326 l 315 326 l 315 147 l 461 147 q 509 152 487 147 q 546 168 530 157 q 570 198 561 180 q 579 241 579 216 m 555 543 q 463 610 555 610 l 315 610 l 315 464 l 442 464 q 527 482 498 464 q 555 543 555 501 "},"Η":{"x_min":125,"x_max":882,"ha":1007,"o":"m 882 0 l 671 0 l 671 428 l 335 428 l 335 0 l 125 0 l 125 992 l 335 992 l 335 603 l 671 603 l 671 992 l 882 992 l 882 0 "},"С":{"x_min":81,"x_max":836.296875,"ha":885,"o":"m 546 831 q 439 807 485 831 q 361 740 392 784 q 313 633 329 696 q 297 492 297 571 q 311 351 297 413 q 356 247 326 289 q 433 183 386 205 q 546 160 481 160 q 667 174 606 160 q 799 213 727 188 l 799 36 q 734 13 766 23 q 669 -1 702 4 q 601 -10 636 -7 q 526 -14 566 -14 q 327 22 411 -14 q 188 125 243 59 q 107 285 133 192 q 81 494 81 379 q 111 700 81 606 q 201 862 142 794 q 346 968 260 930 q 546 1006 433 1006 q 694 987 620 1006 q 836 936 768 968 l 768 765 q 656 811 712 791 q 546 831 600 831 "},"ß":{"x_min":109,"x_max":897,"ha":946,"o":"m 805 841 q 791 765 805 798 q 755 706 776 732 q 709 661 734 680 q 662 625 683 641 q 627 594 641 609 q 612 565 612 580 q 621 540 612 551 q 647 515 629 528 q 692 484 665 501 q 758 441 720 467 q 817 398 791 420 q 860 350 843 376 q 887 292 878 323 q 897 220 897 261 q 817 45 897 104 q 584 -14 738 -14 q 469 -4 518 -14 q 379 28 420 5 l 379 192 q 419 170 395 181 q 468 151 442 160 q 521 138 494 143 q 571 133 548 133 q 655 154 625 133 q 685 218 685 175 q 680 250 685 236 q 661 278 675 264 q 622 309 648 292 q 557 348 597 325 q 485 394 514 373 q 438 437 456 416 q 413 481 420 458 q 405 532 405 505 q 419 594 405 567 q 454 641 433 620 q 499 679 475 662 q 545 715 524 697 q 580 753 566 733 q 593 801 593 774 q 560 870 593 844 q 460 896 526 896 q 351 864 388 896 q 315 761 315 831 l 315 0 l 109 0 l 109 772 q 134 901 109 846 q 205 991 159 955 q 317 1045 251 1027 q 461 1063 382 1063 q 602 1048 539 1063 q 711 1005 666 1033 q 781 936 756 977 q 805 841 805 894 "},"њ":{"x_min":109,"x_max":1143,"ha":1198,"o":"m 737 467 l 829 467 q 1066 411 989 467 q 1143 242 1143 356 q 1125 142 1143 187 q 1069 65 1107 97 q 971 17 1031 34 q 828 0 912 0 l 531 0 l 531 310 l 315 310 l 315 0 l 109 0 l 109 758 l 315 758 l 315 468 l 531 468 l 531 758 l 737 758 l 737 467 m 936 239 q 906 300 936 281 q 817 319 876 319 l 737 319 l 737 147 l 819 147 q 903 168 871 147 q 936 239 936 189 "},"Ű":{"x_min":118,"x_max":876,"ha":994,"o":"m 876 992 l 876 349 q 852 205 876 272 q 781 90 829 139 q 661 13 733 41 q 492 -14 589 -14 q 331 12 401 -14 q 213 86 261 38 q 142 202 166 134 q 118 352 118 269 l 118 992 l 328 992 l 328 367 q 339 272 328 311 q 371 208 349 233 q 424 172 392 184 q 498 160 455 160 q 626 212 586 160 q 665 368 665 264 l 665 992 l 876 992 m 272 1071 l 272 1089 q 302 1134 286 1108 q 334 1187 318 1160 q 364 1242 350 1215 q 389 1293 379 1269 l 594 1293 l 594 1278 q 572 1250 586 1266 q 539 1214 558 1233 q 500 1175 521 1195 q 457 1136 478 1155 q 416 1100 436 1117 q 381 1071 396 1083 l 272 1071 m 541 1071 l 541 1089 q 571 1134 555 1108 q 603 1187 587 1160 q 633 1242 619 1215 q 658 1293 648 1269 l 863 1293 l 863 1278 q 841 1250 855 1266 q 808 1214 827 1233 q 769 1175 790 1195 q 727 1136 748 1155 q 686 1100 705 1117 q 650 1071 666 1083 l 541 1071 "},"c":{"x_min":69,"x_max":648.703125,"ha":693,"o":"m 424 -14 q 277 8 342 -14 q 165 78 211 30 q 93 198 118 125 q 69 375 69 272 q 94 564 69 488 q 166 687 119 641 q 278 753 212 733 q 424 773 343 773 q 540 758 482 773 q 648 718 597 744 l 588 562 q 502 594 544 581 q 423 606 461 606 q 314 549 348 606 q 280 376 280 491 q 314 206 280 261 q 421 152 348 152 q 528 167 480 152 q 627 206 576 182 l 627 35 q 578 13 601 23 q 530 -1 554 4 q 480 -10 506 -7 q 424 -14 453 -14 "},"¶":{"x_min":77,"x_max":792,"ha":910,"o":"m 792 -176 l 682 -176 l 682 919 l 569 919 l 569 -176 l 460 -176 l 460 379 q 361 367 418 367 q 244 384 296 367 q 154 441 191 401 q 97 546 117 481 q 77 706 77 611 q 99 873 77 806 q 161 980 121 939 q 258 1038 201 1021 q 382 1055 314 1055 l 792 1055 l 792 -176 "},"Ή":{"x_min":-39,"x_max":965,"ha":1091,"o":"m 965 0 l 754 0 l 754 428 l 418 428 l 418 0 l 208 0 l 208 992 l 418 992 l 418 603 l 754 603 l 754 992 l 965 992 l 965 0 m -39 789 q -26 835 -32 809 q -15 889 -20 861 q -5 943 -9 916 q 2 993 0 970 l 194 993 l 194 978 q 145 879 173 932 q 81 771 117 826 l -39 771 l -39 789 "},"Ὅ":{"x_min":-269,"x_max":1026,"ha":1106,"o":"m 1026 496 q 999 287 1026 382 q 917 126 972 193 q 778 22 862 59 q 581 -14 695 -14 q 383 22 467 -14 q 245 126 299 59 q 163 288 190 193 q 137 498 137 382 q 163 707 137 613 q 245 867 190 801 q 384 970 300 934 q 582 1007 467 1007 q 779 970 696 1007 q 917 867 863 934 q 999 706 972 800 q 1026 496 1026 612 m 353 496 q 366 355 353 417 q 408 250 380 293 q 479 184 436 207 q 581 160 522 160 q 685 184 641 160 q 755 250 728 207 q 796 355 783 293 q 809 496 809 417 q 796 636 809 574 q 755 742 783 698 q 685 808 728 785 q 582 832 642 832 q 480 808 523 832 q 408 742 436 785 q 366 636 380 698 q 353 496 353 574 m -269 858 q -258 904 -269 881 q -223 947 -247 927 q -162 980 -199 966 q -70 1003 -124 995 l -70 952 q -143 925 -119 937 q -166 893 -166 912 q -154 874 -166 880 q -126 862 -141 868 q -98 848 -111 857 q -86 820 -86 839 q -107 780 -86 795 q -173 765 -128 765 q -210 770 -193 765 q -241 787 -228 775 q -261 816 -254 798 q -269 858 -269 834 m -34 788 q -21 834 -28 808 q -5 887 -13 859 q 9 942 1 915 q 21 993 16 969 l 199 993 l 199 979 q 172 930 188 956 q 137 876 156 904 q 98 822 119 849 q 58 771 77 795 l -34 771 l -34 788 "},"γ":{"x_min":0.75,"x_max":747.25,"ha":747,"o":"m 483 12 q 452 -76 466 -29 q 430 -167 439 -122 q 417 -255 421 -213 q 412 -334 412 -298 l 201 -334 q 206 -264 201 -305 q 220 -176 211 -223 q 242 -82 229 -130 q 268 8 254 -34 l 0 758 l 215 758 l 314 423 q 332 359 323 395 q 350 286 342 322 q 365 218 359 249 q 374 168 371 186 l 378 168 q 384 218 380 189 q 397 278 389 246 q 413 345 404 310 q 433 413 422 379 l 531 758 l 747 758 l 483 12 "},"­":{"x_min":41,"x_max":406,"ha":447,"o":"m 41 287 l 41 457 l 406 457 l 406 287 l 41 287 "},":":{"x_min":79,"x_max":316,"ha":396,"o":"m 79 97 q 88 151 79 129 q 113 187 97 173 q 151 206 129 200 q 198 213 173 213 q 243 206 221 213 q 280 187 264 200 q 306 151 297 173 q 316 97 316 129 q 306 45 316 66 q 280 9 297 23 q 243 -11 264 -5 q 198 -18 221 -18 q 151 -11 173 -18 q 113 9 129 -5 q 88 45 97 23 q 79 97 79 66 m 79 657 q 88 711 79 689 q 113 747 97 733 q 151 766 129 760 q 198 773 173 773 q 243 766 221 773 q 280 747 264 760 q 306 711 297 733 q 316 657 316 689 q 306 604 316 626 q 280 568 297 582 q 243 548 264 554 q 198 542 221 542 q 151 548 173 542 q 113 568 129 554 q 88 604 97 582 q 79 657 79 626 "},"ś":{"x_min":66,"x_max":614,"ha":668,"o":"m 614 225 q 592 120 614 165 q 530 45 570 75 q 433 0 490 15 q 305 -14 376 -14 q 236 -11 268 -14 q 176 -3 204 -9 q 121 9 147 1 q 67 30 94 17 l 67 201 q 127 176 95 187 q 189 156 158 164 q 249 143 220 148 q 304 139 279 139 q 351 144 331 139 q 383 158 370 149 q 401 179 395 167 q 407 205 407 191 q 402 230 407 219 q 382 254 398 242 q 337 283 367 267 q 256 322 307 299 q 171 366 207 344 q 112 415 135 388 q 77 477 88 442 q 66 561 66 512 q 86 653 66 614 q 144 720 106 693 q 234 759 181 746 q 351 773 286 773 q 480 757 419 773 q 605 710 541 741 l 543 564 q 445 604 492 588 q 352 619 398 619 q 291 604 310 619 q 272 563 272 589 q 277 539 272 550 q 296 518 282 529 q 336 493 310 506 q 403 461 362 480 q 490 419 451 440 q 556 372 528 398 q 599 310 584 345 q 614 225 614 275 m 232 842 l 232 860 q 262 905 246 879 q 294 958 278 931 q 324 1013 310 986 q 350 1064 339 1040 l 582 1064 l 582 1049 q 560 1021 574 1037 q 527 985 546 1004 q 488 946 509 966 q 446 907 467 926 q 404 871 424 888 q 369 842 385 854 l 232 842 "}," ":{"x_min":0,"x_max":0,"ha":361},"У":{"x_min":-0.25,"x_max":851.25,"ha":851,"o":"m 851 992 l 563 290 q 503 162 534 218 q 431 66 473 105 q 332 6 389 27 q 194 -14 275 -14 q 120 -8 159 -14 q 46 6 80 -3 l 46 185 q 118 166 79 171 q 194 160 158 160 q 253 169 229 160 q 294 195 277 178 q 322 232 311 211 q 343 279 334 254 l 0 992 l 222 992 l 409 563 q 420 538 414 553 q 431 509 426 524 q 441 482 437 495 q 446 465 446 470 l 454 465 q 458 483 455 471 q 465 510 461 496 q 473 538 469 524 q 482 562 478 552 l 634 992 l 851 992 "},"¾":{"x_min":61,"x_max":1161.203125,"ha":1224,"o":"m 977 992 l 426 0 l 264 0 l 815 992 l 977 992 m 1161 101 l 1076 101 l 1076 0 l 915 0 l 915 101 l 655 101 l 655 207 l 916 599 l 1076 599 l 1076 217 l 1161 217 l 1161 101 m 915 217 l 915 328 q 916 388 915 356 q 919 453 917 419 q 909 429 915 444 q 895 399 902 415 q 880 370 887 384 q 866 346 872 356 l 780 217 l 915 217 m 472 846 q 444 766 472 800 q 356 712 417 732 l 356 703 q 416 682 391 697 q 458 649 441 668 q 482 608 474 631 q 491 562 491 586 q 431 433 491 480 q 245 386 371 386 q 149 397 194 386 q 61 433 105 409 l 61 562 q 150 518 105 535 q 245 501 195 501 q 319 519 296 501 q 343 573 343 537 q 337 600 343 587 q 319 623 332 613 q 284 639 306 633 q 229 645 262 645 l 153 645 l 153 754 l 214 754 q 270 760 249 754 q 304 776 292 766 q 320 800 316 787 q 324 828 324 814 q 307 871 324 854 q 256 888 290 888 q 196 875 224 888 q 130 834 168 862 l 62 930 q 155 982 104 961 q 276 1004 206 1004 q 354 992 318 1004 q 416 961 390 981 q 457 911 442 940 q 472 846 472 882 "},"Ί":{"x_min":-39,"x_max":666.96875,"ha":711,"o":"m 666 0 l 215 0 l 215 119 l 336 174 l 336 817 l 215 872 l 215 992 l 666 992 l 666 872 l 546 817 l 546 174 l 666 119 l 666 0 m -39 789 q -26 835 -32 809 q -15 889 -20 861 q -5 943 -9 916 q 2 993 0 970 l 194 993 l 194 978 q 145 879 173 932 q 81 771 117 826 l -39 771 l -39 789 "},"ŉ":{"x_min":16,"x_max":937,"ha":1040,"o":"m 937 0 l 730 0 l 730 442 q 705 565 730 524 q 626 606 680 606 q 558 590 585 606 q 515 542 531 574 q 492 463 499 510 q 485 356 485 416 l 485 0 l 279 0 l 279 758 l 437 758 l 464 661 l 476 661 q 516 711 492 690 q 567 746 539 732 q 626 766 595 760 q 690 773 657 773 q 791 757 745 773 q 869 707 836 741 q 919 620 901 673 q 937 494 937 568 l 937 0 m 273 992 l 284 977 q 261 898 274 939 q 232 815 248 857 q 198 731 216 772 q 164 652 181 690 l 16 652 q 35 737 25 692 q 54 827 45 782 q 71 913 63 871 q 83 992 78 956 l 273 992 "},"Ģ":{"x_min":81,"x_max":895,"ha":1006,"o":"m 502 557 l 895 557 l 895 42 q 815 18 855 29 q 732 1 775 8 q 642 -9 689 -5 q 542 -14 595 -14 q 345 18 431 -14 q 200 116 259 51 q 111 276 142 181 q 81 497 81 372 q 114 708 81 613 q 214 868 148 802 q 377 970 281 934 q 599 1006 474 1006 q 754 989 678 1006 q 893 944 830 972 l 823 776 q 719 815 777 799 q 597 831 661 831 q 473 806 528 831 q 378 738 418 782 q 318 632 339 694 q 297 492 297 569 q 311 358 297 419 q 357 253 326 298 q 438 185 388 209 q 555 160 487 160 q 631 165 600 160 q 689 174 662 169 l 689 382 l 502 382 l 502 557 m 427 -288 q 439 -242 433 -268 q 450 -188 445 -216 q 461 -134 456 -161 q 468 -85 466 -107 l 660 -85 l 660 -98 q 611 -198 639 -145 q 547 -307 583 -251 l 427 -307 l 427 -288 "},"m":{"x_min":109,"x_max":1204,"ha":1308,"o":"m 759 0 l 553 0 l 553 442 q 528 565 553 524 q 452 606 504 606 q 386 590 412 606 q 344 542 360 574 q 322 463 329 510 q 315 356 315 416 l 315 0 l 109 0 l 109 758 l 267 758 l 294 661 l 306 661 q 345 711 322 690 q 395 746 368 732 q 452 766 422 760 q 514 773 483 773 q 646 746 592 773 q 730 661 701 719 l 747 661 q 786 711 763 690 q 837 746 809 732 q 896 766 865 760 q 958 773 927 773 q 1142 706 1080 773 q 1204 494 1204 640 l 1204 0 l 997 0 l 997 442 q 972 565 997 524 q 896 606 948 606 q 791 548 822 606 q 759 380 759 489 l 759 0 "},"Е":{"x_min":125,"x_max":696,"ha":778,"o":"m 696 0 l 125 0 l 125 992 l 696 992 l 696 817 l 335 817 l 335 602 l 670 602 l 670 427 l 335 427 l 335 174 l 696 174 l 696 0 "},"ž":{"x_min":37,"x_max":612,"ha":635,"o":"m 595 0 l 37 0 l 37 117 l 347 604 l 58 604 l 58 758 l 582 758 l 582 628 l 281 153 l 595 153 l 595 0 m 612 1045 q 572 1000 595 1026 q 528 947 550 974 q 486 892 506 919 q 451 842 466 865 l 210 842 q 174 892 195 865 q 132 947 154 919 q 89 1000 110 974 q 50 1045 67 1026 l 50 1064 l 187 1064 q 257 1011 222 1041 q 329 945 292 982 q 402 1011 364 982 q 474 1064 439 1041 l 612 1064 l 612 1045 "},"á":{"x_min":58,"x_max":694,"ha":798,"o":"m 548 0 l 508 104 l 502 104 q 457 51 479 73 q 408 14 434 28 q 349 -7 382 0 q 272 -14 316 -14 q 187 0 226 -14 q 119 44 148 15 q 74 119 90 74 q 58 226 58 164 q 135 404 58 347 q 366 467 212 461 l 487 472 l 487 529 q 460 598 487 575 q 384 620 432 620 q 289 606 335 620 q 196 568 242 592 l 129 705 q 255 755 186 737 q 400 774 324 774 q 618 707 542 774 q 694 505 694 641 l 694 0 l 548 0 m 487 351 l 418 348 q 348 337 377 347 q 302 312 319 328 q 277 274 285 296 q 269 226 269 253 q 292 159 269 178 q 353 139 315 139 q 406 149 381 139 q 448 177 430 158 q 476 225 466 197 q 487 289 487 253 l 487 351 m 300 842 l 300 860 q 330 905 314 879 q 362 958 346 931 q 392 1013 378 986 q 418 1064 407 1040 l 650 1064 l 650 1049 q 628 1021 642 1037 q 595 985 614 1004 q 556 946 577 966 q 514 907 535 926 q 472 871 492 888 q 437 842 453 854 l 300 842 "},"×":{"x_min":73.9375,"x_max":691.796875,"ha":765,"o":"m 276 490 l 73 694 l 176 799 l 380 596 l 587 799 l 691 697 l 484 490 l 689 285 l 587 181 l 380 386 l 176 183 l 75 286 l 276 490 "},"п":{"x_min":109,"x_max":755,"ha":864,"o":"m 755 758 l 755 0 l 548 0 l 548 604 l 315 604 l 315 0 l 109 0 l 109 758 l 755 758 "},"Ǻ":{"x_min":-0.25,"x_max":903.25,"ha":903,"o":"m 622 991 q 614 936 622 961 q 590 891 605 911 l 903 0 l 690 0 l 619 225 l 282 225 l 212 0 l 0 0 l 311 891 q 282 990 282 931 q 294 1058 282 1028 q 328 1108 306 1088 q 381 1140 350 1129 q 450 1152 413 1152 q 517 1140 486 1152 q 572 1108 548 1129 q 609 1058 595 1088 q 622 991 622 1029 m 574 400 l 510 596 q 498 631 506 606 q 480 687 489 657 q 463 747 471 717 q 451 798 455 777 q 444 767 449 785 q 434 728 440 748 q 422 687 428 708 q 411 648 416 666 q 401 616 405 630 q 394 596 396 602 l 331 400 l 574 400 m 368 1189 l 368 1199 q 398 1229 382 1213 q 431 1263 415 1246 q 461 1298 447 1281 q 486 1331 475 1316 l 718 1331 l 718 1322 q 681 1292 707 1310 q 624 1255 656 1275 q 561 1218 593 1236 q 505 1189 529 1201 l 368 1189 m 518 990 q 500 1038 518 1020 q 452 1055 481 1055 q 405 1038 424 1055 q 386 990 386 1020 q 401 943 386 961 q 445 925 415 926 l 458 925 q 501 943 484 926 q 518 990 518 961 "},"K":{"x_min":125,"x_max":880.25,"ha":880,"o":"m 880 0 l 641 0 l 413 412 l 335 354 l 335 0 l 125 0 l 125 992 l 335 992 l 335 514 l 417 654 l 644 992 l 877 992 l 561 544 l 880 0 "},"7":{"x_min":37,"x_max":721,"ha":765,"o":"m 140 0 l 493 815 l 37 815 l 37 990 l 721 990 l 721 859 l 359 0 l 140 0 "},"¨":{"x_min":168,"x_max":633,"ha":802,"o":"m 168 953 q 175 994 168 977 q 195 1022 182 1011 q 225 1039 208 1034 q 262 1045 242 1045 q 299 1039 282 1045 q 329 1022 316 1034 q 350 994 342 1011 q 358 953 358 977 q 350 913 358 930 q 329 885 342 896 q 299 868 316 873 q 262 863 282 863 q 225 868 242 863 q 195 885 208 873 q 175 913 182 896 q 168 953 168 930 m 441 953 q 448 994 441 977 q 468 1022 455 1011 q 499 1039 481 1034 q 537 1045 516 1045 q 573 1039 556 1045 q 604 1022 590 1034 q 625 994 617 1011 q 633 953 633 977 q 625 913 633 930 q 604 885 617 896 q 573 868 590 873 q 537 863 556 863 q 468 885 496 863 q 441 953 441 907 "},"Y":{"x_min":-0.25,"x_max":812.25,"ha":811,"o":"m 406 583 l 585 992 l 812 992 l 511 385 l 511 0 l 301 0 l 301 379 l 0 992 l 227 992 l 406 583 "},"E":{"x_min":125,"x_max":696,"ha":778,"o":"m 696 0 l 125 0 l 125 992 l 696 992 l 696 817 l 335 817 l 335 602 l 670 602 l 670 427 l 335 427 l 335 174 l 696 174 l 696 0 "},"Ô":{"x_min":81,"x_max":970,"ha":1050,"o":"m 970 496 q 943 287 970 382 q 861 126 916 193 q 722 22 806 59 q 525 -14 639 -14 q 327 22 411 -14 q 189 126 243 59 q 107 288 134 193 q 81 498 81 382 q 107 707 81 613 q 189 867 134 801 q 328 970 244 934 q 526 1007 411 1007 q 723 970 640 1007 q 861 867 807 934 q 943 706 916 800 q 970 496 970 612 m 297 496 q 310 355 297 417 q 352 250 324 293 q 423 184 380 207 q 525 160 466 160 q 629 184 585 160 q 699 250 672 207 q 740 355 727 293 q 753 496 753 417 q 740 636 753 574 q 699 742 727 698 q 629 808 672 785 q 526 832 586 832 q 424 808 467 832 q 352 742 380 785 q 310 636 324 698 q 297 496 297 574 m 662 1071 q 590 1123 627 1093 q 517 1189 552 1152 q 445 1123 480 1152 q 375 1071 410 1093 l 238 1071 l 238 1089 q 277 1134 255 1108 q 320 1187 298 1160 q 362 1242 342 1215 q 398 1293 383 1269 l 639 1293 q 674 1242 654 1269 q 716 1187 694 1215 q 760 1134 738 1160 q 800 1089 783 1108 l 800 1071 l 662 1071 "},"Є":{"x_min":81,"x_max":836.296875,"ha":885,"o":"m 543 831 q 450 814 492 831 q 376 766 408 797 q 324 689 344 735 q 298 586 304 644 l 676 586 l 676 411 l 297 411 q 367 225 304 290 q 544 160 429 160 q 666 174 604 160 q 799 213 727 188 l 799 36 q 734 13 766 23 q 669 -1 702 4 q 601 -10 636 -7 q 526 -14 566 -14 q 327 22 411 -14 q 188 125 243 59 q 107 285 133 192 q 81 494 81 379 q 111 700 81 606 q 201 862 142 794 q 346 968 260 930 q 546 1006 433 1006 q 694 987 620 1006 q 836 936 768 968 l 767 765 q 655 811 711 791 q 543 831 598 831 "},"Ï":{"x_min":37,"x_max":502,"ha":541,"o":"m 495 0 l 44 0 l 44 119 l 165 174 l 165 817 l 44 872 l 44 992 l 495 992 l 495 872 l 375 817 l 375 174 l 495 119 l 495 0 m 37 1182 q 44 1223 37 1206 q 64 1251 51 1240 q 94 1268 77 1263 q 131 1274 111 1274 q 168 1268 151 1274 q 198 1251 185 1263 q 219 1223 211 1240 q 227 1182 227 1206 q 219 1142 227 1159 q 198 1114 211 1125 q 168 1097 185 1102 q 131 1092 151 1092 q 94 1097 111 1092 q 64 1114 77 1102 q 44 1142 51 1125 q 37 1182 37 1159 m 310 1182 q 317 1223 310 1206 q 337 1251 324 1240 q 368 1268 350 1263 q 406 1274 385 1274 q 442 1268 425 1274 q 473 1251 459 1263 q 494 1223 486 1240 q 502 1182 502 1206 q 494 1142 502 1159 q 473 1114 486 1125 q 442 1097 459 1102 q 406 1092 425 1092 q 337 1114 365 1092 q 310 1182 310 1136 "},"ġ":{"x_min":14,"x_max":735.140625,"ha":766,"o":"m 735 757 l 735 644 l 624 610 q 643 562 638 587 q 649 509 649 537 q 630 403 649 451 q 576 322 612 356 q 486 269 540 288 q 360 251 432 251 q 326 252 345 251 q 299 256 308 254 q 279 232 286 244 q 271 201 271 219 q 280 179 271 187 q 303 165 289 170 q 336 158 317 160 q 375 157 355 157 l 493 157 q 591 144 547 157 q 664 106 634 131 q 710 40 694 80 q 727 -54 727 0 q 701 -170 727 -118 q 624 -258 675 -222 q 497 -314 573 -295 q 322 -334 421 -334 q 187 -319 244 -334 q 91 -277 129 -304 q 33 -211 52 -249 q 14 -123 14 -172 q 28 -51 14 -81 q 66 0 42 -20 q 120 36 90 22 q 182 57 150 49 q 154 74 168 63 q 129 99 140 85 q 111 131 118 113 q 104 167 104 148 q 110 206 104 189 q 128 239 116 224 q 159 268 141 254 q 200 296 177 282 q 105 379 140 322 q 71 513 71 436 q 89 622 71 574 q 145 704 108 670 q 236 755 182 737 q 360 773 290 773 q 391 771 374 773 q 424 767 408 769 q 455 762 441 764 q 477 757 469 759 l 735 757 m 193 -107 q 200 -141 193 -125 q 224 -169 207 -157 q 266 -189 240 -181 q 331 -196 293 -196 q 490 -166 437 -196 q 543 -85 543 -135 q 510 -27 543 -42 q 408 -13 477 -13 l 312 -13 q 273 -17 294 -13 q 234 -33 252 -22 q 205 -62 217 -44 q 193 -107 193 -80 m 265 510 q 289 415 265 448 q 360 381 312 381 q 432 415 410 381 q 454 510 454 448 q 432 607 454 571 q 360 643 410 643 q 265 510 265 643 m 251 954 q 259 1003 251 984 q 283 1034 268 1022 q 319 1051 299 1046 q 363 1056 340 1056 q 406 1051 386 1056 q 442 1034 427 1046 q 466 1003 457 1022 q 476 954 476 984 q 466 906 476 926 q 442 875 457 886 q 406 858 427 863 q 363 853 386 853 q 319 858 340 853 q 283 875 299 863 q 259 906 268 886 q 251 954 251 926 "},"έ":{"x_min":53,"x_max":677,"ha":729,"o":"m 531 464 l 531 316 l 432 316 q 299 292 340 316 q 259 221 259 267 q 268 187 259 202 q 297 161 277 172 q 348 145 317 150 q 424 139 379 139 q 498 144 462 139 q 566 159 533 150 q 626 180 598 168 q 676 203 654 191 l 676 38 q 557 0 627 14 q 400 -14 488 -14 q 242 1 308 -14 q 134 46 177 17 q 72 115 92 74 q 53 206 53 156 q 66 278 53 248 q 104 330 79 308 q 163 366 128 352 q 240 387 198 379 l 240 394 q 129 457 165 411 q 93 571 93 502 q 117 664 93 626 q 184 726 142 702 q 283 762 227 751 q 403 773 340 773 q 477 768 440 773 q 550 757 515 764 q 617 739 585 749 q 677 716 649 728 l 620 566 q 527 603 576 586 q 421 619 478 619 q 365 615 390 619 q 324 603 341 612 q 297 581 306 594 q 287 547 287 567 q 325 483 287 502 q 444 464 363 464 l 531 464 m 323 860 q 335 906 329 880 q 346 960 341 932 q 357 1014 352 987 q 364 1064 361 1041 l 556 1064 l 556 1049 q 507 950 535 1003 q 443 842 479 897 l 323 842 l 323 860 "}," ":{"x_min":0,"x_max":0,"ha":463},"ϋ":{"x_min":97,"x_max":780,"ha":861,"o":"m 426 -12 q 266 15 330 -12 q 165 91 202 42 q 112 205 127 139 q 97 345 97 270 l 97 758 l 303 758 l 303 340 q 335 197 303 241 q 432 154 366 154 q 493 168 467 154 q 537 213 520 182 q 564 295 555 244 q 573 417 573 345 q 569 503 573 461 q 559 586 566 545 q 544 670 553 628 q 524 758 535 712 l 732 758 q 752 670 744 712 q 767 587 761 629 q 776 502 773 545 q 780 410 780 459 q 757 221 780 301 q 689 90 734 141 q 579 13 645 38 q 426 -12 513 -12 m 199 953 q 206 994 199 977 q 226 1022 213 1011 q 256 1039 239 1034 q 293 1045 273 1045 q 330 1039 313 1045 q 360 1022 347 1034 q 381 994 373 1011 q 389 953 389 977 q 381 913 389 930 q 360 885 373 896 q 330 868 347 873 q 293 863 313 863 q 256 868 273 863 q 226 885 239 873 q 206 913 213 896 q 199 953 199 930 m 472 953 q 479 994 472 977 q 499 1022 486 1011 q 530 1039 512 1034 q 568 1045 547 1045 q 604 1039 587 1045 q 635 1022 621 1034 q 656 994 648 1011 q 664 953 664 977 q 656 913 664 930 q 635 885 648 896 q 604 868 621 873 q 568 863 587 863 q 499 885 527 863 q 472 953 472 907 "},"й":{"x_min":109,"x_max":849,"ha":958,"o":"m 303 758 l 303 463 q 301 401 303 440 q 296 324 299 362 q 288 231 292 280 l 606 758 l 849 758 l 849 0 l 654 0 l 654 296 q 656 364 654 325 q 661 438 659 402 q 668 524 664 480 l 351 0 l 109 0 l 109 758 l 303 758 m 806 1085 q 781 985 800 1030 q 722 909 761 941 q 622 859 684 877 q 471 842 561 842 q 319 858 379 842 q 221 907 258 875 q 168 983 185 939 q 148 1085 152 1028 l 334 1085 q 347 1020 337 1045 q 373 981 356 995 q 415 961 389 967 q 477 955 441 955 q 531 962 506 955 q 574 983 556 968 q 603 1023 592 998 q 619 1085 615 1048 l 806 1085 "},"b":{"x_min":109,"x_max":775,"ha":844,"o":"m 512 773 q 619 747 571 773 q 701 673 667 722 q 755 550 736 623 q 775 380 775 476 q 755 209 775 282 q 701 85 736 135 q 616 11 665 36 q 507 -14 567 -14 q 440 -5 469 -14 q 387 15 410 2 q 347 46 364 29 q 315 82 330 64 l 301 82 l 267 0 l 109 0 l 109 1055 l 315 1055 l 315 809 q 314 761 315 787 q 311 712 313 734 q 307 659 309 686 l 315 659 q 348 704 330 683 q 390 739 366 724 q 445 764 414 755 q 512 773 475 773 m 443 606 q 384 594 408 606 q 345 556 360 581 q 323 492 330 531 q 315 403 317 454 l 315 380 q 322 282 315 325 q 343 211 328 239 q 383 167 358 182 q 444 152 407 152 q 534 211 505 152 q 563 382 563 269 q 534 550 563 494 q 443 606 505 606 "},"ύ":{"x_min":97,"x_max":780,"ha":861,"o":"m 426 -12 q 266 15 330 -12 q 165 91 202 42 q 112 205 127 139 q 97 345 97 270 l 97 758 l 303 758 l 303 340 q 335 197 303 241 q 432 154 366 154 q 493 168 467 154 q 537 213 520 182 q 564 295 555 244 q 573 417 573 345 q 569 503 573 461 q 559 586 566 545 q 544 670 553 628 q 524 758 535 712 l 732 758 q 752 670 744 712 q 767 587 761 629 q 776 502 773 545 q 780 410 780 459 q 757 221 780 301 q 689 90 734 141 q 579 13 645 38 q 426 -12 513 -12 m 354 860 q 366 906 360 880 q 377 960 372 932 q 388 1014 383 987 q 395 1064 392 1041 l 587 1064 l 587 1049 q 538 950 566 1003 q 474 842 510 897 l 354 842 l 354 860 "},"ﬂ":{"x_min":28,"x_max":853.859375,"ha":961,"o":"m 503 604 l 348 604 l 348 0 l 142 0 l 142 604 l 28 604 l 28 703 l 142 758 l 142 813 q 159 934 142 886 q 209 1010 177 982 q 288 1051 242 1039 q 392 1063 334 1063 q 497 1053 454 1063 q 570 1030 540 1043 l 521 877 q 477 890 500 884 q 422 896 454 896 q 365 871 382 896 q 348 804 348 845 l 348 758 l 503 758 l 503 604 m 853 0 l 647 0 l 647 1055 l 853 1055 l 853 0 "},"ф":{"x_min":69,"x_max":1034,"ha":1103,"o":"m 651 762 q 815 722 744 753 q 935 641 887 691 q 1009 525 984 591 q 1034 379 1034 458 q 1010 232 1034 299 q 938 115 986 165 q 818 34 890 66 q 651 -5 747 3 l 651 -334 l 457 -334 l 457 -5 q 291 35 364 3 q 170 116 219 66 q 94 233 120 167 q 69 379 69 299 q 92 527 69 460 q 163 645 115 595 q 284 725 211 694 q 457 762 357 755 l 457 1055 l 651 1055 l 651 762 m 280 378 q 292 292 280 331 q 327 222 304 252 q 382 173 349 192 q 457 148 415 154 l 457 608 q 383 582 415 602 q 327 532 350 562 q 292 463 305 502 q 280 378 280 424 m 822 378 q 810 463 822 424 q 776 532 798 502 q 722 580 754 562 q 651 606 691 599 l 651 148 q 724 173 692 154 q 777 222 755 192 q 810 292 799 252 q 822 378 822 331 "},"Ŋ":{"x_min":113,"x_max":950,"ha":1063,"o":"m 634 -292 q 557 -287 590 -292 q 501 -277 524 -283 l 501 -103 q 553 -112 526 -108 q 614 -117 581 -117 q 670 -111 643 -117 q 719 -92 697 -106 q 756 -55 741 -78 q 775 2 771 -32 l 293 750 l 287 750 q 294 646 291 698 q 298 554 296 602 q 300 466 300 505 l 300 0 l 113 0 l 113 992 l 378 992 l 768 387 l 772 387 q 768 489 770 439 q 766 534 767 511 q 764 579 765 556 q 763 623 763 602 q 762 661 762 644 l 762 992 l 950 992 l 950 0 q 926 -130 950 -75 q 862 -221 903 -186 q 763 -274 821 -257 q 634 -292 705 -292 "},"Ũ":{"x_min":118,"x_max":876,"ha":994,"o":"m 876 992 l 876 349 q 852 205 876 272 q 781 90 829 139 q 661 13 733 41 q 492 -14 589 -14 q 331 12 401 -14 q 213 86 261 38 q 142 202 166 134 q 118 352 118 269 l 118 992 l 328 992 l 328 367 q 339 272 328 311 q 371 208 349 233 q 424 172 392 184 q 498 160 455 160 q 626 212 586 160 q 665 368 665 264 l 665 992 l 876 992 m 382 1135 q 348 1119 361 1135 q 328 1069 336 1103 l 227 1069 q 244 1163 231 1123 q 280 1228 258 1202 q 332 1266 302 1253 q 397 1279 361 1279 q 451 1269 425 1279 q 504 1246 478 1259 q 555 1224 530 1234 q 605 1214 581 1214 q 638 1230 626 1214 q 659 1280 651 1246 l 761 1280 q 743 1187 756 1226 q 706 1122 729 1148 q 654 1083 684 1096 q 590 1071 625 1071 q 536 1081 563 1071 q 483 1103 508 1091 q 432 1125 457 1115 q 382 1135 406 1135 "},"Щ":{"x_min":125,"x_max":1464,"ha":1492,"o":"m 825 174 l 1106 174 l 1106 992 l 1317 992 l 1317 166 l 1464 147 l 1464 -289 l 1258 -289 l 1258 0 l 125 0 l 125 992 l 335 992 l 335 174 l 615 174 l 615 992 l 825 992 l 825 174 "},"L":{"x_min":125,"x_max":696,"ha":743,"o":"m 125 0 l 125 992 l 335 992 l 335 174 l 696 174 l 696 0 l 125 0 "},"ď":{"x_min":69,"x_max":1031,"ha":844,"o":"m 329 -14 q 224 11 271 -14 q 141 85 176 36 q 88 208 107 134 q 69 377 69 281 q 88 549 69 475 q 142 672 107 622 q 227 747 178 722 q 335 773 276 773 q 402 764 372 773 q 457 741 433 756 q 500 706 481 726 q 534 663 520 687 l 541 663 q 534 716 537 690 q 528 765 530 739 q 526 813 526 791 l 526 1055 l 735 1055 l 735 0 l 575 0 l 534 99 l 526 99 q 493 54 512 75 q 451 18 475 34 q 397 -5 427 3 q 329 -14 367 -14 m 406 152 q 467 164 442 152 q 508 202 492 177 q 531 266 524 228 q 540 355 539 304 l 540 378 q 533 476 540 433 q 511 547 526 519 q 470 591 496 576 q 404 606 444 606 q 310 547 340 606 q 280 376 280 489 q 310 208 280 264 q 406 152 341 152 m 798 851 q 810 898 804 872 q 821 951 816 924 q 832 1006 827 979 q 839 1056 837 1033 l 1031 1056 l 1031 1042 q 982 942 1010 996 q 918 834 954 888 l 798 834 l 798 851 "},"Ο":{"x_min":81,"x_max":970,"ha":1050,"o":"m 970 496 q 943 287 970 382 q 861 126 916 193 q 722 22 806 59 q 525 -14 639 -14 q 327 22 411 -14 q 189 126 243 59 q 107 288 134 193 q 81 498 81 382 q 107 707 81 613 q 189 867 134 801 q 328 970 244 934 q 526 1007 411 1007 q 723 970 640 1007 q 861 867 807 934 q 943 706 916 800 q 970 496 970 612 m 297 496 q 310 355 297 417 q 352 250 324 293 q 423 184 380 207 q 525 160 466 160 q 629 184 585 160 q 699 250 672 207 q 740 355 727 293 q 753 496 753 417 q 740 636 753 574 q 699 742 727 698 q 629 808 672 785 q 526 832 586 832 q 424 808 467 832 q 352 742 380 785 q 310 636 324 698 q 297 496 297 574 "},"Ĭ":{"x_min":22,"x_max":514,"ha":541,"o":"m 495 0 l 44 0 l 44 119 l 165 174 l 165 817 l 44 872 l 44 992 l 495 992 l 495 872 l 375 817 l 375 174 l 495 119 l 495 0 m 514 1300 q 492 1207 510 1249 q 444 1135 475 1165 q 368 1087 412 1104 q 265 1071 323 1071 q 161 1087 205 1071 q 86 1133 116 1103 q 40 1205 56 1163 q 22 1300 24 1247 l 137 1300 q 149 1253 140 1270 q 175 1227 159 1236 q 214 1216 191 1218 q 266 1214 237 1214 q 313 1217 291 1214 q 352 1229 335 1220 q 381 1255 370 1238 q 395 1300 393 1272 l 514 1300 "},"ŧ":{"x_min":32,"x_max":530,"ha":575,"o":"m 416 152 q 474 158 446 152 q 530 175 501 165 l 530 20 q 457 -4 500 5 q 364 -14 414 -14 q 271 -2 314 -14 q 198 37 229 8 q 148 114 166 66 q 131 234 131 162 l 131 334 l 44 334 l 44 472 l 131 472 l 131 604 l 32 604 l 32 692 l 145 759 l 205 924 l 337 924 l 337 758 l 521 758 l 521 604 l 337 604 l 337 472 l 498 472 l 498 334 l 337 334 l 337 236 q 359 172 337 193 q 416 152 381 152 "},"À":{"x_min":-0.25,"x_max":903.25,"ha":903,"o":"m 690 0 l 623 238 l 280 238 l 212 0 l 0 0 l 322 996 l 579 996 l 903 0 l 690 0 m 574 413 l 510 629 q 498 669 506 642 q 480 731 489 697 q 463 798 471 764 q 451 856 455 832 q 444 821 449 841 q 434 778 440 800 q 422 732 428 755 q 411 688 416 709 q 401 652 405 668 q 394 629 396 637 l 331 413 l 574 413 m 429 1071 q 374 1118 406 1089 q 310 1175 341 1146 q 253 1233 279 1205 q 217 1278 227 1260 l 217 1293 l 448 1293 q 474 1242 459 1269 q 504 1187 488 1215 q 536 1134 520 1160 q 567 1089 552 1108 l 567 1071 l 429 1071 "},"Ϊ":{"x_min":37,"x_max":502,"ha":541,"o":"m 495 0 l 44 0 l 44 119 l 165 174 l 165 817 l 44 872 l 44 992 l 495 992 l 495 872 l 375 817 l 375 174 l 495 119 l 495 0 m 37 1182 q 44 1223 37 1206 q 64 1251 51 1240 q 94 1268 77 1263 q 131 1274 111 1274 q 168 1268 151 1274 q 198 1251 185 1263 q 219 1223 211 1240 q 227 1182 227 1206 q 219 1142 227 1159 q 198 1114 211 1125 q 168 1097 185 1102 q 131 1092 151 1092 q 94 1097 111 1092 q 64 1114 77 1102 q 44 1142 51 1125 q 37 1182 37 1159 m 310 1182 q 317 1223 310 1206 q 337 1251 324 1240 q 368 1268 350 1263 q 406 1274 385 1274 q 442 1268 425 1274 q 473 1251 459 1263 q 494 1223 486 1240 q 502 1182 502 1206 q 494 1142 502 1159 q 473 1114 486 1125 q 442 1097 459 1102 q 406 1092 425 1092 q 337 1114 365 1092 q 310 1182 310 1136 "},"ḁ":{"x_min":58,"x_max":694,"ha":798,"o":"m 548 0 l 508 104 l 502 104 q 457 51 479 73 q 408 14 434 28 q 349 -7 382 0 q 272 -14 316 -14 q 187 0 226 -14 q 119 44 148 15 q 74 119 90 74 q 58 226 58 164 q 135 404 58 347 q 366 467 212 461 l 487 472 l 487 529 q 460 598 487 575 q 384 620 432 620 q 289 606 335 620 q 196 568 242 592 l 129 705 q 255 755 186 737 q 400 774 324 774 q 618 707 542 774 q 694 505 694 641 l 694 0 l 548 0 m 487 351 l 418 348 q 348 337 377 347 q 302 312 319 328 q 277 274 285 296 q 269 226 269 253 q 292 159 269 178 q 353 139 315 139 q 406 149 381 139 q 448 177 430 158 q 476 225 466 197 q 487 289 487 253 l 487 351 m 563 -244 q 549 -312 563 -282 q 513 -363 536 -342 q 458 -395 489 -384 q 390 -407 427 -407 q 322 -395 353 -407 q 269 -363 291 -384 q 235 -313 247 -343 q 223 -245 223 -283 q 235 -178 223 -208 q 269 -128 247 -148 q 322 -96 291 -107 q 390 -85 353 -85 q 458 -96 426 -85 q 512 -128 489 -107 q 549 -178 535 -148 q 563 -244 563 -207 m 457 -245 q 439 -197 457 -215 q 393 -180 421 -180 q 346 -197 364 -180 q 328 -245 328 -215 q 344 -293 328 -276 q 393 -311 360 -311 q 439 -293 421 -311 q 457 -245 457 -276 "},"½":{"x_min":32,"x_max":1164.28125,"ha":1224,"o":"m 929 992 l 378 0 l 216 0 l 767 992 l 929 992 m 365 397 l 204 397 l 204 700 q 204 734 204 713 q 205 776 204 755 q 207 814 206 797 q 209 840 208 832 q 198 828 205 835 q 185 813 192 820 q 171 799 178 805 q 158 787 164 792 l 105 746 l 32 832 l 235 992 l 365 992 l 365 397 m 1164 0 l 725 0 l 725 111 l 877 260 q 930 313 909 290 q 963 354 951 335 q 981 388 976 372 q 986 422 986 404 q 970 462 986 448 q 926 476 953 476 q 869 462 899 476 q 803 418 839 449 l 719 521 q 818 584 763 560 q 947 609 873 609 q 1029 597 992 609 q 1092 564 1066 586 q 1133 511 1118 543 q 1148 438 1148 479 q 1139 379 1148 406 q 1112 323 1131 351 q 1065 265 1094 295 q 996 197 1037 234 l 925 132 l 1164 132 l 1164 0 "},"'":{"x_min":90,"x_max":279.21875,"ha":370,"o":"m 279 992 l 251 634 l 117 634 l 90 992 l 279 992 "},"ĳ":{"x_min":100.1875,"x_max":721.5,"ha":821,"o":"m 100 953 q 109 1002 100 983 q 133 1033 117 1021 q 169 1050 148 1045 q 212 1055 189 1055 q 256 1050 235 1055 q 291 1033 276 1045 q 316 1002 307 1021 q 325 953 325 983 q 316 905 325 925 q 291 874 307 885 q 256 857 276 862 q 212 852 235 852 q 169 857 189 852 q 133 874 148 862 q 109 905 117 885 q 100 953 100 925 m 315 0 l 109 0 l 109 758 l 315 758 l 315 0 m 465 -334 q 398 -329 433 -334 q 341 -317 364 -324 l 341 -154 q 380 -164 362 -161 q 421 -167 398 -167 q 453 -162 438 -167 q 480 -144 469 -157 q 498 -109 491 -131 q 505 -52 505 -87 l 505 758 l 712 758 l 712 -82 q 698 -180 712 -134 q 656 -260 685 -226 q 579 -314 626 -294 q 465 -334 532 -334 m 496 953 q 505 1002 496 983 q 529 1033 513 1021 q 565 1050 544 1045 q 608 1055 585 1055 q 652 1050 631 1055 q 687 1033 672 1045 q 712 1002 703 1021 q 721 953 721 983 q 712 905 721 925 q 687 874 703 885 q 652 857 672 862 q 608 852 631 852 q 565 857 585 852 q 529 874 544 862 q 505 905 513 885 q 496 953 496 925 "},"Р":{"x_min":125,"x_max":769,"ha":831,"o":"m 335 526 l 377 526 q 513 561 467 526 q 558 674 558 596 q 517 782 558 747 q 389 817 476 817 l 335 817 l 335 526 m 769 682 q 749 557 769 616 q 684 451 729 497 q 565 379 639 406 q 383 352 492 352 l 335 352 l 335 0 l 125 0 l 125 992 l 400 992 q 565 970 496 992 q 680 909 635 949 q 747 812 725 869 q 769 682 769 754 "},"˛":{"x_min":7,"x_max":282,"ha":286,"o":"m 150 -154 q 165 -196 150 -182 q 204 -209 180 -209 q 247 -205 225 -209 q 282 -197 268 -201 l 282 -318 q 235 -329 260 -324 q 176 -334 210 -334 q 105 -322 137 -334 q 52 -290 74 -310 q 18 -241 30 -269 q 7 -177 7 -212 q 16 -124 7 -148 q 42 -78 25 -99 q 81 -38 59 -57 q 129 0 103 -19 l 250 0 q 176 -81 203 -44 q 150 -154 150 -118 "},"Ć":{"x_min":81,"x_max":836.296875,"ha":885,"o":"m 546 831 q 439 807 485 831 q 361 740 392 784 q 313 633 329 696 q 297 492 297 571 q 311 351 297 413 q 356 247 326 289 q 433 183 386 205 q 546 160 481 160 q 667 174 606 160 q 799 213 727 188 l 799 36 q 734 13 766 23 q 669 -1 702 4 q 601 -10 636 -7 q 526 -14 566 -14 q 327 22 411 -14 q 188 125 243 59 q 107 285 133 192 q 81 494 81 379 q 111 700 81 606 q 201 862 142 794 q 346 968 260 930 q 546 1006 433 1006 q 694 987 620 1006 q 836 936 768 968 l 768 765 q 656 811 712 791 q 546 831 600 831 m 434 1071 l 434 1089 q 464 1134 448 1108 q 496 1187 480 1160 q 526 1242 512 1215 q 552 1293 541 1269 l 784 1293 l 784 1278 q 762 1250 776 1266 q 729 1214 748 1233 q 690 1175 711 1195 q 648 1136 669 1155 q 606 1100 626 1117 q 571 1071 587 1083 l 434 1071 "},"Т":{"x_min":28,"x_max":735,"ha":762,"o":"m 487 0 l 277 0 l 277 817 l 28 817 l 28 992 l 735 992 l 735 817 l 487 817 l 487 0 "},"£":{"x_min":56,"x_max":739,"ha":765,"o":"m 461 1006 q 596 989 535 1006 q 711 950 656 973 l 649 794 q 563 824 602 813 q 482 836 524 836 q 413 810 438 836 q 388 719 388 784 l 388 589 l 608 589 l 608 441 l 388 441 l 388 344 q 379 279 388 306 q 355 231 369 251 q 322 198 340 211 q 285 174 304 184 l 739 174 l 739 0 l 56 0 l 56 166 q 107 193 84 179 q 145 227 129 207 q 169 275 161 247 q 178 342 178 303 l 178 441 l 57 441 l 57 589 l 178 589 l 178 721 q 199 852 178 798 q 258 940 220 906 q 347 990 295 974 q 461 1006 399 1006 "},"ů":{"x_min":104,"x_max":762,"ha":871,"o":"m 603 0 l 576 96 l 565 96 q 524 46 548 67 q 473 12 501 26 q 414 -7 445 -1 q 350 -14 383 -14 q 249 1 295 -14 q 171 51 204 17 q 121 137 139 85 q 104 263 104 190 l 104 758 l 310 758 l 310 314 q 335 191 310 232 q 414 150 360 150 q 482 167 455 150 q 525 215 509 183 q 548 293 541 247 q 555 401 555 340 l 555 758 l 762 758 l 762 0 l 603 0 m 604 1002 q 590 934 604 964 q 554 883 577 904 q 499 851 530 862 q 431 840 468 840 q 363 851 394 840 q 310 883 332 862 q 276 933 288 903 q 264 1001 264 964 q 276 1068 264 1038 q 310 1118 288 1098 q 363 1150 332 1139 q 431 1162 394 1162 q 499 1150 467 1162 q 553 1118 530 1139 q 590 1068 576 1098 q 604 1002 604 1039 m 498 1001 q 480 1049 498 1031 q 434 1066 462 1066 q 387 1049 405 1066 q 369 1001 369 1031 q 385 953 369 970 q 434 935 401 935 q 480 953 462 935 q 498 1001 498 970 "},"Ō":{"x_min":81,"x_max":970,"ha":1050,"o":"m 970 496 q 943 287 970 382 q 861 126 916 193 q 722 22 806 59 q 525 -14 639 -14 q 327 22 411 -14 q 189 126 243 59 q 107 288 134 193 q 81 498 81 382 q 107 707 81 613 q 189 867 134 801 q 328 970 244 934 q 526 1007 411 1007 q 723 970 640 1007 q 861 867 807 934 q 943 706 916 800 q 970 496 970 612 m 297 496 q 310 355 297 417 q 352 250 324 293 q 423 184 380 207 q 525 160 466 160 q 629 184 585 160 q 699 250 672 207 q 740 355 727 293 q 753 496 753 417 q 740 636 753 574 q 699 742 727 698 q 629 808 672 785 q 526 832 586 832 q 424 808 467 832 q 352 742 380 785 q 310 636 324 698 q 297 496 297 574 m 316 1214 l 734 1214 l 734 1071 l 316 1071 l 316 1214 "},"а":{"x_min":58,"x_max":694,"ha":798,"o":"m 548 0 l 508 104 l 502 104 q 457 51 479 73 q 408 14 434 28 q 349 -7 382 0 q 272 -14 316 -14 q 187 0 226 -14 q 119 44 148 15 q 74 119 90 74 q 58 226 58 164 q 135 404 58 347 q 366 467 212 461 l 487 472 l 487 529 q 460 598 487 575 q 384 620 432 620 q 289 606 335 620 q 196 568 242 592 l 129 705 q 255 755 186 737 q 400 774 324 774 q 618 707 542 774 q 694 505 694 641 l 694 0 l 548 0 m 487 351 l 418 348 q 348 337 377 347 q 302 312 319 328 q 277 274 285 296 q 269 226 269 253 q 292 159 269 178 q 353 139 315 139 q 406 149 381 139 q 448 177 430 158 q 476 225 466 197 q 487 289 487 253 l 487 351 "},"Ğ":{"x_min":81,"x_max":895,"ha":1006,"o":"m 502 557 l 895 557 l 895 42 q 815 18 855 29 q 732 1 775 8 q 642 -9 689 -5 q 542 -14 595 -14 q 345 18 431 -14 q 200 116 259 51 q 111 276 142 181 q 81 497 81 372 q 114 708 81 613 q 214 868 148 802 q 377 970 281 934 q 599 1006 474 1006 q 754 989 678 1006 q 893 944 830 972 l 823 776 q 719 815 777 799 q 597 831 661 831 q 473 806 528 831 q 378 738 418 782 q 318 632 339 694 q 297 492 297 569 q 311 358 297 419 q 357 253 326 298 q 438 185 388 209 q 555 160 487 160 q 631 165 600 160 q 689 174 662 169 l 689 382 l 502 382 l 502 557 m 782 1300 q 760 1207 778 1249 q 712 1135 743 1165 q 636 1087 680 1104 q 533 1071 591 1071 q 429 1087 473 1071 q 354 1133 384 1103 q 308 1205 324 1163 q 290 1300 292 1247 l 405 1300 q 417 1253 408 1270 q 443 1227 427 1236 q 482 1216 459 1218 q 534 1214 505 1214 q 581 1217 559 1214 q 620 1229 603 1220 q 649 1255 638 1238 q 663 1300 661 1272 l 782 1300 "},"v":{"x_min":-0.25,"x_max":749.25,"ha":749,"o":"m 268 0 l 0 758 l 216 758 l 341 326 q 361 245 353 287 q 372 170 370 204 l 376 170 q 387 247 378 206 q 407 326 395 287 l 532 758 l 749 758 l 480 0 l 268 0 "},"Ї":{"x_min":37,"x_max":502,"ha":541,"o":"m 495 0 l 44 0 l 44 119 l 165 174 l 165 817 l 44 872 l 44 992 l 495 992 l 495 872 l 375 817 l 375 174 l 495 119 l 495 0 m 37 1182 q 44 1223 37 1206 q 64 1251 51 1240 q 94 1268 77 1263 q 131 1274 111 1274 q 168 1268 151 1274 q 198 1251 185 1263 q 219 1223 211 1240 q 227 1182 227 1206 q 219 1142 227 1159 q 198 1114 211 1125 q 168 1097 185 1102 q 131 1092 151 1092 q 94 1097 111 1092 q 64 1114 77 1102 q 44 1142 51 1125 q 37 1182 37 1159 m 310 1182 q 317 1223 310 1206 q 337 1251 324 1240 q 368 1268 350 1263 q 406 1274 385 1274 q 442 1268 425 1274 q 473 1251 459 1263 q 494 1223 486 1240 q 502 1182 502 1206 q 494 1142 502 1159 q 473 1114 486 1125 q 442 1097 459 1102 q 406 1092 425 1092 q 337 1114 365 1092 q 310 1182 310 1136 "},"û":{"x_min":104,"x_max":762,"ha":871,"o":"m 603 0 l 576 96 l 565 96 q 524 46 548 67 q 473 12 501 26 q 414 -7 445 -1 q 350 -14 383 -14 q 249 1 295 -14 q 171 51 204 17 q 121 137 139 85 q 104 263 104 190 l 104 758 l 310 758 l 310 314 q 335 191 310 232 q 414 150 360 150 q 482 167 455 150 q 525 215 509 183 q 548 293 541 247 q 555 401 555 340 l 555 758 l 762 758 l 762 0 l 603 0 m 571 842 q 499 894 536 864 q 426 960 461 923 q 354 894 389 923 q 284 842 319 864 l 147 842 l 147 860 q 186 905 164 879 q 229 958 207 931 q 271 1013 251 986 q 307 1064 292 1040 l 548 1064 q 583 1013 563 1040 q 625 958 603 986 q 669 905 647 931 q 709 860 692 879 l 709 842 l 571 842 "},"Ź":{"x_min":33,"x_max":716,"ha":749,"o":"m 716 0 l 33 0 l 33 137 l 453 817 l 45 817 l 45 992 l 703 992 l 703 855 l 283 174 l 716 174 l 716 0 m 264 1071 l 264 1089 q 294 1134 278 1108 q 326 1187 310 1160 q 356 1242 342 1215 q 382 1293 371 1269 l 614 1293 l 614 1278 q 592 1250 606 1266 q 559 1214 578 1233 q 520 1175 541 1195 q 478 1136 499 1155 q 436 1100 456 1117 q 401 1071 417 1083 l 264 1071 "},"ˉ":{"x_min":178,"x_max":596,"ha":774,"o":"m 178 985 l 596 985 l 596 842 l 178 842 l 178 985 "},"Ĺ":{"x_min":125,"x_max":696,"ha":743,"o":"m 125 0 l 125 992 l 335 992 l 335 174 l 696 174 l 696 0 l 125 0 m 182 1071 l 182 1089 q 212 1134 196 1108 q 244 1187 228 1160 q 274 1242 260 1215 q 300 1293 289 1269 l 532 1293 l 532 1278 q 510 1250 524 1266 q 477 1214 496 1233 q 438 1175 459 1195 q 396 1136 417 1155 q 354 1100 374 1117 q 319 1071 335 1083 l 182 1071 "},"₤":{"x_min":56,"x_max":739,"ha":765,"o":"m 461 1006 q 596 989 535 1006 q 711 950 656 973 l 649 794 q 563 824 602 813 q 483 836 525 836 q 414 810 439 836 q 389 720 389 784 l 389 644 l 597 644 l 597 523 l 389 523 l 389 447 l 597 447 l 597 326 l 388 326 q 376 269 386 293 q 352 227 367 245 q 321 197 338 210 q 287 176 304 185 l 739 176 l 739 0 l 56 0 l 56 168 q 104 192 83 179 q 142 223 126 205 q 166 266 157 242 q 178 326 175 291 l 57 326 l 57 447 l 178 447 l 178 523 l 57 523 l 57 644 l 178 644 l 178 722 q 199 852 178 798 q 258 940 220 906 q 347 990 295 974 q 461 1006 399 1006 "},"Č":{"x_min":81,"x_max":836.296875,"ha":885,"o":"m 546 831 q 439 807 485 831 q 361 740 392 784 q 313 633 329 696 q 297 492 297 571 q 311 351 297 413 q 356 247 326 289 q 433 183 386 205 q 546 160 481 160 q 667 174 606 160 q 799 213 727 188 l 799 36 q 734 13 766 23 q 669 -1 702 4 q 601 -10 636 -7 q 526 -14 566 -14 q 327 22 411 -14 q 188 125 243 59 q 107 285 133 192 q 81 494 81 379 q 111 700 81 606 q 201 862 142 794 q 346 968 260 930 q 546 1006 433 1006 q 694 987 620 1006 q 836 936 768 968 l 768 765 q 656 811 712 791 q 546 831 600 831 m 808 1274 q 768 1229 791 1255 q 724 1176 746 1203 q 682 1121 702 1148 q 647 1071 662 1094 l 406 1071 q 370 1121 391 1094 q 328 1176 350 1148 q 285 1229 306 1203 q 246 1274 263 1255 l 246 1293 l 383 1293 q 453 1240 418 1270 q 525 1174 488 1211 q 598 1240 560 1211 q 670 1293 635 1270 l 808 1293 l 808 1274 "},"x":{"x_min":6.75,"x_max":754.25,"ha":761,"o":"m 263 387 l 19 758 l 254 758 l 380 530 l 508 758 l 743 758 l 495 387 l 754 0 l 519 0 l 380 245 l 241 0 l 6 0 l 263 387 "},"è":{"x_min":69,"x_max":741,"ha":807,"o":"m 414 625 q 322 586 358 625 q 279 465 285 548 l 546 465 q 537 529 545 499 q 512 579 529 558 q 471 613 496 601 q 414 625 447 625 m 441 -14 q 291 9 359 -14 q 173 81 222 33 q 96 202 123 129 q 69 373 69 275 q 94 548 69 473 q 164 672 119 622 q 272 747 209 722 q 413 773 336 773 q 549 750 489 773 q 653 683 610 727 q 718 574 695 639 q 741 427 741 510 l 741 327 l 275 327 q 289 248 277 283 q 325 189 302 213 q 380 152 348 165 q 454 139 412 139 q 520 143 489 139 q 580 154 551 146 q 638 172 609 161 q 697 198 667 184 l 697 39 q 642 15 669 25 q 584 -1 614 5 q 518 -10 553 -7 q 441 -14 483 -14 m 392 842 q 337 889 369 860 q 273 946 304 917 q 216 1004 242 976 q 180 1049 190 1031 l 180 1064 l 411 1064 q 437 1013 422 1040 q 467 958 451 986 q 499 905 483 931 q 530 860 515 879 l 530 842 l 392 842 "},"Ń":{"x_min":125,"x_max":963,"ha":1088,"o":"m 963 0 l 697 0 l 305 750 l 299 750 q 306 646 303 698 q 310 554 308 602 q 312 466 312 505 l 312 0 l 125 0 l 125 992 l 389 992 l 781 248 l 785 248 q 780 350 783 300 q 778 395 779 372 q 777 440 777 417 q 776 484 776 463 q 775 522 775 505 l 775 992 l 963 992 l 963 0 m 417 1071 l 417 1089 q 447 1134 431 1108 q 479 1187 463 1160 q 509 1242 495 1215 q 535 1293 524 1269 l 767 1293 l 767 1278 q 745 1250 759 1266 q 712 1214 731 1233 q 673 1175 694 1195 q 631 1136 652 1155 q 589 1100 609 1117 q 554 1071 570 1083 l 417 1071 "},"ḿ":{"x_min":109,"x_max":1204,"ha":1308,"o":"m 759 0 l 553 0 l 553 442 q 528 565 553 524 q 452 606 504 606 q 386 590 412 606 q 344 542 360 574 q 322 463 329 510 q 315 356 315 416 l 315 0 l 109 0 l 109 758 l 267 758 l 294 661 l 306 661 q 345 711 322 690 q 395 746 368 732 q 452 766 422 760 q 514 773 483 773 q 646 746 592 773 q 730 661 701 719 l 747 661 q 786 711 763 690 q 837 746 809 732 q 896 766 865 760 q 958 773 927 773 q 1142 706 1080 773 q 1204 494 1204 640 l 1204 0 l 997 0 l 997 442 q 972 565 997 524 q 896 606 948 606 q 791 548 822 606 q 759 380 759 489 l 759 0 m 546 842 l 546 860 q 576 905 560 879 q 608 958 592 931 q 638 1013 624 986 q 664 1064 653 1040 l 896 1064 l 896 1049 q 874 1021 888 1037 q 841 985 860 1004 q 802 946 823 966 q 760 907 781 926 q 718 871 738 888 q 683 842 699 854 l 546 842 "},"μ":{"x_min":109,"x_max":766,"ha":875,"o":"m 315 315 q 341 193 315 234 q 421 152 366 152 q 486 168 460 152 q 529 216 513 184 q 552 295 545 248 q 559 401 559 341 l 559 758 l 766 758 l 766 0 l 607 0 l 578 102 l 570 102 q 511 15 547 44 q 425 -14 476 -14 q 358 1 388 -14 q 309 47 328 17 q 312 -10 310 18 q 314 -64 313 -35 q 315 -117 315 -92 l 315 -334 l 109 -334 l 109 758 l 315 758 l 315 315 "},".":{"x_min":79,"x_max":316,"ha":396,"o":"m 79 97 q 88 151 79 129 q 113 187 97 173 q 151 206 129 200 q 198 213 173 213 q 243 206 221 213 q 280 187 264 200 q 306 151 297 173 q 316 97 316 129 q 306 45 316 66 q 280 9 297 23 q 243 -11 264 -5 q 198 -18 221 -18 q 151 -11 173 -18 q 113 9 129 -5 q 88 45 97 23 q 79 97 79 66 "},"‘":{"x_min":16,"x_max":284,"ha":298,"o":"m 25 652 l 16 666 q 38 744 25 703 q 67 828 51 786 q 100 912 83 870 q 135 992 118 954 l 284 992 q 263 905 273 950 q 244 816 254 861 q 228 730 235 772 q 215 652 220 687 l 25 652 "},"π":{"x_min":17,"x_max":936,"ha":985,"o":"m 840 148 q 886 154 864 148 q 928 171 908 160 l 928 23 q 899 9 915 15 q 862 -2 882 2 q 821 -10 842 -7 q 778 -14 799 -14 q 691 -1 730 -14 q 625 38 652 11 q 584 108 599 65 q 570 209 570 150 l 570 604 l 381 604 l 381 0 l 175 0 l 175 604 l 17 604 l 17 690 l 137 758 l 936 758 l 936 604 l 776 604 l 776 216 q 795 164 776 181 q 840 148 813 148 "},"9":{"x_min":43,"x_max":715,"ha":765,"o":"m 715 568 q 707 425 715 496 q 679 290 699 355 q 625 170 659 226 q 538 73 590 114 q 412 9 485 32 q 239 -14 338 -14 q 208 -13 225 -14 q 174 -11 191 -12 q 140 -8 156 -10 q 112 -4 124 -7 l 112 163 q 165 152 136 156 q 224 148 194 148 q 373 171 315 148 q 467 235 432 194 q 516 333 501 276 q 533 459 530 390 l 525 459 q 492 413 511 434 q 448 377 473 392 q 390 352 422 361 q 318 344 357 344 q 202 365 254 344 q 116 426 151 386 q 61 524 80 466 q 43 658 43 582 q 65 802 43 739 q 130 911 88 866 q 232 979 172 955 q 366 1003 292 1003 q 503 976 439 1003 q 614 897 567 950 q 687 761 660 843 q 715 568 715 679 m 373 833 q 324 823 347 833 q 286 792 302 813 q 262 738 270 770 q 253 661 253 705 q 282 548 253 590 q 371 506 311 506 q 425 518 401 506 q 468 550 450 530 q 495 594 485 569 q 504 643 504 618 q 496 711 504 677 q 471 772 488 745 q 430 816 455 799 q 373 833 406 833 "},"l":{"x_min":109,"x_max":315.859375,"ha":424,"o":"m 315 0 l 109 0 l 109 1055 l 315 1055 l 315 0 "},"Ъ":{"x_min":28,"x_max":920,"ha":982,"o":"m 920 310 q 897 179 920 237 q 829 81 875 121 q 711 21 782 42 q 542 0 640 0 l 277 0 l 277 817 l 28 817 l 28 992 l 487 992 l 487 613 l 560 613 q 720 590 653 613 q 832 527 788 568 q 898 432 877 487 q 920 310 920 376 m 487 174 l 544 174 q 613 182 583 174 q 665 205 644 189 q 698 247 687 221 q 709 310 709 273 q 697 374 709 349 q 661 413 685 399 q 605 432 638 427 q 530 438 572 438 l 487 438 l 487 174 "}," ":{"x_min":0,"x_max":0,"ha":139},"Ś":{"x_min":63.46875,"x_max":668,"ha":728,"o":"m 668 275 q 645 155 668 208 q 578 64 622 102 q 471 6 535 26 q 326 -14 408 -14 q 187 0 254 -14 q 63 45 120 15 l 63 241 q 129 211 96 225 q 196 185 162 197 q 265 167 231 174 q 333 160 299 160 q 392 168 368 160 q 432 190 417 176 q 455 223 448 203 q 462 264 462 242 q 450 314 462 292 q 417 354 438 335 q 365 390 396 372 q 298 427 335 408 q 228 467 267 444 q 155 524 189 490 q 98 607 121 558 q 75 723 75 655 q 97 842 75 790 q 159 931 119 895 q 258 987 200 968 q 388 1006 316 1006 q 458 1001 424 1006 q 526 987 492 996 q 594 965 560 978 q 663 936 627 953 l 596 772 q 539 797 565 786 q 487 816 512 808 q 438 827 462 823 q 389 831 414 831 q 308 802 336 831 q 280 727 280 774 q 288 683 280 702 q 316 646 297 663 q 364 612 334 630 q 435 572 393 594 q 529 517 486 545 q 603 454 572 488 q 651 376 634 420 q 668 275 668 333 m 278 1071 l 278 1089 q 308 1134 292 1108 q 340 1187 324 1160 q 370 1242 356 1215 q 396 1293 385 1269 l 628 1293 l 628 1278 q 606 1250 620 1266 q 573 1214 592 1233 q 534 1175 555 1195 q 492 1136 513 1155 q 450 1100 470 1117 q 415 1071 431 1083 l 278 1071 "},"Ü":{"x_min":118,"x_max":876,"ha":994,"o":"m 876 992 l 876 349 q 852 205 876 272 q 781 90 829 139 q 661 13 733 41 q 492 -14 589 -14 q 331 12 401 -14 q 213 86 261 38 q 142 202 166 134 q 118 352 118 269 l 118 992 l 328 992 l 328 367 q 339 272 328 311 q 371 208 349 233 q 424 172 392 184 q 498 160 455 160 q 626 212 586 160 q 665 368 665 264 l 665 992 l 876 992 m 267 1182 q 274 1223 267 1206 q 294 1251 281 1240 q 324 1268 307 1263 q 361 1274 341 1274 q 398 1268 381 1274 q 428 1251 415 1263 q 449 1223 441 1240 q 457 1182 457 1206 q 449 1142 457 1159 q 428 1114 441 1125 q 398 1097 415 1102 q 361 1092 381 1092 q 324 1097 341 1092 q 294 1114 307 1102 q 274 1142 281 1125 q 267 1182 267 1159 m 540 1182 q 547 1223 540 1206 q 567 1251 554 1240 q 598 1268 580 1263 q 636 1274 615 1274 q 672 1268 655 1274 q 703 1251 689 1263 q 724 1223 716 1240 q 732 1182 732 1206 q 724 1142 732 1159 q 703 1114 716 1125 q 672 1097 689 1102 q 636 1092 655 1092 q 567 1114 595 1092 q 540 1182 540 1136 "},"à":{"x_min":58,"x_max":694,"ha":798,"o":"m 548 0 l 508 104 l 502 104 q 457 51 479 73 q 408 14 434 28 q 349 -7 382 0 q 272 -14 316 -14 q 187 0 226 -14 q 119 44 148 15 q 74 119 90 74 q 58 226 58 164 q 135 404 58 347 q 366 467 212 461 l 487 472 l 487 529 q 460 598 487 575 q 384 620 432 620 q 289 606 335 620 q 196 568 242 592 l 129 705 q 255 755 186 737 q 400 774 324 774 q 618 707 542 774 q 694 505 694 641 l 694 0 l 548 0 m 487 351 l 418 348 q 348 337 377 347 q 302 312 319 328 q 277 274 285 296 q 269 226 269 253 q 292 159 269 178 q 353 139 315 139 q 406 149 381 139 q 448 177 430 158 q 476 225 466 197 q 487 289 487 253 l 487 351 m 375 842 q 320 889 352 860 q 256 946 287 917 q 199 1004 225 976 q 163 1049 173 1031 l 163 1064 l 394 1064 q 420 1013 405 1040 q 450 958 434 986 q 482 905 466 931 q 513 860 498 879 l 513 842 l 375 842 "},"η":{"x_min":109,"x_max":767,"ha":871,"o":"m 560 -334 l 560 438 q 534 564 560 522 q 454 606 509 606 q 388 590 415 606 q 345 542 362 574 q 322 463 329 510 q 315 356 315 416 l 315 0 l 109 0 l 109 758 l 267 758 l 294 661 l 306 661 q 345 710 322 689 q 395 745 368 732 q 452 766 422 759 q 515 773 483 773 q 704 702 642 773 q 767 487 767 632 l 767 -334 l 560 -334 "},"ó":{"x_min":69,"x_max":762,"ha":832,"o":"m 280 380 q 312 209 280 267 q 415 152 344 152 q 518 210 486 152 q 550 380 550 267 q 518 550 550 494 q 414 606 486 606 q 312 550 343 606 q 280 380 280 494 m 762 380 q 737 212 762 285 q 668 88 713 138 q 558 12 623 38 q 413 -14 494 -14 q 275 12 338 -14 q 166 88 212 38 q 94 212 120 138 q 69 380 69 285 q 93 548 69 474 q 162 671 117 621 q 271 747 207 721 q 417 773 336 773 q 555 747 492 773 q 664 671 618 721 q 736 548 710 621 q 762 380 762 474 m 294 842 l 294 860 q 324 905 308 879 q 356 958 340 931 q 386 1013 372 986 q 412 1064 401 1040 l 644 1064 l 644 1049 q 622 1021 636 1037 q 589 985 608 1004 q 550 946 571 966 q 508 907 529 926 q 466 871 486 888 q 431 842 447 854 l 294 842 "},"¦":{"x_min":309,"x_max":457.53125,"ha":765,"o":"m 309 1051 l 457 1051 l 457 499 l 309 499 l 309 1051 m 309 238 l 457 238 l 457 -315 l 309 -315 l 309 238 "},"Ő":{"x_min":81,"x_max":970,"ha":1050,"o":"m 970 496 q 943 287 970 382 q 861 126 916 193 q 722 22 806 59 q 525 -14 639 -14 q 327 22 411 -14 q 189 126 243 59 q 107 288 134 193 q 81 498 81 382 q 107 707 81 613 q 189 867 134 801 q 328 970 244 934 q 526 1007 411 1007 q 723 970 640 1007 q 861 867 807 934 q 943 706 916 800 q 970 496 970 612 m 297 496 q 310 355 297 417 q 352 250 324 293 q 423 184 380 207 q 525 160 466 160 q 629 184 585 160 q 699 250 672 207 q 740 355 727 293 q 753 496 753 417 q 740 636 753 574 q 699 742 727 698 q 629 808 672 785 q 526 832 586 832 q 424 808 467 832 q 352 742 380 785 q 310 636 324 698 q 297 496 297 574 m 310 1071 l 310 1089 q 340 1134 324 1108 q 372 1187 356 1160 q 402 1242 388 1215 q 427 1293 417 1269 l 632 1293 l 632 1278 q 610 1250 624 1266 q 577 1214 596 1233 q 538 1175 559 1195 q 495 1136 516 1155 q 454 1100 474 1117 q 419 1071 434 1083 l 310 1071 m 579 1071 l 579 1089 q 609 1134 593 1108 q 641 1187 625 1160 q 671 1242 657 1215 q 696 1293 686 1269 l 901 1293 l 901 1278 q 879 1250 893 1266 q 846 1214 865 1233 q 807 1175 828 1195 q 765 1136 786 1155 q 724 1100 743 1117 q 688 1071 704 1083 l 579 1071 "},"Ž":{"x_min":33,"x_max":716,"ha":749,"o":"m 716 0 l 33 0 l 33 137 l 453 817 l 45 817 l 45 992 l 703 992 l 703 855 l 283 174 l 716 174 l 716 0 m 645 1274 q 605 1229 628 1255 q 561 1176 583 1203 q 519 1121 539 1148 q 484 1071 499 1094 l 243 1071 q 207 1121 228 1094 q 165 1176 187 1148 q 122 1229 143 1203 q 83 1274 100 1255 l 83 1293 l 220 1293 q 290 1240 255 1270 q 362 1174 325 1211 q 435 1240 397 1211 q 507 1293 472 1270 l 645 1293 l 645 1274 "},"е":{"x_min":69,"x_max":741,"ha":807,"o":"m 414 625 q 322 586 358 625 q 279 465 285 548 l 546 465 q 537 529 545 499 q 512 579 529 558 q 471 613 496 601 q 414 625 447 625 m 441 -14 q 291 9 359 -14 q 173 81 222 33 q 96 202 123 129 q 69 373 69 275 q 94 548 69 473 q 164 672 119 622 q 272 747 209 722 q 413 773 336 773 q 549 750 489 773 q 653 683 610 727 q 718 574 695 639 q 741 427 741 510 l 741 327 l 275 327 q 289 248 277 283 q 325 189 302 213 q 380 152 348 165 q 454 139 412 139 q 520 143 489 139 q 580 154 551 146 q 638 172 609 161 q 697 198 667 184 l 697 39 q 642 15 669 25 q 584 -1 614 5 q 518 -10 553 -7 q 441 -14 483 -14 "},"Î":{"x_min":-11,"x_max":551,"ha":541,"o":"m 495 0 l 44 0 l 44 119 l 165 174 l 165 817 l 44 872 l 44 992 l 495 992 l 495 872 l 375 817 l 375 174 l 495 119 l 495 0 m 413 1071 q 341 1123 378 1093 q 268 1189 303 1152 q 196 1123 231 1152 q 126 1071 161 1093 l -11 1071 l -11 1089 q 28 1134 6 1108 q 71 1187 49 1160 q 113 1242 93 1215 q 149 1293 134 1269 l 390 1293 q 425 1242 405 1269 q 467 1187 445 1215 q 511 1134 489 1160 q 551 1089 534 1108 l 551 1071 l 413 1071 "},"e":{"x_min":69,"x_max":741,"ha":807,"o":"m 414 625 q 322 586 358 625 q 279 465 285 548 l 546 465 q 537 529 545 499 q 512 579 529 558 q 471 613 496 601 q 414 625 447 625 m 441 -14 q 291 9 359 -14 q 173 81 222 33 q 96 202 123 129 q 69 373 69 275 q 94 548 69 473 q 164 672 119 622 q 272 747 209 722 q 413 773 336 773 q 549 750 489 773 q 653 683 610 727 q 718 574 695 639 q 741 427 741 510 l 741 327 l 275 327 q 289 248 277 283 q 325 189 302 213 q 380 152 348 165 q 454 139 412 139 q 520 143 489 139 q 580 154 551 146 q 638 172 609 161 q 697 198 667 184 l 697 39 q 642 15 669 25 q 584 -1 614 5 q 518 -10 553 -7 q 441 -14 483 -14 "},"ό":{"x_min":69,"x_max":762,"ha":832,"o":"m 280 380 q 312 209 280 267 q 415 152 344 152 q 518 210 486 152 q 550 380 550 267 q 518 550 550 494 q 414 606 486 606 q 312 550 343 606 q 280 380 280 494 m 762 380 q 737 212 762 285 q 668 88 713 138 q 558 12 623 38 q 413 -14 494 -14 q 275 12 338 -14 q 166 88 212 38 q 94 212 120 138 q 69 380 69 285 q 93 548 69 474 q 162 671 117 621 q 271 747 207 721 q 417 773 336 773 q 555 747 492 773 q 664 671 618 721 q 736 548 710 621 q 762 380 762 474 m 343 860 q 355 906 349 880 q 366 960 361 932 q 377 1014 372 987 q 384 1064 381 1041 l 576 1064 l 576 1049 q 527 950 555 1003 q 463 842 499 897 l 343 842 l 343 860 "},"Ĕ":{"x_min":125,"x_max":696,"ha":778,"o":"m 696 0 l 125 0 l 125 992 l 696 992 l 696 817 l 335 817 l 335 602 l 670 602 l 670 427 l 335 427 l 335 174 l 696 174 l 696 0 m 658 1300 q 636 1207 654 1249 q 588 1135 619 1165 q 512 1087 556 1104 q 409 1071 467 1071 q 305 1087 349 1071 q 230 1133 260 1103 q 184 1205 200 1163 q 166 1300 168 1247 l 281 1300 q 293 1253 284 1270 q 319 1227 303 1236 q 358 1216 335 1218 q 410 1214 381 1214 q 457 1217 435 1214 q 496 1229 479 1220 q 525 1255 514 1238 q 539 1300 537 1272 l 658 1300 "},"ļ":{"x_min":82,"x_max":315.859375,"ha":424,"o":"m 315 0 l 109 0 l 109 1055 l 315 1055 l 315 0 m 82 -288 q 94 -242 88 -268 q 105 -188 100 -216 q 116 -134 111 -161 q 123 -85 121 -107 l 315 -85 l 315 -98 q 266 -198 294 -145 q 202 -307 238 -251 l 82 -307 l 82 -288 "}," ":{"x_min":0,"x_max":0,"ha":695},"Ѓ":{"x_min":125,"x_max":696,"ha":724,"o":"m 696 992 l 696 817 l 335 817 l 335 0 l 125 0 l 125 992 l 696 992 m 288 1071 l 288 1089 q 318 1134 302 1108 q 350 1187 334 1160 q 380 1242 366 1215 q 406 1293 395 1269 l 638 1293 l 638 1278 q 616 1250 630 1266 q 583 1214 602 1233 q 544 1175 565 1195 q 502 1136 523 1155 q 460 1100 480 1117 q 425 1071 441 1083 l 288 1071 "},"ò":{"x_min":69,"x_max":762,"ha":832,"o":"m 280 380 q 312 209 280 267 q 415 152 344 152 q 518 210 486 152 q 550 380 550 267 q 518 550 550 494 q 414 606 486 606 q 312 550 343 606 q 280 380 280 494 m 762 380 q 737 212 762 285 q 668 88 713 138 q 558 12 623 38 q 413 -14 494 -14 q 275 12 338 -14 q 166 88 212 38 q 94 212 120 138 q 69 380 69 285 q 93 548 69 474 q 162 671 117 621 q 271 747 207 721 q 417 773 336 773 q 555 747 492 773 q 664 671 618 721 q 736 548 710 621 q 762 380 762 474 m 396 842 q 341 889 373 860 q 277 946 308 917 q 220 1004 246 976 q 184 1049 194 1031 l 184 1064 l 415 1064 q 441 1013 426 1040 q 471 958 455 986 q 503 905 487 931 q 534 860 519 879 l 534 842 l 396 842 "},"ﬄ":{"x_min":28,"x_max":1389.859375,"ha":1498,"o":"m 503 604 l 348 604 l 348 0 l 142 0 l 142 604 l 28 604 l 28 703 l 142 758 l 142 813 q 159 934 142 886 q 209 1010 177 982 q 288 1051 242 1039 q 392 1063 334 1063 q 497 1053 454 1063 q 570 1030 540 1043 l 521 877 q 477 890 500 884 q 422 896 454 896 q 365 871 382 896 q 348 804 348 845 l 348 758 l 503 758 l 503 604 m 1041 604 l 886 604 l 886 0 l 680 0 l 680 604 l 566 604 l 566 703 l 680 758 l 680 813 q 697 934 680 886 q 747 1010 715 982 q 826 1051 780 1039 q 930 1063 872 1063 q 1035 1053 992 1063 q 1108 1030 1078 1043 l 1059 877 q 1015 890 1038 884 q 960 896 992 896 q 903 871 920 896 q 886 804 886 845 l 886 758 l 1041 758 l 1041 604 m 1389 0 l 1183 0 l 1183 1055 l 1389 1055 l 1389 0 "},"^":{"x_min":5,"x_max":736,"ha":739,"o":"m 5 353 l 302 997 l 399 997 l 736 353 l 573 353 l 355 788 q 259 569 308 679 q 165 353 211 458 l 5 353 "},"ⁿ":{"x_min":69,"x_max":500,"ha":560,"o":"m 363 518 l 363 792 q 346 865 363 843 q 296 887 329 887 q 256 880 273 887 q 227 857 238 874 q 211 813 216 841 q 206 744 206 785 l 206 518 l 69 518 l 69 992 l 180 992 l 199 937 l 207 937 q 262 986 230 970 q 341 1003 295 1003 q 500 833 500 1003 l 500 518 l 363 518 "},"к":{"x_min":109,"x_max":818.25,"ha":818,"o":"m 563 758 l 791 758 l 522 394 l 818 0 l 583 0 l 315 384 l 315 0 l 109 0 l 109 758 l 315 758 l 315 389 l 563 758 "},"￼":{"x_min":57,"x_max":1346,"ha":1389,"o":"m 57 823 l 57 1030 l 262 1030 l 262 954 l 132 954 l 132 823 l 57 823 m 1139 954 l 1139 1030 l 1346 1030 l 1346 823 l 1272 823 l 1272 954 l 1139 954 m 57 -260 l 57 -54 l 132 -54 l 132 -186 l 262 -186 l 262 -260 l 57 -260 m 1139 -260 l 1139 -186 l 1272 -186 l 1272 -54 l 1346 -54 l 1346 -260 l 1139 -260 m 875 -260 l 875 -186 l 1060 -186 l 1060 -260 l 875 -260 m 345 -260 l 345 -186 l 528 -186 l 528 -260 l 345 -260 m 345 954 l 345 1030 l 528 1030 l 528 954 l 345 954 m 1346 26 l 1272 26 l 1272 210 l 1346 210 l 1346 26 m 1346 558 l 1272 558 l 1272 742 l 1346 742 l 1346 558 m 610 -260 l 610 -186 l 794 -186 l 794 -260 l 610 -260 m 132 26 l 57 26 l 57 210 l 132 210 l 132 26 m 610 954 l 610 1030 l 794 1030 l 794 954 l 610 954 m 875 954 l 875 1030 l 1060 1030 l 1060 954 l 875 954 m 132 291 l 57 291 l 57 476 l 132 476 l 132 291 m 132 558 l 57 558 l 57 742 l 132 742 l 132 558 m 1346 291 l 1272 291 l 1272 476 l 1346 476 l 1346 291 m 408 224 q 276 277 322 224 q 231 427 231 331 q 276 577 231 525 q 408 631 322 630 q 540 578 494 631 q 586 427 586 525 q 540 277 586 331 q 408 224 494 224 m 408 294 q 478 329 457 294 q 499 427 499 364 q 478 525 499 490 q 408 559 457 559 q 339 525 361 559 q 317 427 317 490 q 339 329 317 364 q 408 294 361 294 m 643 626 l 759 626 q 871 603 833 626 q 909 524 909 580 q 893 468 909 491 q 847 439 878 445 l 847 437 q 903 406 886 429 q 921 344 921 383 q 884 259 921 289 q 783 229 847 229 l 643 229 l 643 626 m 726 469 l 770 469 q 814 480 801 469 q 826 513 826 491 q 812 546 826 536 q 766 556 798 556 l 726 556 l 726 469 m 726 402 l 726 298 l 776 298 q 822 312 809 298 q 834 352 834 327 q 821 388 834 374 q 773 402 809 402 l 726 402 m 956 231 l 956 300 q 978 297 967 298 q 1002 295 989 295 q 1044 307 1028 295 q 1061 353 1061 319 l 1061 626 l 1146 626 l 1146 356 q 1110 258 1146 292 q 1011 225 1075 225 q 956 231 969 225 "},"ū":{"x_min":104,"x_max":762,"ha":871,"o":"m 603 0 l 576 96 l 565 96 q 524 46 548 67 q 473 12 501 26 q 414 -7 445 -1 q 350 -14 383 -14 q 249 1 295 -14 q 171 51 204 17 q 121 137 139 85 q 104 263 104 190 l 104 758 l 310 758 l 310 314 q 335 191 310 232 q 414 150 360 150 q 482 167 455 150 q 525 215 509 183 q 548 293 541 247 q 555 401 555 340 l 555 758 l 762 758 l 762 0 l 603 0 m 224 985 l 642 985 l 642 842 l 224 842 l 224 985 "},"ˆ":{"x_min":119,"x_max":681,"ha":802,"o":"m 543 842 q 471 894 508 864 q 398 960 433 923 q 326 894 361 923 q 256 842 291 864 l 119 842 l 119 860 q 158 905 136 879 q 201 958 179 931 q 243 1013 223 986 q 279 1064 264 1040 l 520 1064 q 555 1013 535 1040 q 597 958 575 986 q 641 905 619 931 q 681 860 664 879 l 681 842 l 543 842 "},"Ẅ":{"x_min":-0.25,"x_max":1287.25,"ha":1287,"o":"m 1048 0 l 809 0 l 687 489 q 681 517 684 499 q 672 559 677 536 q 663 607 667 582 q 654 656 658 632 q 647 700 650 679 q 642 732 644 720 q 638 700 641 720 q 631 656 635 679 q 622 608 627 633 q 613 559 618 582 q 605 517 609 536 q 598 487 601 498 l 477 0 l 238 0 l 0 992 l 206 992 l 319 450 q 325 418 321 439 q 333 372 328 398 q 343 318 338 346 q 353 262 348 289 q 361 211 357 235 q 368 173 366 188 q 373 211 370 188 q 381 260 377 234 q 390 314 385 286 q 399 366 395 342 q 407 409 404 390 q 413 436 411 428 l 551 992 l 735 992 l 873 436 q 879 409 875 428 q 887 366 882 390 q 896 314 891 342 q 905 260 901 286 q 913 211 910 234 q 919 173 917 188 q 925 211 921 188 q 933 262 929 235 q 943 318 938 289 q 953 372 948 346 q 962 418 958 398 q 967 450 965 439 l 1080 992 l 1287 992 l 1048 0 m 410 1182 q 417 1223 410 1206 q 437 1251 424 1240 q 467 1268 450 1263 q 504 1274 484 1274 q 541 1268 524 1274 q 571 1251 558 1263 q 592 1223 584 1240 q 600 1182 600 1206 q 592 1142 600 1159 q 571 1114 584 1125 q 541 1097 558 1102 q 504 1092 524 1092 q 467 1097 484 1092 q 437 1114 450 1102 q 417 1142 424 1125 q 410 1182 410 1159 m 683 1182 q 690 1223 683 1206 q 710 1251 697 1240 q 741 1268 723 1263 q 779 1274 758 1274 q 815 1268 798 1274 q 846 1251 832 1263 q 867 1223 859 1240 q 875 1182 875 1206 q 867 1142 875 1159 q 846 1114 859 1125 q 815 1097 832 1102 q 779 1092 798 1092 q 710 1114 738 1092 q 683 1182 683 1136 "},"č":{"x_min":69,"x_max":687,"ha":693,"o":"m 424 -14 q 277 8 342 -14 q 165 78 211 30 q 93 198 118 125 q 69 375 69 272 q 94 564 69 488 q 166 687 119 641 q 278 753 212 733 q 424 773 343 773 q 540 758 482 773 q 648 718 597 744 l 588 562 q 502 594 544 581 q 423 606 461 606 q 314 549 348 606 q 280 376 280 491 q 314 206 280 261 q 421 152 348 152 q 528 167 480 152 q 627 206 576 182 l 627 35 q 578 13 601 23 q 530 -1 554 4 q 480 -10 506 -7 q 424 -14 453 -14 m 687 1045 q 647 1000 670 1026 q 603 947 625 974 q 561 892 581 919 q 526 842 541 865 l 285 842 q 249 892 270 865 q 207 947 229 919 q 164 1000 185 974 q 125 1045 142 1026 l 125 1064 l 262 1064 q 332 1011 297 1041 q 404 945 367 982 q 477 1011 439 982 q 549 1064 514 1041 l 687 1064 l 687 1045 "},"’":{"x_min":16,"x_max":284,"ha":298,"o":"m 273 992 l 284 977 q 261 898 274 939 q 232 815 248 857 q 198 731 216 772 q 164 652 181 690 l 16 652 q 35 737 25 692 q 54 827 45 782 q 71 913 63 871 q 83 992 78 956 l 273 992 "},"Ν":{"x_min":125,"x_max":963,"ha":1088,"o":"m 963 0 l 697 0 l 305 750 l 299 750 q 306 646 303 698 q 310 554 308 602 q 312 466 312 505 l 312 0 l 125 0 l 125 992 l 389 992 l 781 248 l 785 248 q 780 350 783 300 q 778 395 779 372 q 777 440 777 417 q 776 484 776 463 q 775 522 775 505 l 775 992 l 963 992 l 963 0 "},"-":{"x_min":41,"x_max":406,"ha":447,"o":"m 41 287 l 41 457 l 406 457 l 406 287 l 41 287 "},"Q":{"x_min":81,"x_max":999.25,"ha":1050,"o":"m 970 496 q 956 345 970 416 q 916 215 943 274 q 849 112 889 157 q 754 36 809 66 l 999 -236 l 729 -236 l 547 -12 q 538 -13 542 -12 q 531 -14 535 -14 q 525 -14 527 -14 q 327 22 411 -14 q 189 126 243 59 q 107 288 134 193 q 81 498 81 382 q 107 707 81 613 q 189 867 134 801 q 328 970 244 934 q 526 1007 411 1007 q 723 970 640 1007 q 861 867 807 934 q 943 706 916 800 q 970 496 970 612 m 297 496 q 310 355 297 417 q 352 250 324 293 q 423 184 380 207 q 525 160 466 160 q 629 184 585 160 q 699 250 672 207 q 740 355 727 293 q 753 496 753 417 q 740 636 753 574 q 699 742 727 698 q 629 808 672 785 q 526 832 586 832 q 424 808 467 832 q 352 742 380 785 q 310 636 324 698 q 297 496 297 574 "},"ј":{"x_min":-56,"x_max":324.5,"ha":424,"o":"m 68 -334 q 1 -329 36 -334 q -56 -317 -32 -324 l -56 -154 q -16 -164 -34 -161 q 24 -167 1 -167 q 56 -162 41 -167 q 83 -144 72 -157 q 101 -109 94 -131 q 108 -52 108 -87 l 108 758 l 315 758 l 315 -82 q 301 -180 315 -134 q 259 -260 288 -226 q 182 -314 229 -294 q 68 -334 135 -334 m 99 953 q 108 1002 99 983 q 132 1033 116 1021 q 168 1050 147 1045 q 211 1055 188 1055 q 255 1050 234 1055 q 290 1033 275 1045 q 315 1002 306 1021 q 324 953 324 983 q 315 905 324 925 q 290 874 306 885 q 255 857 275 862 q 211 852 234 852 q 168 857 188 852 q 132 874 147 862 q 108 905 116 885 q 99 953 99 925 "},"ě":{"x_min":69,"x_max":741,"ha":807,"o":"m 414 625 q 322 586 358 625 q 279 465 285 548 l 546 465 q 537 529 545 499 q 512 579 529 558 q 471 613 496 601 q 414 625 447 625 m 441 -14 q 291 9 359 -14 q 173 81 222 33 q 96 202 123 129 q 69 373 69 275 q 94 548 69 473 q 164 672 119 622 q 272 747 209 722 q 413 773 336 773 q 549 750 489 773 q 653 683 610 727 q 718 574 695 639 q 741 427 741 510 l 741 327 l 275 327 q 289 248 277 283 q 325 189 302 213 q 380 152 348 165 q 454 139 412 139 q 520 143 489 139 q 580 154 551 146 q 638 172 609 161 q 697 198 667 184 l 697 39 q 642 15 669 25 q 584 -1 614 5 q 518 -10 553 -7 q 441 -14 483 -14 m 698 1045 q 658 1000 681 1026 q 614 947 636 974 q 572 892 592 919 q 537 842 552 865 l 296 842 q 260 892 281 865 q 218 947 240 919 q 175 1000 196 974 q 136 1045 153 1026 l 136 1064 l 273 1064 q 343 1011 308 1041 q 415 945 378 982 q 488 1011 450 982 q 560 1064 525 1041 l 698 1064 l 698 1045 "},"œ":{"x_min":69,"x_max":1222,"ha":1289,"o":"m 922 -14 q 774 11 842 -14 q 657 90 706 36 q 551 11 612 37 q 413 -14 489 -14 q 274 12 337 -14 q 166 88 211 38 q 94 212 120 138 q 69 380 69 285 q 93 548 69 474 q 162 671 117 621 q 271 747 207 721 q 417 773 335 773 q 548 746 488 773 q 653 667 608 719 q 759 746 698 720 q 895 773 821 773 q 1031 750 970 773 q 1134 683 1092 727 q 1199 574 1176 639 q 1222 427 1222 510 l 1222 327 l 757 327 l 757 321 q 808 187 761 235 q 936 139 854 139 q 1001 143 970 139 q 1062 154 1032 146 q 1120 172 1091 161 q 1179 198 1149 184 l 1179 39 q 1124 15 1151 25 q 1066 -1 1096 5 q 1000 -10 1035 -7 q 922 -14 965 -14 m 280 380 q 312 209 280 267 q 416 152 344 152 q 519 210 487 152 q 551 380 551 267 q 519 550 551 494 q 414 606 487 606 q 312 550 343 606 q 280 380 280 494 m 896 625 q 844 616 868 625 q 803 586 821 606 q 775 536 786 567 q 761 465 764 506 l 1027 465 q 1018 529 1026 499 q 993 579 1010 558 q 953 613 977 601 q 896 625 928 625 "},"#":{"x_min":31,"x_max":867,"ha":897,"o":"m 677 574 l 645 414 l 821 414 l 821 275 l 619 275 l 567 0 l 417 0 l 470 275 l 339 275 l 287 0 l 142 0 l 192 275 l 31 275 l 31 414 l 218 414 l 250 574 l 80 574 l 80 714 l 275 714 l 328 990 l 476 990 l 424 714 l 558 714 l 611 990 l 757 990 l 704 714 l 867 714 l 867 574 l 677 574 m 365 414 l 498 414 l 530 574 l 397 574 l 365 414 "},"Џ":{"x_min":125,"x_max":854,"ha":979,"o":"m 854 0 l 593 0 l 593 -289 l 388 -289 l 388 0 l 125 0 l 125 992 l 335 992 l 335 174 l 643 174 l 643 992 l 854 992 l 854 0 "},"Å":{"x_min":-0.25,"x_max":903.25,"ha":903,"o":"m 690 0 l 623 238 l 280 238 l 212 0 l 0 0 l 322 996 l 579 996 l 903 0 l 690 0 m 574 413 l 510 629 q 498 669 506 642 q 480 731 489 697 q 463 798 471 764 q 451 856 455 832 q 444 821 449 841 q 434 778 440 800 q 422 732 428 755 q 411 688 416 709 q 401 652 405 668 q 394 629 396 637 l 331 413 l 574 413 m 622 1062 q 608 994 622 1024 q 572 943 595 964 q 517 911 548 922 q 449 900 486 900 q 381 911 412 900 q 328 943 350 922 q 294 993 306 963 q 282 1061 282 1024 q 294 1128 282 1098 q 328 1178 306 1158 q 381 1210 350 1199 q 449 1222 412 1222 q 517 1210 485 1222 q 571 1178 548 1199 q 608 1128 594 1158 q 622 1062 622 1099 m 516 1061 q 498 1109 516 1091 q 452 1126 480 1126 q 405 1109 423 1126 q 387 1061 387 1091 q 403 1013 387 1030 q 452 995 419 995 q 498 1013 480 995 q 516 1061 516 1030 "},"ș":{"x_min":66,"x_max":614,"ha":668,"o":"m 614 225 q 592 120 614 165 q 530 45 570 75 q 433 0 490 15 q 305 -14 376 -14 q 236 -11 268 -14 q 176 -3 204 -9 q 121 9 147 1 q 67 30 94 17 l 67 201 q 127 176 95 187 q 189 156 158 164 q 249 143 220 148 q 304 139 279 139 q 351 144 331 139 q 383 158 370 149 q 401 179 395 167 q 407 205 407 191 q 402 230 407 219 q 382 254 398 242 q 337 283 367 267 q 256 322 307 299 q 171 366 207 344 q 112 415 135 388 q 77 477 88 442 q 66 561 66 512 q 86 653 66 614 q 144 720 106 693 q 234 759 181 746 q 351 773 286 773 q 480 757 419 773 q 605 710 541 741 l 543 564 q 445 604 492 588 q 352 619 398 619 q 291 604 310 619 q 272 563 272 589 q 277 539 272 550 q 296 518 282 529 q 336 493 310 506 q 403 461 362 480 q 490 419 451 440 q 556 372 528 398 q 599 310 584 345 q 614 225 614 275 m 218 -288 q 230 -242 224 -268 q 241 -188 236 -216 q 252 -134 247 -161 q 259 -85 257 -107 l 451 -85 l 451 -98 q 402 -198 430 -145 q 338 -307 374 -251 l 218 -307 l 218 -288 "},"¸":{"x_min":-25,"x_max":284,"ha":285,"o":"m 284 -169 q 273 -239 284 -208 q 238 -290 262 -269 q 173 -322 214 -311 q 74 -334 133 -334 q 19 -329 43 -334 q -25 -319 -5 -325 l -25 -205 q -2 -210 -14 -208 q 23 -215 10 -213 q 49 -218 36 -217 q 72 -220 62 -220 q 106 -210 91 -220 q 121 -178 121 -201 q 96 -133 121 -153 q 8 -105 70 -114 l 61 0 l 192 0 l 173 -41 q 214 -59 194 -48 q 249 -87 234 -71 q 274 -124 264 -103 q 284 -169 284 -144 "},"=":{"x_min":60,"x_max":705,"ha":765,"o":"m 60 546 l 60 695 l 705 695 l 705 546 l 60 546 m 60 284 l 60 433 l 705 433 l 705 284 l 60 284 "},"ρ":{"x_min":82,"x_max":754,"ha":823,"o":"m 754 379 q 733 211 754 284 q 676 88 713 138 q 584 12 638 38 q 464 -14 530 -14 q 369 0 415 -14 q 288 38 323 15 l 278 38 q 283 -22 280 9 q 287 -80 285 -48 q 288 -143 288 -112 l 288 -334 l 82 -334 l 82 380 q 106 547 82 474 q 174 670 130 620 q 281 746 218 720 q 422 773 344 773 q 554 746 494 773 q 660 670 615 720 q 729 546 704 619 q 754 379 754 472 m 417 606 q 360 594 384 606 q 320 556 336 582 q 296 489 304 529 q 288 390 288 448 l 288 210 q 347 166 314 181 q 417 152 381 152 q 474 165 450 152 q 513 205 497 178 q 535 276 528 233 q 542 379 542 318 q 535 483 542 440 q 513 554 528 526 q 474 594 497 581 q 417 606 450 606 "},"Ћ":{"x_min":28,"x_max":989,"ha":1063,"o":"m 778 0 l 778 348 q 755 432 778 408 q 677 457 731 457 l 487 457 l 487 0 l 277 0 l 277 817 l 28 817 l 28 992 l 728 992 l 728 817 l 487 817 l 487 632 l 692 632 q 817 614 762 632 q 910 561 872 596 q 969 477 949 526 q 989 364 989 427 l 989 0 l 778 0 "},"ú":{"x_min":104,"x_max":762,"ha":871,"o":"m 603 0 l 576 96 l 565 96 q 524 46 548 67 q 473 12 501 26 q 414 -7 445 -1 q 350 -14 383 -14 q 249 1 295 -14 q 171 51 204 17 q 121 137 139 85 q 104 263 104 190 l 104 758 l 310 758 l 310 314 q 335 191 310 232 q 414 150 360 150 q 482 167 455 150 q 525 215 509 183 q 548 293 541 247 q 555 401 555 340 l 555 758 l 762 758 l 762 0 l 603 0 m 313 842 l 313 860 q 343 905 327 879 q 375 958 359 931 q 405 1013 391 986 q 431 1064 420 1040 l 663 1064 l 663 1049 q 641 1021 655 1037 q 608 985 627 1004 q 569 946 590 966 q 527 907 548 926 q 485 871 505 888 q 450 842 466 854 l 313 842 "},"˚":{"x_min":231,"x_max":571,"ha":802,"o":"m 571 1002 q 557 934 571 964 q 521 883 544 904 q 466 851 497 862 q 398 840 435 840 q 330 851 361 840 q 277 883 299 862 q 243 933 255 903 q 231 1001 231 964 q 243 1068 231 1038 q 277 1118 255 1098 q 330 1150 299 1139 q 398 1162 361 1162 q 466 1150 434 1162 q 520 1118 497 1139 q 557 1068 543 1098 q 571 1002 571 1039 m 465 1001 q 447 1049 465 1031 q 401 1066 429 1066 q 354 1049 372 1066 q 336 1001 336 1031 q 352 953 336 970 q 401 935 368 935 q 447 953 429 935 q 465 1001 465 970 "},"д":{"x_min":20,"x_max":860,"ha":879,"o":"m 542 153 l 542 604 l 428 604 q 382 365 411 478 q 300 153 352 252 l 542 153 m 860 -272 l 681 -272 l 681 0 l 198 0 l 198 -272 l 20 -272 l 20 153 l 83 153 q 150 280 121 210 q 199 428 178 350 q 233 589 220 505 q 255 758 247 673 l 749 758 l 749 153 l 860 153 l 860 -272 "},"¯":{"x_min":-4,"x_max":699,"ha":695,"o":"m 699 1056 l -4 1056 l -4 1192 l 699 1192 l 699 1056 "},"u":{"x_min":104,"x_max":762,"ha":871,"o":"m 603 0 l 576 96 l 565 96 q 524 46 548 67 q 473 12 501 26 q 414 -7 445 -1 q 350 -14 383 -14 q 249 1 295 -14 q 171 51 204 17 q 121 137 139 85 q 104 263 104 190 l 104 758 l 310 758 l 310 314 q 335 191 310 232 q 414 150 360 150 q 482 167 455 150 q 525 215 509 183 q 548 293 541 247 q 555 401 555 340 l 555 758 l 762 758 l 762 0 l 603 0 "},"З":{"x_min":63.859375,"x_max":784,"ha":844,"o":"m 753 759 q 735 668 753 709 q 687 598 718 628 q 614 548 656 568 q 521 521 572 529 l 521 517 q 632 491 583 510 q 715 441 681 471 q 766 371 748 411 q 784 281 784 331 q 758 162 784 216 q 684 68 733 108 q 562 7 634 29 q 395 -14 490 -14 q 210 0 290 -14 q 72 39 130 13 l 72 215 q 136 188 101 200 q 208 169 171 177 q 281 157 245 161 q 349 152 318 152 q 520 190 467 152 q 573 296 573 227 q 554 357 573 332 q 499 399 535 382 q 413 423 464 415 q 300 431 363 431 l 220 431 l 220 598 l 290 598 q 415 606 366 598 q 494 632 465 615 q 535 672 523 649 q 547 727 547 696 q 507 808 547 778 q 390 839 467 839 q 264 816 322 839 q 154 757 206 794 l 63 897 q 136 942 99 922 q 217 976 174 962 q 311 998 260 991 q 424 1006 363 1006 q 563 987 501 1006 q 666 936 624 969 q 730 858 708 903 q 753 759 753 813 "},"Α":{"x_min":-0.25,"x_max":903.25,"ha":903,"o":"m 690 0 l 623 238 l 280 238 l 212 0 l 0 0 l 322 996 l 579 996 l 903 0 l 690 0 m 574 413 l 510 629 q 498 669 506 642 q 480 731 489 697 q 463 798 471 764 q 451 856 455 832 q 444 821 449 841 q 434 778 440 800 q 422 732 428 755 q 411 688 416 709 q 401 652 405 668 q 394 629 396 637 l 331 413 l 574 413 "},"⅝":{"x_min":61,"x_max":1183,"ha":1224,"o":"m 273 789 q 358 776 319 789 q 426 739 397 764 q 472 679 455 715 q 489 597 489 644 q 424 441 489 496 q 236 386 360 386 q 141 394 187 386 q 61 421 94 403 l 61 551 q 98 538 78 544 q 140 528 119 532 q 183 521 162 523 q 223 518 205 518 q 309 538 276 518 q 341 604 341 558 q 311 666 341 645 q 226 687 281 687 q 185 683 209 687 q 145 675 162 680 l 71 703 l 96 992 l 448 992 l 448 859 l 207 859 l 196 783 q 230 787 210 785 q 273 789 249 789 m 960 992 l 409 0 l 247 0 l 798 992 l 960 992 m 951 607 q 1033 597 995 607 q 1100 569 1071 588 q 1144 523 1128 551 q 1161 458 1161 495 q 1153 413 1161 434 q 1132 376 1146 393 q 1102 347 1119 360 q 1064 323 1084 334 q 1108 295 1087 309 q 1146 263 1129 281 q 1172 221 1162 244 q 1183 169 1183 198 q 1166 95 1183 129 q 1119 36 1149 61 q 1046 -2 1088 11 q 951 -16 1003 -16 q 851 -2 894 -16 q 778 34 808 10 q 734 92 749 58 q 719 165 719 126 q 727 218 719 195 q 751 259 736 241 q 785 291 765 277 q 825 317 804 305 q 792 345 807 330 q 764 376 776 359 q 746 414 752 393 q 740 458 740 434 q 756 523 740 495 q 802 569 773 550 q 869 597 831 587 q 951 607 908 607 m 866 169 q 887 114 866 135 q 949 92 908 92 q 1013 114 991 92 q 1035 169 1035 135 q 1012 223 1035 201 q 948 261 989 246 l 939 264 q 885 226 904 248 q 866 169 866 203 m 949 498 q 903 482 919 498 q 887 447 887 467 q 906 403 887 420 q 951 373 924 387 q 975 386 964 379 q 995 402 987 393 q 1008 422 1003 411 q 1013 447 1013 433 q 998 482 1013 467 q 949 498 983 498 "},"é":{"x_min":69,"x_max":741,"ha":807,"o":"m 414 625 q 322 586 358 625 q 279 465 285 548 l 546 465 q 537 529 545 499 q 512 579 529 558 q 471 613 496 601 q 414 625 447 625 m 441 -14 q 291 9 359 -14 q 173 81 222 33 q 96 202 123 129 q 69 373 69 275 q 94 548 69 473 q 164 672 119 622 q 272 747 209 722 q 413 773 336 773 q 549 750 489 773 q 653 683 610 727 q 718 574 695 639 q 741 427 741 510 l 741 327 l 275 327 q 289 248 277 283 q 325 189 302 213 q 380 152 348 165 q 454 139 412 139 q 520 143 489 139 q 580 154 551 146 q 638 172 609 161 q 697 198 667 184 l 697 39 q 642 15 669 25 q 584 -1 614 5 q 518 -10 553 -7 q 441 -14 483 -14 m 304 842 l 304 860 q 334 905 318 879 q 366 958 350 931 q 396 1013 382 986 q 422 1064 411 1040 l 654 1064 l 654 1049 q 632 1021 646 1037 q 599 985 618 1004 q 560 946 581 966 q 518 907 539 926 q 476 871 496 888 q 441 842 457 854 l 304 842 "},"Ş":{"x_min":63.46875,"x_max":668,"ha":728,"o":"m 668 275 q 645 155 668 208 q 578 64 622 102 q 471 6 535 26 q 326 -14 408 -14 q 187 0 254 -14 q 63 45 120 15 l 63 241 q 129 211 96 225 q 196 185 162 197 q 265 167 231 174 q 333 160 299 160 q 392 168 368 160 q 432 190 417 176 q 455 223 448 203 q 462 264 462 242 q 450 314 462 292 q 417 354 438 335 q 365 390 396 372 q 298 427 335 408 q 228 467 267 444 q 155 524 189 490 q 98 607 121 558 q 75 723 75 655 q 97 842 75 790 q 159 931 119 895 q 258 987 200 968 q 388 1006 316 1006 q 458 1001 424 1006 q 526 987 492 996 q 594 965 560 978 q 663 936 627 953 l 596 772 q 539 797 565 786 q 487 816 512 808 q 438 827 462 823 q 389 831 414 831 q 308 802 336 831 q 280 727 280 774 q 288 683 280 702 q 316 646 297 663 q 364 612 334 630 q 435 572 393 594 q 529 517 486 545 q 603 454 572 488 q 651 376 634 420 q 668 275 668 333 m 510 -169 q 499 -239 510 -208 q 464 -290 488 -269 q 399 -322 440 -311 q 300 -334 359 -334 q 245 -329 269 -334 q 201 -319 220 -325 l 201 -205 q 223 -210 211 -208 q 249 -215 236 -213 q 275 -218 262 -217 q 298 -220 288 -220 q 332 -210 317 -220 q 347 -178 347 -201 q 322 -133 347 -153 q 234 -105 296 -114 l 287 0 l 418 0 l 399 -41 q 440 -59 420 -48 q 475 -87 460 -71 q 500 -124 490 -103 q 510 -169 510 -144 "},"B":{"x_min":125,"x_max":818,"ha":892,"o":"m 125 992 l 415 992 q 579 978 508 992 q 697 936 649 965 q 768 858 744 906 q 793 740 793 810 q 782 662 793 698 q 752 597 772 625 q 705 551 733 569 q 640 526 677 532 l 640 519 q 709 496 677 511 q 766 454 742 480 q 804 386 790 427 q 818 287 818 345 q 794 166 818 219 q 726 76 770 113 q 618 19 681 39 q 474 0 554 0 l 125 0 l 125 992 m 335 599 l 444 599 q 509 606 483 599 q 552 627 536 613 q 575 662 568 641 q 582 711 582 683 q 547 792 582 768 q 434 817 511 817 l 335 817 l 335 599 m 335 432 l 335 174 l 459 174 q 529 184 501 174 q 575 211 557 193 q 600 253 592 228 q 607 309 607 278 q 600 359 607 336 q 574 398 592 382 q 527 423 556 414 q 454 432 497 432 l 335 432 "},"…":{"x_min":79,"x_max":1109,"ha":1188,"o":"m 79 97 q 88 151 79 129 q 113 187 97 173 q 151 206 129 200 q 198 213 173 213 q 243 206 221 213 q 280 187 264 200 q 306 151 297 173 q 316 97 316 129 q 306 45 316 66 q 280 9 297 23 q 243 -11 264 -5 q 198 -18 221 -18 q 151 -11 173 -18 q 113 9 129 -5 q 88 45 97 23 q 79 97 79 66 m 475 97 q 484 151 475 129 q 509 187 493 173 q 547 206 525 200 q 595 213 569 213 q 640 206 618 213 q 677 187 661 200 q 703 151 694 173 q 713 97 713 129 q 703 45 713 66 q 677 9 694 23 q 640 -11 661 -5 q 595 -18 618 -18 q 547 -11 569 -18 q 509 9 525 -5 q 484 45 493 23 q 475 97 475 66 m 872 97 q 881 151 872 129 q 906 187 890 173 q 944 206 922 200 q 991 213 966 213 q 1036 206 1014 213 q 1073 187 1057 200 q 1099 151 1090 173 q 1109 97 1109 129 q 1099 45 1109 66 q 1073 9 1090 23 q 1036 -11 1057 -5 q 991 -18 1014 -18 q 944 -11 966 -18 q 906 9 922 -5 q 881 45 890 23 q 872 97 872 66 "},"H":{"x_min":125,"x_max":882,"ha":1007,"o":"m 882 0 l 671 0 l 671 428 l 335 428 l 335 0 l 125 0 l 125 992 l 335 992 l 335 603 l 671 603 l 671 992 l 882 992 l 882 0 "},"î":{"x_min":-70,"x_max":492,"ha":424,"o":"m 315 0 l 109 0 l 109 758 l 315 758 l 315 0 m 354 842 q 282 894 319 864 q 209 960 244 923 q 137 894 172 923 q 67 842 102 864 l -70 842 l -70 860 q -30 905 -52 879 q 12 958 -9 931 q 54 1013 34 986 q 90 1064 75 1040 l 331 1064 q 366 1013 346 1040 q 408 958 386 986 q 452 905 430 931 q 492 860 475 879 l 492 842 l 354 842 "},"ν":{"x_min":3.75,"x_max":731,"ha":785,"o":"m 3 758 l 216 758 l 345 337 q 356 301 350 322 q 367 258 362 280 q 378 217 373 237 q 387 183 384 197 l 393 183 q 453 294 428 235 q 494 423 478 353 q 516 576 509 493 q 524 758 524 659 l 731 758 q 718 545 731 645 q 674 353 705 446 q 589 174 642 261 q 454 0 536 87 l 268 0 l 3 758 "},"Ό":{"x_min":-39,"x_max":1026,"ha":1106,"o":"m 1026 496 q 999 287 1026 382 q 917 126 972 193 q 778 22 862 59 q 581 -14 695 -14 q 383 22 467 -14 q 245 126 299 59 q 163 288 190 193 q 137 498 137 382 q 163 707 137 613 q 245 867 190 801 q 384 970 300 934 q 582 1007 467 1007 q 779 970 696 1007 q 917 867 863 934 q 999 706 972 800 q 1026 496 1026 612 m 353 496 q 366 355 353 417 q 408 250 380 293 q 479 184 436 207 q 581 160 522 160 q 685 184 641 160 q 755 250 728 207 q 796 355 783 293 q 809 496 809 417 q 796 636 809 574 q 755 742 783 698 q 685 808 728 785 q 582 832 642 832 q 480 808 523 832 q 408 742 436 785 q 366 636 380 698 q 353 496 353 574 m -39 789 q -26 835 -32 809 q -15 889 -20 861 q -5 943 -9 916 q 2 993 0 970 l 194 993 l 194 978 q 145 879 173 932 q 81 771 117 826 l -39 771 l -39 789 "},"−":{"x_min":60,"x_max":705,"ha":765,"o":"m 60 415 l 60 564 l 705 564 l 705 415 l 60 415 "},"⅜":{"x_min":40,"x_max":1183,"ha":1224,"o":"m 451 846 q 423 766 451 800 q 335 712 396 732 l 335 703 q 395 682 370 697 q 437 649 420 668 q 461 608 453 631 q 470 562 470 586 q 410 433 470 480 q 224 386 350 386 q 128 397 173 386 q 40 433 84 409 l 40 562 q 129 518 84 535 q 224 501 174 501 q 298 519 275 501 q 322 573 322 537 q 316 600 322 587 q 298 623 311 613 q 263 639 285 633 q 208 645 241 645 l 132 645 l 132 754 l 193 754 q 249 760 228 754 q 283 776 271 766 q 299 800 295 787 q 303 828 303 814 q 286 871 303 854 q 235 888 269 888 q 175 875 203 888 q 109 834 147 862 l 41 930 q 134 982 83 961 q 255 1004 185 1004 q 333 992 297 1004 q 395 961 369 981 q 436 911 421 940 q 451 846 451 882 m 960 992 l 409 0 l 247 0 l 798 992 l 960 992 m 951 607 q 1033 597 995 607 q 1100 569 1071 588 q 1144 523 1128 551 q 1161 458 1161 495 q 1153 413 1161 434 q 1132 376 1146 393 q 1102 347 1119 360 q 1064 323 1084 334 q 1108 295 1087 309 q 1146 263 1129 281 q 1172 221 1162 244 q 1183 169 1183 198 q 1166 95 1183 129 q 1119 36 1149 61 q 1046 -2 1088 11 q 951 -16 1003 -16 q 851 -2 894 -16 q 778 34 808 10 q 734 92 749 58 q 719 165 719 126 q 727 218 719 195 q 751 259 736 241 q 785 291 765 277 q 825 317 804 305 q 792 345 807 330 q 764 376 776 359 q 746 414 752 393 q 740 458 740 434 q 756 523 740 495 q 802 569 773 550 q 869 597 831 587 q 951 607 908 607 m 866 169 q 887 114 866 135 q 949 92 908 92 q 1013 114 991 92 q 1035 169 1035 135 q 1012 223 1035 201 q 948 261 989 246 l 939 264 q 885 226 904 248 q 866 169 866 203 m 949 498 q 903 482 919 498 q 887 447 887 467 q 906 403 887 420 q 951 373 924 387 q 975 386 964 379 q 995 402 987 393 q 1008 422 1003 411 q 1013 447 1013 433 q 998 482 1013 467 q 949 498 983 498 "},"ǰ":{"x_min":-70,"x_max":492,"ha":424,"o":"m 68 -334 q 1 -329 36 -334 q -56 -317 -32 -324 l -56 -154 q -16 -164 -34 -161 q 24 -167 1 -167 q 56 -162 41 -167 q 83 -144 72 -157 q 101 -109 94 -131 q 108 -52 108 -87 l 108 758 l 315 758 l 315 -82 q 301 -180 315 -134 q 259 -260 288 -226 q 182 -314 229 -294 q 68 -334 135 -334 m 492 1045 q 452 1000 475 1026 q 408 947 430 974 q 366 892 386 919 q 331 842 346 865 l 90 842 q 54 892 75 865 q 12 947 34 919 q -30 1000 -9 974 q -70 1045 -52 1026 l -70 1064 l 67 1064 q 137 1011 102 1041 q 209 945 172 982 q 282 1011 244 982 q 354 1064 319 1041 l 492 1064 l 492 1045 "},"ā":{"x_min":58,"x_max":694,"ha":798,"o":"m 548 0 l 508 104 l 502 104 q 457 51 479 73 q 408 14 434 28 q 349 -7 382 0 q 272 -14 316 -14 q 187 0 226 -14 q 119 44 148 15 q 74 119 90 74 q 58 226 58 164 q 135 404 58 347 q 366 467 212 461 l 487 472 l 487 529 q 460 598 487 575 q 384 620 432 620 q 289 606 335 620 q 196 568 242 592 l 129 705 q 255 755 186 737 q 400 774 324 774 q 618 707 542 774 q 694 505 694 641 l 694 0 l 548 0 m 487 351 l 418 348 q 348 337 377 347 q 302 312 319 328 q 277 274 285 296 q 269 226 269 253 q 292 159 269 178 q 353 139 315 139 q 406 149 381 139 q 448 177 430 158 q 476 225 466 197 q 487 289 487 253 l 487 351 m 189 985 l 607 985 l 607 842 l 189 842 l 189 985 "},"ĵ":{"x_min":-70,"x_max":492,"ha":424,"o":"m 68 -334 q 1 -329 36 -334 q -56 -317 -32 -324 l -56 -154 q -16 -164 -34 -161 q 24 -167 1 -167 q 56 -162 41 -167 q 83 -144 72 -157 q 101 -109 94 -131 q 108 -52 108 -87 l 108 758 l 315 758 l 315 -82 q 301 -180 315 -134 q 259 -260 288 -226 q 182 -314 229 -294 q 68 -334 135 -334 m 354 842 q 282 894 319 864 q 209 960 244 923 q 137 894 172 923 q 67 842 102 864 l -70 842 l -70 860 q -30 905 -52 879 q 12 958 -9 931 q 54 1013 34 986 q 90 1064 75 1040 l 331 1064 q 366 1013 346 1040 q 408 958 386 986 q 452 905 430 931 q 492 860 475 879 l 492 842 l 354 842 "},"Ĩ":{"x_min":3,"x_max":537,"ha":541,"o":"m 495 0 l 44 0 l 44 119 l 165 174 l 165 817 l 44 872 l 44 992 l 495 992 l 495 872 l 375 817 l 375 174 l 495 119 l 495 0 m 158 1135 q 124 1119 137 1135 q 104 1069 112 1103 l 3 1069 q 20 1163 7 1123 q 56 1228 34 1202 q 108 1266 78 1253 q 173 1279 137 1279 q 227 1269 201 1279 q 280 1246 254 1259 q 331 1224 306 1234 q 381 1214 357 1214 q 414 1230 402 1214 q 435 1280 427 1246 l 537 1280 q 519 1187 532 1226 q 482 1122 505 1148 q 430 1083 460 1096 q 366 1071 401 1071 q 312 1081 339 1071 q 259 1103 284 1091 q 208 1125 233 1115 q 158 1135 182 1135 "},"*":{"x_min":42.8125,"x_max":714.546875,"ha":757,"o":"m 467 1055 l 439 805 l 692 875 l 714 704 l 483 688 l 635 487 l 481 405 l 375 617 l 282 406 l 122 487 l 272 688 l 42 706 l 69 875 l 316 805 l 289 1055 l 467 1055 "},"à":{"x_min":58,"x_max":694,"ha":798,"o":"m 548 0 l 508 104 l 502 104 q 457 51 479 73 q 408 14 434 28 q 349 -7 382 0 q 272 -14 316 -14 q 187 0 226 -14 q 119 44 148 15 q 74 119 90 74 q 58 226 58 164 q 135 404 58 347 q 366 467 212 461 l 487 472 l 487 529 q 460 598 487 575 q 384 620 432 620 q 289 606 335 620 q 196 568 242 592 l 129 705 q 255 755 186 737 q 400 774 324 774 q 618 707 542 774 q 694 505 694 641 l 694 0 l 548 0 m 487 351 l 418 348 q 348 337 377 347 q 302 312 319 328 q 277 274 285 296 q 269 226 269 253 q 292 159 269 178 q 353 139 315 139 q 406 149 381 139 q 448 177 430 158 q 476 225 466 197 q 487 289 487 253 l 487 351 m 654 1071 q 632 978 650 1020 q 584 906 615 936 q 508 858 552 875 q 405 842 463 842 q 301 858 345 842 q 226 904 256 874 q 180 976 196 934 q 162 1071 164 1018 l 277 1071 q 289 1024 280 1041 q 315 998 299 1007 q 354 987 331 989 q 406 985 377 985 q 453 988 431 985 q 492 1000 475 991 q 521 1026 510 1009 q 535 1071 533 1043 l 654 1071 "},"Χ":{"x_min":-0.25,"x_max":871.25,"ha":871,"o":"m 871 0 l 631 0 l 428 375 l 224 0 l 0 0 l 301 511 l 20 992 l 252 992 l 438 635 l 620 992 l 847 992 l 563 500 l 871 0 "},"†":{"x_min":83,"x_max":633,"ha":717,"o":"m 633 628 l 408 649 l 445 0 l 256 0 l 294 649 l 83 628 l 83 792 l 294 772 l 256 1055 l 445 1055 l 408 772 l 633 792 l 633 628 "},"°":{"x_min":63,"x_max":532,"ha":595,"o":"m 63 771 q 81 862 63 819 q 131 936 99 904 q 206 987 163 968 q 297 1006 248 1006 q 389 987 346 1006 q 463 936 432 968 q 513 862 495 904 q 532 771 532 819 q 513 679 532 722 q 463 605 495 637 q 389 555 432 573 q 297 538 346 538 q 206 555 248 538 q 131 605 163 573 q 81 679 99 637 q 63 771 63 722 m 211 771 q 218 735 211 752 q 236 705 224 718 q 263 685 248 692 q 297 677 279 677 q 330 685 314 677 q 358 705 346 692 q 376 735 369 718 q 383 771 383 752 q 376 807 383 790 q 358 838 369 825 q 330 858 346 851 q 297 866 314 866 q 263 858 279 866 q 236 838 248 851 q 218 807 224 825 q 211 771 211 790 "},"Ξ":{"x_min":55,"x_max":682,"ha":737,"o":"m 138 602 l 598 602 l 598 427 l 138 427 l 138 602 m 83 992 l 654 992 l 654 817 l 83 817 l 83 992 m 682 174 l 682 0 l 55 0 l 55 174 l 682 174 "},"Ķ":{"x_min":125,"x_max":880.25,"ha":880,"o":"m 880 0 l 641 0 l 413 412 l 335 354 l 335 0 l 125 0 l 125 992 l 335 992 l 335 514 l 417 654 l 644 992 l 877 992 l 561 544 l 880 0 m 300 -288 q 312 -242 306 -268 q 323 -188 318 -216 q 334 -134 329 -161 q 341 -85 339 -107 l 533 -85 l 533 -98 q 484 -198 512 -145 q 420 -307 456 -251 l 300 -307 l 300 -288 "},"ŵ":{"x_min":-0.25,"x_max":1120.25,"ha":1120,"o":"m 688 0 l 629 265 q 622 297 626 276 q 612 346 618 319 q 601 403 607 372 q 589 463 595 433 q 559 613 575 532 l 555 613 q 527 462 539 532 q 515 402 521 432 q 504 344 510 371 q 494 296 499 317 q 487 262 490 274 l 426 0 l 204 0 l 0 758 l 205 758 l 282 422 q 294 359 288 395 q 306 284 301 322 q 317 213 312 246 q 324 160 322 179 l 328 160 q 331 193 329 172 q 337 237 334 214 q 344 286 341 261 q 352 332 348 311 q 359 371 356 354 q 364 394 362 387 l 447 758 l 674 758 l 754 394 q 763 348 757 379 q 774 281 768 317 q 784 212 780 246 q 789 160 788 178 l 793 160 q 800 210 795 176 q 811 281 805 243 q 824 357 817 320 q 837 422 831 395 l 917 758 l 1120 758 l 913 0 l 688 0 m 702 842 q 630 894 667 864 q 557 960 592 923 q 485 894 520 923 q 415 842 450 864 l 278 842 l 278 860 q 317 905 295 879 q 360 958 338 931 q 402 1013 382 986 q 438 1064 423 1040 l 679 1064 q 714 1013 694 1040 q 756 958 734 986 q 800 905 778 931 q 840 860 823 879 l 840 842 l 702 842 "},"΄":{"x_min":319,"x_max":552,"ha":802,"o":"m 319 860 q 331 906 325 880 q 342 960 337 932 q 353 1014 348 987 q 360 1064 357 1041 l 552 1064 l 552 1049 q 503 950 531 1003 q 439 842 475 897 l 319 842 l 319 860 "},"ǽ":{"x_min":58,"x_max":1159,"ha":1225,"o":"m 860 -14 q 698 20 771 -14 q 578 125 625 54 q 521 62 549 89 q 459 19 492 36 q 384 -5 426 2 q 287 -14 342 -14 q 199 0 241 -14 q 126 44 157 15 q 76 119 94 74 q 58 226 58 164 q 135 404 58 346 q 367 467 212 461 l 488 471 l 488 528 q 460 598 488 575 q 384 620 433 620 q 289 606 335 620 q 195 568 242 592 l 128 705 q 254 755 185 737 q 399 774 323 774 q 618 685 544 774 q 832 773 704 773 q 968 750 907 773 q 1071 683 1029 727 q 1136 574 1113 639 q 1159 427 1159 510 l 1159 327 l 694 327 q 708 248 696 283 q 744 189 721 213 q 799 152 767 165 q 873 139 831 139 q 996 154 937 139 q 1116 199 1056 168 l 1116 39 q 1061 15 1089 25 q 1003 -1 1034 5 q 937 -10 972 -7 q 860 -14 902 -14 m 488 351 l 419 348 q 348 337 377 347 q 302 312 320 328 q 277 274 285 296 q 269 226 269 252 q 292 159 269 178 q 353 139 316 139 q 406 149 382 139 q 449 177 431 158 q 477 225 467 197 q 488 289 488 252 l 488 351 m 833 625 q 740 586 777 625 q 698 465 704 548 l 964 465 q 955 529 963 499 q 931 579 947 558 q 890 613 915 601 q 833 625 866 625 m 513 842 l 513 860 q 543 905 527 879 q 575 958 559 931 q 605 1013 591 986 q 631 1064 620 1040 l 863 1064 l 863 1049 q 841 1021 855 1037 q 808 985 827 1004 q 769 946 790 966 q 727 907 748 926 q 685 871 705 888 q 650 842 666 854 l 513 842 "},"Β":{"x_min":125,"x_max":818,"ha":892,"o":"m 125 992 l 415 992 q 579 978 508 992 q 697 936 649 965 q 768 858 744 906 q 793 740 793 810 q 782 662 793 698 q 752 597 772 625 q 705 551 733 569 q 640 526 677 532 l 640 519 q 709 496 677 511 q 766 454 742 480 q 804 386 790 427 q 818 287 818 345 q 794 166 818 219 q 726 76 770 113 q 618 19 681 39 q 474 0 554 0 l 125 0 l 125 992 m 335 599 l 444 599 q 509 606 483 599 q 552 627 536 613 q 575 662 568 641 q 582 711 582 683 q 547 792 582 768 q 434 817 511 817 l 335 817 l 335 599 m 335 432 l 335 174 l 459 174 q 529 184 501 174 q 575 211 557 193 q 600 253 592 228 q 607 309 607 278 q 600 359 607 336 q 574 398 592 382 q 527 423 556 414 q 454 432 497 432 l 335 432 "},"Ļ":{"x_min":125,"x_max":696,"ha":743,"o":"m 125 0 l 125 992 l 335 992 l 335 174 l 696 174 l 696 0 l 125 0 m 268 -288 q 280 -242 274 -268 q 291 -188 286 -216 q 302 -134 297 -161 q 309 -85 307 -107 l 501 -85 l 501 -98 q 452 -198 480 -145 q 388 -307 424 -251 l 268 -307 l 268 -288 "},"Õ":{"x_min":81,"x_max":970,"ha":1050,"o":"m 970 496 q 943 287 970 382 q 861 126 916 193 q 722 22 806 59 q 525 -14 639 -14 q 327 22 411 -14 q 189 126 243 59 q 107 288 134 193 q 81 498 81 382 q 107 707 81 613 q 189 867 134 801 q 328 970 244 934 q 526 1007 411 1007 q 723 970 640 1007 q 861 867 807 934 q 943 706 916 800 q 970 496 970 612 m 297 496 q 310 355 297 417 q 352 250 324 293 q 423 184 380 207 q 525 160 466 160 q 629 184 585 160 q 699 250 672 207 q 740 355 727 293 q 753 496 753 417 q 740 636 753 574 q 699 742 727 698 q 629 808 672 785 q 526 832 586 832 q 424 808 467 832 q 352 742 380 785 q 310 636 324 698 q 297 496 297 574 m 415 1135 q 381 1119 394 1135 q 361 1069 369 1103 l 260 1069 q 277 1163 264 1123 q 313 1228 291 1202 q 365 1266 335 1253 q 430 1279 394 1279 q 484 1269 458 1279 q 537 1246 511 1259 q 588 1224 563 1234 q 638 1214 614 1214 q 671 1230 659 1214 q 692 1280 684 1246 l 794 1280 q 776 1187 789 1226 q 739 1122 762 1148 q 687 1083 717 1096 q 623 1071 658 1071 q 569 1081 596 1071 q 516 1103 541 1091 q 465 1125 490 1115 q 415 1135 439 1135 "},"№":{"x_min":92,"x_max":1321,"ha":1372,"o":"m 807 0 l 577 0 l 272 710 l 262 710 q 271 608 267 659 q 276 516 274 565 q 279 426 279 467 l 279 0 l 92 0 l 92 992 l 321 992 l 625 286 l 636 286 q 627 379 631 332 q 622 468 624 420 q 619 559 619 516 l 619 992 l 807 992 l 807 0 m 901 0 l 901 132 l 1306 132 l 1306 0 l 901 0 m 1321 438 q 1305 333 1321 379 q 1262 256 1290 287 q 1193 207 1233 224 q 1102 191 1152 191 q 1016 207 1056 191 q 948 256 977 224 q 903 333 919 287 q 888 438 888 379 q 903 542 888 497 q 946 619 918 588 q 1015 667 974 651 q 1105 684 1055 684 q 1190 667 1151 684 q 1259 619 1230 651 q 1304 542 1287 588 q 1321 438 1321 497 m 1058 438 q 1069 334 1058 369 q 1104 299 1080 299 q 1139 334 1128 299 q 1150 438 1150 369 q 1139 541 1150 507 q 1104 575 1128 575 q 1069 541 1080 575 q 1058 438 1058 507 "},"χ":{"x_min":-33.1875,"x_max":789.25,"ha":781,"o":"m 155 768 q 235 756 202 768 q 291 721 268 745 q 332 661 314 698 q 365 573 349 624 l 412 423 l 581 758 l 789 758 l 501 236 l 625 -87 q 644 -126 634 -111 q 666 -151 654 -141 q 693 -164 678 -160 q 725 -167 707 -167 q 753 -166 738 -167 q 789 -159 767 -164 l 789 -313 q 761 -322 774 -319 q 733 -328 748 -326 q 701 -332 718 -331 q 664 -334 685 -334 q 586 -321 620 -334 q 527 -284 552 -308 q 482 -222 501 -259 q 447 -135 462 -184 l 379 85 l 187 -334 l -33 -334 l 286 270 l 202 511 q 183 555 194 538 q 161 583 173 573 q 136 597 149 593 q 108 601 122 601 q 76 599 95 601 q 36 588 57 596 l 36 747 q 92 761 64 755 q 155 768 120 768 "},"ί":{"x_min":109,"x_max":509,"ha":538,"o":"m 315 758 l 315 236 q 337 171 315 192 q 395 150 359 150 q 453 157 425 150 q 509 174 480 164 l 509 20 q 436 -4 479 5 q 342 -14 393 -14 q 250 -2 292 -14 q 176 37 207 9 q 126 115 144 66 q 109 237 109 163 l 109 758 l 315 758 m 140 860 q 152 906 146 880 q 163 960 158 932 q 174 1014 169 987 q 181 1064 178 1041 l 373 1064 l 373 1049 q 324 950 352 1003 q 260 842 296 897 l 140 842 l 140 860 "},"Ζ":{"x_min":33,"x_max":716,"ha":749,"o":"m 716 0 l 33 0 l 33 137 l 453 817 l 45 817 l 45 992 l 703 992 l 703 855 l 283 174 l 716 174 l 716 0 "},"Ľ":{"x_min":125,"x_max":696,"ha":743,"o":"m 125 0 l 125 992 l 335 992 l 335 174 l 696 174 l 696 0 l 125 0 m 444 788 q 456 835 450 809 q 467 888 462 861 q 478 943 473 916 q 485 993 483 970 l 677 993 l 677 979 q 628 879 656 933 q 564 771 600 825 l 444 771 l 444 788 "},"ť":{"x_min":32,"x_max":654,"ha":575,"o":"m 416 152 q 474 158 446 152 q 530 175 501 165 l 530 20 q 457 -4 500 5 q 364 -14 414 -14 q 271 -2 314 -14 q 198 38 229 9 q 148 115 166 67 q 131 237 131 164 l 131 604 l 32 604 l 32 691 l 145 759 l 205 919 l 337 919 l 337 758 l 521 758 l 521 604 l 337 604 l 337 238 q 359 173 337 194 q 416 152 381 152 m 421 865 q 433 912 427 886 q 444 965 439 938 q 455 1020 450 993 q 462 1070 460 1047 l 654 1070 l 654 1056 q 605 956 633 1010 q 541 848 577 902 l 421 848 l 421 865 "},"5":{"x_min":58,"x_max":707,"ha":765,"o":"m 405 634 q 524 614 469 634 q 620 556 579 594 q 683 461 660 518 q 707 331 707 405 q 681 186 707 250 q 607 78 656 122 q 486 9 559 33 q 320 -14 414 -14 q 246 -10 283 -14 q 176 0 210 -7 q 112 15 142 5 q 58 39 82 26 l 58 220 q 113 194 81 206 q 178 174 144 182 q 245 160 211 165 q 310 155 279 155 q 449 193 401 155 q 496 313 496 231 q 450 425 496 387 q 306 464 403 464 q 268 462 288 464 q 229 456 248 460 q 192 449 209 453 q 161 442 174 446 l 78 486 l 115 992 l 639 992 l 639 817 l 297 817 l 280 619 q 331 629 302 624 q 405 634 360 634 "},"o":{"x_min":69,"x_max":762,"ha":832,"o":"m 280 380 q 312 209 280 267 q 415 152 344 152 q 518 210 486 152 q 550 380 550 267 q 518 550 550 494 q 414 606 486 606 q 312 550 343 606 q 280 380 280 494 m 762 380 q 737 212 762 285 q 668 88 713 138 q 558 12 623 38 q 413 -14 494 -14 q 275 12 338 -14 q 166 88 212 38 q 94 212 120 138 q 69 380 69 285 q 93 548 69 474 q 162 671 117 621 q 271 747 207 721 q 417 773 336 773 q 555 747 492 773 q 664 671 618 721 q 736 548 710 621 q 762 380 762 474 "},"Ѕ":{"x_min":63.46875,"x_max":668,"ha":728,"o":"m 668 275 q 645 155 668 208 q 578 64 622 102 q 471 6 535 26 q 326 -14 408 -14 q 187 0 254 -14 q 63 45 120 15 l 63 241 q 129 211 96 225 q 196 185 162 197 q 265 167 231 174 q 333 160 299 160 q 392 168 368 160 q 432 190 417 176 q 455 223 448 203 q 462 264 462 242 q 450 314 462 292 q 417 354 438 335 q 365 390 396 372 q 298 427 335 408 q 228 467 267 444 q 155 524 189 490 q 98 607 121 558 q 75 723 75 655 q 97 842 75 790 q 159 931 119 895 q 258 987 200 968 q 388 1006 316 1006 q 458 1001 424 1006 q 526 987 492 996 q 594 965 560 978 q 663 936 627 953 l 596 772 q 539 797 565 786 q 487 816 512 808 q 438 827 462 823 q 389 831 414 831 q 308 802 336 831 q 280 727 280 774 q 288 683 280 702 q 316 646 297 663 q 364 612 334 630 q 435 572 393 594 q 529 517 486 545 q 603 454 572 488 q 651 376 634 420 q 668 275 668 333 "}}}
